<svg xmlns="http://www.w3.org/2000/svg" width="78" height="78" viewBox="0 0 78 78">
  <defs>
    <linearGradient id="alphabet-a" x1="50%" x2="50%" y1="-32.282%" y2="128.813%">
      <stop offset="0%" stop-color="#253659"/>
      <stop offset="100%" stop-color="#102131"/>
    </linearGradient>
  </defs>
  <g fill="none" fill-rule="evenodd">
    <rect width="77.305" height="77.305" x=".292" y=".292" fill="url(#alphabet-a)" rx="10.5"/>
    <path fill="#986CC0" d="M32.456,54.648 L30.776,49.896 L18.152,49.896 L16.424,54.648 L5,54.648 L19.208,21 L30.632,21 L44.312,54.648 L32.456,54.648 Z M21.032,41.928 L28.04,41.928 L24.584,32.088 L21.032,41.928 Z M68.144,30.48 C70.2720106,32.1920086 71.336,34.5839846 71.336,37.656 L71.336,54.648 L60.728,54.648 L60.728,51.816 C59.127992,54.024011 56.6640166,55.128 53.336,55.128 C50.5839862,55.128 48.4320078,54.3840074 46.88,52.896 C45.3279922,51.4079926 44.552,49.4000126 44.552,46.872 C44.552,44.279987 45.4159914,42.3120067 47.144,40.968 C48.8720086,39.6239933 51.3999834,38.9200003 54.728,38.856 L60.728,38.856 C60.6959998,37.9279954 60.3360034,37.2160025 59.648,36.72 C58.9599966,36.2239975 57.9600066,35.976 56.648,35.976 C55.6239949,35.976 54.4000071,36.1199986 52.976,36.408 C51.552,36.6960014 50.1200072,37.1119973 48.68,37.656 L46.28,30.456 C48.5200112,29.6239958 50.7519889,28.9920022 52.976,28.56 C55.2000111,28.1279978 57.2879902,27.912 59.24,27.912 C63.048019,27.912 66.0159894,28.7679914 68.144,30.48 Z M59.12,47.736 C59.7760033,47.3839982 60.3119979,46.8880032 60.728,46.248 L60.728,43.848 L56.984,43.848 C55.4479923,43.848 54.68,44.551993 54.68,45.96 C54.68,46.6960037 54.8879979,47.263998 55.304,47.664 C55.7200021,48.064002 56.3119962,48.264 57.08,48.264 C57.7840035,48.264 58.4639967,48.0880018 59.12,47.736 Z" opacity=".192"/>
  </g>
</svg>
