<?xml version="1.0" encoding="UTF-8"?>
<svg width="108px" height="32px" viewBox="0 0 108 32" version="1.1" xmlns="http://www.w3.org/2000/svg" xmlns:xlink="http://www.w3.org/1999/xlink">
    <!-- Generator: Sketch 52.1 (67048) - http://www.bohemiancoding.com/sketch -->
    <title>coldwell-banker-4228-logo-svg-vector</title>
    <desc>Created with Sketch.</desc>
    <g id="website" stroke="none" stroke-width="1" fill="none" fill-rule="evenodd">
        <g id="home-" transform="translate(-791.000000, -10413.000000)" fill="#FFFFFF" fill-rule="nonzero">
            <g id="CTA-with-form-and-logos" transform="translate(0.000000, 9703.000000)">
                <g id="logos" transform="translate(525.000000, 587.000000)">
                    <g id="coldwell-banker-4228-logo-svg-vector" transform="translate(266.000000, 123.000000)">
                        <path d="M45.7438829,15.9965133 L45.7438829,29.3024371 L50.459187,29.3024371 L50.459187,26.2341191 L51.7851134,24.5715323 L55.7628926,32 L60.8463811,32 L55.8732901,22.3162024 L53.9583842,22.3162024 L59.2262539,15.9965133 L54.2531629,15.9965133 L50.459187,20.2096393 L50.459187,15.9965133 L45.7438829,15.9965133 Z M101.803866,9.1671812 L101.803866,0.000581120837 L97.0920301,0.000581120837 L97.0920301,9.16660008 L90.9010982,9.16660008 L90.9010982,0.000581120837 L86.1892621,0.000581120837 L86.1892621,9.16660008 L77.3453214,9.16660008 C75.8720057,9.16660008 74.8772719,7.90963571 74.8772719,6.32085134 C74.8772719,4.73206697 75.7240383,3.32691679 77.3823133,3.32691679 L80.0711579,3.32691679 C81.1762893,3.32691679 81.1762893,4.62049177 80.1069938,4.62049177 L75.8338578,4.62049177 C75.7234603,6.83804889 77.0499647,7.76203102 78.4857106,7.76203102 L81.1011496,7.76203102 C85.0795068,7.76203102 85.2274742,4.8052882 85.2274742,3.62212618 C85.2274742,2.43954527 83.7541584,0 81.2491169,0 L76.975981,0 C73.6975788,0 70.6393937,2.88294047 70.6393937,6.46787491 C70.6393937,9.75759997 72.9230621,13.3053427 76.975981,13.3053427 L81.469912,13.3053427 C83.9928714,13.3053427 85.5205189,11.4608651 86.203134,10.209712 C86.3644613,11.9644979 87.8293134,13.3065152 89.5821078,13.3053427 L93.6991844,13.3053427 C95.5624197,13.306673 97.0774743,11.7958895 97.0914521,9.92263829 C97.1054327,11.7963432 98.6211898,13.3073123 100.484876,13.3053427 L104.601952,13.3053427 C106.47582,13.3053427 107.996532,11.7804816 107.996532,9.89997458 L108,9.16601896 L101.803866,9.16601896 L101.803866,9.1671812 Z M60.6995697,11.4585407 C61.5099223,12.8631097 62.4063965,13.3065049 63.9138141,13.3065049 L66.1419947,13.3065049 C68.0170188,13.3065049 69.5365744,11.7816438 69.5365744,9.90113682 L69.5365744,0.000581120837 L67.8632715,0.000581120837 C65.6541648,0.000581120837 64.8253163,2.10714415 64.8253163,3.54832383 L64.8253163,8.16823448 C64.8253163,9.51759707 63.0757177,9.4990012 63.0757177,8.13162387 L63.0757177,0.000581120837 L58.3604136,0.000581120837 L58.3604136,8.27980968 C58.3604136,9.49958232 56.5744011,9.46239059 56.5744011,8.27980968 L56.5744011,0.000581120837 L51.861987,0.000581120837 L51.861987,9.9005557 C51.861987,11.7810627 53.3815426,13.3059238 55.2571447,13.3059238 L57.4494894,13.3059238 C58.9597971,13.3065049 59.9637788,12.7893074 60.6995697,11.4585407 Z M105.11059,16.0058112 L95.2227859,16.0058112 C94.1110771,16.0051688 93.2091626,16.9103962 93.2078865,18.0281117 L93.2078865,27.2900156 C93.2091627,28.4076373 94.1111707,29.3126984 95.2227859,29.311735 L105.11059,29.311735 C105.644462,29.3123518 106.156703,29.0996778 106.534586,28.7205151 C106.91247,28.3413524 107.12503,27.8267722 107.12549,27.2900156 L107.12549,18.0281117 C107.12549,16.9111975 106.223813,16.0058112 105.11059,16.0058112 Z M95.8897951,21.0464533 C95.8897951,19.5675008 97.105902,17.7195366 98.9843941,17.7195366 L101.379038,17.7195366 L101.379038,19.5675008 L98.8919145,19.5675008 L98.8919145,22.4696183 L101.379038,22.4696183 L101.379038,24.4465914 L99.0953696,24.4465914 C96.9949265,24.4465914 95.8897951,22.5242436 95.8897951,21.0464533 Z M102.206152,26.8280246 L99.4248282,26.8280246 L99.4248282,24.9800603 L101.910796,24.9800603 L101.910796,21.9675299 L99.4248282,21.9675299 L99.4248282,20.1015509 L102.42637,20.1015509 C103.679468,20.1015509 104.415259,20.7669342 104.379423,21.6903352 C104.342431,22.6143174 103.974247,23.0954854 103.458095,23.4278865 C103.936677,23.6492936 104.563227,24.0932699 104.563227,25.2020485 C104.563227,26.310827 103.310128,26.8280246 102.206152,26.8280246 Z M45.3774324,0.000581120837 L37.899878,0.000581120837 L37.899878,9.16660008 L31.7112581,9.16660008 L31.7112581,0.000581120837 L27,0.000581120837 L27,9.9005557 C27,11.7810627 28.5195556,13.3059238 30.3945797,13.3059238 L34.5116563,13.3059238 C36.340865,13.307214 37.8408558,11.8485046 37.900456,10.0103875 L37.900456,13.3059238 L45.4514161,13.3059238 C47.4772975,13.3059238 50.9030891,10.6815821 50.9030891,6.50506665 C50.9030891,2.32855119 47.0351294,0.000581120837 45.3774324,0.000581120837 Z M44.1908034,9.16543784 L42.6435039,9.16543784 L42.6435039,3.76914975 L44.1908034,3.76914975 C45.7745167,3.76914975 46.6952668,4.72974249 46.6952668,6.61489849 C46.6952668,8.50005448 45.6271274,9.16543784 44.1908034,9.16543784 Z" id="Shape"></path>
                        <path d="M85.5408075,23.0278577 C88.3739959,22.5527007 88.7054778,20.6135308 88.7054778,19.369839 C88.7054778,18.0530903 87.4534695,15.8205427 85.0609095,15.8205427 L74.6827543,15.8205427 L74.6827543,24.8939707 L65.0027901,24.8939707 C63.5307565,24.8939707 62.5368883,23.6502789 62.5368883,22.0763932 C62.5368883,20.503658 63.3840728,19.1138525 65.0397498,19.1138525 L67.8371336,19.1138525 C68.7934646,19.1138525 68.7934646,20.3949356 67.9104754,20.3949356 L63.4937968,20.3949356 C63.3846503,22.5889415 64.7088454,23.5047405 66.1444969,23.5047405 L69.1619061,23.5047405 C73.1368013,23.5047405 73.5052429,20.5778653 73.5052429,19.4060798 C73.5052429,18.2354448 72.106551,15.8211179 69.6036895,15.8211179 L64.6349261,15.8211179 C61.3593768,15.8211179 58.305008,18.6749362 58.305008,22.2242326 C58.305008,25.4801511 60.5866891,28.9926314 64.6349261,28.9926314 L69.972131,28.9926314 C72.4703726,28.9926314 73.9920708,27.1995752 74.6833318,25.9622111 L74.6833318,28.9926314 L79.3945326,28.9926314 L79.3945326,21.9682461 L83.7742515,28.9926314 L89,28.9926314 L85.5408075,23.0278577 Z M83.667415,20.3753771 L79.4355347,20.3753771 L79.4355347,19.0942939 L83.5940732,19.0942939 C84.5145996,19.0942939 84.5145996,20.3753771 83.667415,20.3753771 Z M19.4321152,0 C15.7448123,0 12.7557003,2.97116947 12.7557003,6.63666644 C12.7557003,7.5167999 12.9295262,8.35609056 13.2425283,9.12462539 L6.69835966,9.12462539 C5.77841079,9.12462539 4.37971891,8.24679294 4.37971891,6.63666644 C4.37971891,5.0271152 5.52027071,3.56367761 6.77170147,3.56367761 L11.9980274,3.56367761 L11.9980274,0.0511973055 L6.29353595,0.0511973055 C4.08519667,0.0511973055 0,1.95412637 0,6.85641218 C0,11.758698 4.93180373,13.2227108 6.29353595,13.2227108 L9.3479048,13.2227108 C10.284601,13.2227108 12.9197088,11.983621 13.6768042,9.99958159 C14.8772855,12.0297364 17.0667612,13.2753786 19.4321152,13.2739081 C23.1188406,13.2739081 26.1079526,10.3021634 26.1079526,6.63666644 C26.1079526,2.97116947 23.1194181,0 19.4321152,0 Z M19.4644549,9.17122069 C18.0578292,9.1724922 16.9164102,8.03782611 16.9148163,6.63666644 C16.9155817,5.96385047 17.1846336,5.31889419 17.6627837,4.84368085 C18.1409338,4.36846751 18.7890144,4.10192419 19.4644549,4.10268745 C20.1398954,4.10192419 20.787976,4.36846751 21.2661261,4.84368085 C21.7442761,5.31889419 22.0133281,5.96385047 22.0140935,6.63666644 C22.0121811,8.03769427 20.8709489,9.17217464 19.4644549,9.17122069 Z M39.647313,15.8205427 L39.647313,22.6257575 L34.4949064,15.8205427 L30.2254889,15.8205427 L30.2254889,28.3897688 L24.8524793,15.8205427 L22.7544415,15.8205427 C20.730323,15.8205427 19.9940174,17.4663347 19.6261534,18.4183745 L15.0991733,28.9920562 L19.295249,28.9920562 L20.676616,25.9035356 C21.5515203,29.2842835 24.9263986,28.9920562 24.9263986,28.9920562 L35.1578701,28.9920562 L35.1578701,23.3574763 L38.3964598,27.7851804 C39.5739712,29.1749859 40.6411812,28.9920562 41.5247479,28.9920562 L44.3585138,28.9920562 L44.3585138,15.8205427 L39.647313,15.8205427 Z M20.9260937,25.2673084 L22.4963014,21.7554033 L23.821074,25.2673084 L20.9260937,25.2673084 Z M13.4469613,22.2593229 C14.1832669,21.7841659 14.5141713,21.015631 14.4772117,19.5153774 C14.4408295,18.015699 13.4469613,15.8199674 10.5023165,15.8199674 L1.70649649,15.8199674 L1.70649649,28.9909057 L11.3858832,28.9909057 C15.139598,29.0288722 16.5382898,24.5649274 13.4469613,22.2593229 Z M9.61932725,25.0164991 L6.56438091,25.0164991 L6.56438091,23.5168207 L9.5823676,23.5168207 C10.6131954,23.5168207 10.6131954,25.0164991 9.61932725,25.0164991 Z M9.61932725,20.5594573 L6.56438091,20.5594573 L6.56438091,19.2053173 L9.5823676,19.2053173 C10.6131954,19.2053173 10.6131954,20.5594573 9.61932725,20.5594573 Z" id="Shape"></path>
                    </g>
                </g>
            </g>
        </g>
    </g>
</svg>