<?xml version="1.0" encoding="UTF-8"?>
<svg width="228px" height="49px" viewBox="0 0 228 49" version="1.1" xmlns="http://www.w3.org/2000/svg" xmlns:xlink="http://www.w3.org/1999/xlink">
    <!-- Generator: Sketch 52.1 (67048) - http://www.bohemiancoding.com/sketch -->
    <title>envelopelogo</title>
    <desc>Created with Sketch.</desc>
    <g id="website" stroke="none" stroke-width="1" fill="none" fill-rule="evenodd">
        <g id="Coming-Soon" transform="translate(-847.000000, -73.000000)" fill="#FFFFFF" fill-rule="nonzero">
            <g id="envelopelogo" transform="translate(847.000000, 73.000000)">
                <path d="M0,24.4565868 C0,21.8138099 0.583282859,19.3935254 1.74439733,17.1848802 C2.91096305,14.9816617 4.53543307,13.2288548 6.62325863,11.9373129 C8.71108419,10.645771 11.0496669,10 13.6390067,10 C16.37553,10 18.7686251,10.6620509 20.8128407,11.980726 C22.8570563,13.3048278 24.3997577,15.0739147 25.4409449,17.2988398 C26.482132,19.523765 27,22.0308757 27,24.8201722 L27,25.9109281 L4.54633555,25.9109281 C4.71532405,28.6296781 5.69109631,30.8980165 7.47910357,32.7213698 C9.26711084,34.5447231 11.6002423,35.4563997 14.4839491,35.4563997 C16.1138704,35.4563997 17.6783767,35.1470808 19.1883707,34.5338698 C20.6929134,33.9206587 22.0121139,33.0469686 23.1350697,31.9127994 L25.195639,34.7020958 C22.2519685,37.5673653 18.5723804,39 14.1459721,39 C10.0084797,39 6.61780739,37.648765 3.96850394,34.9517216 C1.31920048,32.2546781 0,28.754491 0,24.4565868 Z M4.4863719,22.6983533 L22.7098728,22.6983533 C22.6935191,21.6347305 22.4972744,20.5873877 22.1320412,19.5454716 C21.766808,18.5035554 21.2271351,17.526759 20.5184737,16.6150823 C19.804361,15.7034057 18.8503937,14.9653817 17.6565718,14.3955838 C16.4572986,13.8257859 15.0999394,13.5436003 13.5844942,13.5436003 C12.1617202,13.5436003 10.8697759,13.8203593 9.70866142,14.3793039 C8.54754694,14.9382485 7.60993337,15.6654192 6.88491823,16.5716692 C6.16535433,17.4724925 5.5984252,18.4492889 5.18413083,19.5020584 C4.7752877,20.5548278 4.54088431,21.6238772 4.4863719,22.6983533 Z" id="Shape"></path>
                <path d="M32,39 L32,10.7173538 L36.6535005,10.7173538 L36.6535005,14.8046021 C37.8301798,13.4866731 39.3912015,12.357814 41.3365658,11.4180249 C43.28193,10.4782359 45.3219016,10 47.4505676,10 C53.8188269,10 57,13.0529243 57,19.1532119 L57,39 L52.3464995,39 L52.3464995,20.4989453 C52.3464995,18.1133269 51.7552034,16.4228188 50.5844371,15.42186 C49.4077578,14.4209012 47.7343898,13.9204219 45.564333,13.9204219 C43.8200095,13.9204219 42.1407285,14.3486098 40.532403,15.2049856 C38.9181646,16.0613615 37.6291391,17.1012464 36.6535005,18.3246405 L36.6535005,39 L32,39 Z" id="Path"></path>
                <polygon id="Path" points="71.0425657 39 59 10 63.852295 10 73.5 33.7733884 83.0851314 10 88 10 75.9574343 39"></polygon>
                <path d="M91,24.4728334 C91,16.462541 96.7424763,10 104.671783,10 C113.05918,10 118,16.5222788 118,24.8149679 L118,25.9011093 L95.5372652,25.9011093 C95.8808322,31.1037263 99.5564532,35.4537224 105.533428,35.4537224 C108.690972,35.4537224 111.908503,34.1937984 114.089881,31.9672087 L116.156736,34.7694533 C113.397293,37.5173909 109.667138,38.9999739 105.129873,38.9999739 C96.9169865,39.0054046 91,33.1130878 91,24.4728334 Z M104.611796,13.5462515 C98.6948091,13.5462515 95.7663098,18.5207788 95.5372652,22.7567301 L113.746314,22.7567301 C113.691779,18.6402544 110.932337,13.5462515 104.611796,13.5462515 Z" id="Shape"></path>
                <polygon id="Path" points="125 38.9944492 125 0 127 0 127 39 125 39"></polygon>
                <path d="M137,24.4728344 C137,16.3484966 141.941983,10 149.5,10 C157.110759,10 162,16.3484966 162,24.4728344 C162,32.5971723 157.110759,38.9999759 149.5,38.9999759 C141.947257,39.0054067 137,32.5971723 137,24.4728344 Z M160.164557,24.4728344 C160.164557,17.7822033 156.388186,11.5477515 149.5,11.5477515 C142.664557,11.5477515 138.835443,17.7822033 138.835443,24.4728344 C138.835443,31.2232034 142.669831,37.4576551 149.5,37.4576551 C156.388186,37.4576551 160.164557,31.2232034 160.164557,24.4728344 Z" id="Shape"></path>
                <path d="M172.785714,33.6682511 L172.785714,49 L171,49 L171,10.6924367 L172.785714,10.6924367 L172.785714,15.3432126 C174.75226,12.4698728 178.617541,10 183.143987,10 C190.880199,10 196,15.7412275 196,24.530267 C196,33.2593317 190.880199,39.1150566 183.143987,39.1150566 C178.860533,39.1259611 175.108273,36.9396058 172.785714,33.6682511 Z M194.039105,24.5357193 C194.039105,17.2405984 190.168174,11.5593457 183.143987,11.5593457 C178.679702,11.5593457 174.571429,14.1437159 172.785714,17.0715784 L172.785714,31.9453376 C174.571429,34.8732001 178.679702,37.5720677 183.143987,37.5720677 C190.168174,37.5720677 194.039105,31.8308402 194.039105,24.5357193 Z" id="Shape"></path>
                <path d="M203,24.4728339 C203,16.4625412 208.378947,10 215.584211,10 C223.789474,10 228,16.8046757 228,24.4728339 L228,25.0430581 L204.884211,25.0430581 C205.052632,31.7934268 209.321053,37.4576541 216.136842,37.4576541 C219.905263,37.4576541 222.957895,36.0293782 225.452632,33.2814405 L226.452632,34.3675818 C223.736842,37.2838714 220.631579,38.9999748 216.142105,38.9999748 C208.378947,39.0054055 203,32.8849989 203,24.4728339 Z M215.526316,11.5477515 C208.652632,11.5477515 205.047368,18.0700304 204.884211,23.5007373 L226.226316,23.5007373 C226.226316,18.1840753 222.847368,11.5477515 215.526316,11.5477515 Z" id="Shape"></path>
            </g>
        </g>
    </g>
</svg>