<?xml version="1.0" encoding="UTF-8"?>
<svg width="93px" height="20px" viewBox="0 0 93 20" version="1.1" xmlns="http://www.w3.org/2000/svg" xmlns:xlink="http://www.w3.org/1999/xlink">
    <!-- Generator: Sketch 52.1 (67048) - http://www.bohemiancoding.com/sketch -->
    <title>envelopelogo</title>
    <desc>Created with Sketch.</desc>
    <g id="website" stroke="none" stroke-width="1" fill="none" fill-rule="evenodd">
        <g id="home-" transform="translate(-100.000000, -167.000000)" fill="#000000" fill-rule="nonzero">
            <g id="envelopelogo" transform="translate(100.000000, 167.000000)">
                <path d="M0,9.98203593 C0,8.88847305 0.237633757,7.88697605 0.710680396,6.97305389 C1.18594791,6.06137725 1.84776903,5.33607784 2.69836463,4.80164671 C3.54896023,4.26721557 4.50171613,4 5.55663234,4 C6.67151221,4 7.64647688,4.2739521 8.47930547,4.81961078 C9.31213406,5.36751497 9.94064204,6.0995509 10.3648294,7.02020958 C10.7890168,7.94086826 11,8.97829341 11,10.132485 L11,10.5838323 L1.85221078,10.5838323 C1.92105794,11.7088323 2.31859479,12.6474551 3.0470422,13.4019461 C3.7754896,14.1564371 4.72602463,14.5336826 5.90086816,14.5336826 C6.56491016,14.5336826 7.20230164,14.4056886 7.81748435,14.1519461 C8.43044619,13.8982036 8.96789824,13.5366766 9.42539875,13.0673653 L10.26489,14.2215569 C9.0656168,15.4071856 7.56652534,16 5.76317383,16 C4.07752877,16 2.69614375,15.4408683 1.6167979,14.3248503 C0.537452049,13.2088323 0,11.760479 0,9.98203593 Z M1.82778114,9.25449102 L9.2521704,9.25449102 C9.24550777,8.81437126 9.16555623,8.38098802 9.01675752,7.9498503 C8.86795881,7.51871257 8.64809207,7.11452096 8.35937815,6.73727545 C8.06844337,6.36002994 7.67979003,6.05464072 7.19341813,5.81886228 C6.70482536,5.58308383 6.15182718,5.46631737 5.53442358,5.46631737 C4.95477488,5.46631737 4.42842722,5.58083832 3.95538058,5.81212575 C3.48233394,6.04341317 3.10034323,6.34431138 2.80496669,6.71931138 C2.51181102,7.09206587 2.2808399,7.49625749 2.1120533,7.93188623 C1.94548758,8.36751497 1.84998991,8.80988024 1.82778114,9.25449102 Z" id="Shape"></path>
                <path d="M13,16 L13,4.29683605 L14.8614002,4.29683605 L14.8614002,5.98811122 C15.3320719,5.44276127 15.9564806,4.97564717 16.7346263,4.58676894 C17.512772,4.1978907 18.3287606,4 19.1802271,4 C21.7275307,4 23,5.263279 23,7.78753595 L23,16 L21.1385998,16 L21.1385998,8.34439118 C21.1385998,7.35723873 20.9020814,6.65771812 20.4337748,6.24352828 C19.9631031,5.82933845 19.2937559,5.62224353 18.4257332,5.62224353 C17.7280038,5.62224353 17.0562914,5.79942474 16.4129612,6.15378715 C15.7672658,6.50814957 15.2516556,6.93844679 14.8614002,7.44467881 L14.8614002,16 L13,16 Z" id="Path"></path>
                <polygon id="Path" points="28.9831306 16 24 4 26.0078462 4 30 13.8372642 33.9662613 4 36 4 31.0168694 16"></polygon>
                <path d="M37,9.98875941 C37,6.67415524 39.3395274,4 42.5699859,4 C45.9870733,4 48,6.69887432 48,10.1303323 L48,10.5797702 L38.8485155,10.5797702 C38.9884872,12.7325775 40.4859624,14.5325761 42.9210261,14.5325761 C44.2074328,14.5325761 45.5182791,14.0112282 46.4069885,13.0898806 L47.2490406,14.2494303 C46.1248233,15.386508 44.6051303,15.9999907 42.7566148,15.9999907 C39.4106241,16.0022379 37,13.5640375 37,9.98875941 Z M42.5455464,5.4674146 C40.1349222,5.4674146 38.9418299,7.52583997 38.8485155,9.2786476 L46.2670168,9.2786476 C46.244799,7.57527813 45.1205817,5.4674146 42.5455464,5.4674146 Z" id="Shape"></path>
                <polygon id="Path" points="51 15.9977227 51 0 52 0 52 16 51 16"></polygon>
                <path d="M56,9.98875978 C56,6.62696442 57.9767932,4 61,4 C64.0443038,4 66,6.62696442 66,9.98875978 C66,13.3505551 64.0443038,15.9999915 61,15.9999915 C57.978903,16.0022387 56,13.3505551 56,9.98875978 Z M65.2658228,9.98875978 C65.2658228,7.22022243 63.7552743,4.64044898 61,4.64044898 C58.2658228,4.64044898 56.7341772,7.22022243 56.7341772,9.98875978 C56.7341772,12.7820162 58.2679325,15.3617897 61,15.3617897 C63.7552743,15.3617897 65.2658228,12.7820162 65.2658228,9.98875978 Z" id="Shape"></path>
                <path d="M70.7142857,13.7100517 L70.7142857,20 L70,20 L70,4.28407661 L70.7142857,4.28407661 L70.7142857,6.19208724 C71.5009042,5.01328114 73.0470163,4 74.8575949,4 C77.9520796,4 80,6.35537537 80,9.96113519 C80,13.5422899 77.9520796,15.9446386 74.8575949,15.9446386 C73.1442134,15.9491123 71.6433092,15.052146 70.7142857,13.7100517 Z M79.215642,9.96337201 C79.215642,6.97050189 77.6672694,4.63973158 74.8575949,4.63973158 C73.0718807,4.63973158 71.4285714,5.69998602 70.7142857,6.90116035 L70.7142857,13.0032154 C71.4285714,14.2043898 73.0718807,15.3116175 74.8575949,15.3116175 C77.6672694,15.3116175 79.215642,12.9562421 79.215642,9.96337201 Z" id="Shape"></path>
                <path d="M83,9.98875959 C83,6.67415531 85.1515789,4 88.0336842,4 C91.3157895,4 93,6.81572824 93,9.98875959 L93,10.2247145 L83.7536842,10.2247145 C83.8210526,13.0179708 85.5284211,15.3617893 88.2547368,15.3617893 C89.7621053,15.3617893 90.9831579,14.7707785 91.9810526,13.6337007 L92.3810526,14.0831386 C91.2947368,15.2898792 90.0526316,15.9999911 88.2568421,15.9999911 C85.1515789,16.0022383 83,13.4696559 83,9.98875959 Z M88.0105263,4.64044896 C85.2610526,4.64044896 83.8189474,7.33932336 83.7536842,9.58651269 L92.2905263,9.58651269 C92.2905263,7.38651433 90.9389474,4.64044896 88.0105263,4.64044896 Z" id="Shape"></path>
            </g>
        </g>
    </g>
</svg>