<svg xmlns="http://www.w3.org/2000/svg" width="111" height="111" viewBox="0 0 111 111">
  <defs>
    <linearGradient id="files-a" x1="50%" x2="50%" y1="-32.282%" y2="128.813%">
      <stop offset="0%" stop-color="#253659"/>
      <stop offset="100%" stop-color="#102131"/>
    </linearGradient>
    <linearGradient id="files-b" x1="217.295%" x2="-101.174%" y1="161.095%" y2="-72.138%">
      <stop offset="0%" stop-color="#F7618B"/>
      <stop offset="100%" stop-color="#2A7AFF"/>
    </linearGradient>
  </defs>
  <g fill="none" fill-rule="evenodd">
    <rect width="110.011" height="110.011" x=".416" y=".416" fill="url(#files-a)" rx="15"/>
    <path fill="url(#files-b)" fill-rule="nonzero" d="M86.6850785,50.7774869 L86.6850785,50.7774869 L86.6078534,48.5379581 C86.6078534,48.460733 86.6078534,48.460733 86.6078534,48.3835079 C86.6078534,48.3062827 86.6078534,48.3062827 86.6078534,48.2290576 L86.6078534,43.3638743 C86.6078534,41.6649215 85.217801,40.3520942 83.5960733,40.3520942 L82.9010471,40.3520942 L82.9010471,37.0314136 C82.9010471,35.3324607 81.5109948,34.0196335 79.889267,34.0196335 L79.1942408,34.0196335 L79.1942408,32.0117801 C79.1942408,30.3128272 77.8041885,29 76.1824607,29 L65.6798429,29 C63.9808901,29 62.6680628,30.3900524 62.6680628,32.0117801 L62.6680628,34.1740838 L27.2217277,34.1740838 C25.5227749,34.1740838 24.2099476,35.5641361 24.2099476,37.1858639 L24.2099476,50.7002618 L23.5149215,50.7002618 C21.7387435,50.7002618 20.271466,52.1675393 20.271466,53.9437173 L20.271466,84.7565445 C20.271466,86.5327225 21.7387435,88 23.5149215,88 L86.6850785,88 C88.4612565,88 89.928534,86.5327225 89.928534,84.7565445 L89.928534,53.9437173 C89.928534,52.1675393 88.4612565,50.7774869 86.6850785,50.7774869 Z M84.3683246,43.3638743 L84.3683246,48.1518325 L84.3683246,48.3062827 C84.3683246,48.3835079 84.3683246,48.460733 84.3683246,48.5379581 L84.3683246,50.7774869 L34.0175393,50.7774869 L34.0175393,48.5379581 C34.0175393,48.1518325 34.3264398,47.8429319 34.7125654,47.8429319 L71.3172775,47.8429319 C71.9350785,47.8429319 72.4756545,47.302356 72.4756545,46.684555 L72.4756545,43.3638743 C72.4756545,42.9777487 72.784555,42.6688482 73.1706806,42.6688482 L83.5188482,42.6688482 C83.982199,42.591623 84.3683246,42.9005236 84.3683246,43.3638743 Z M80.5842932,37.0314136 L80.5842932,40.2748691 L73.2479058,40.2748691 C71.5489529,40.2748691 70.2361257,41.6649215 70.2361257,43.2866492 L70.2361257,45.4489529 L34.7897906,45.4489529 C33.0908377,45.4489529 31.7780105,46.8390052 31.7780105,48.460733 L31.7780105,50.7002618 L30.310733,50.7002618 L30.310733,42.2054974 C30.310733,41.8193717 30.6196335,41.5104712 31.0057592,41.5104712 L67.6104712,41.5104712 C68.2282723,41.5104712 68.7688482,40.9698953 68.7688482,40.3520942 L68.7688482,37.0314136 C68.7688482,36.645288 69.0777487,36.3363874 69.4638743,36.3363874 L79.8120419,36.3363874 C80.2753927,36.3363874 80.5842932,36.645288 80.5842932,37.0314136 Z M26.5267016,37.1858639 C26.5267016,36.7997382 26.8356021,36.4908377 27.2217277,36.4908377 L63.8264398,36.4908377 C64.4442408,36.4908377 64.9848168,35.9502618 64.9848168,35.3324607 L64.9848168,32.0117801 C64.9848168,31.6256545 65.2937173,31.3167539 65.6798429,31.3167539 L76.1052356,31.3167539 C76.4913613,31.3167539 76.8002618,31.6256545 76.8002618,32.0117801 L76.8002618,34.0196335 L69.4638743,34.0196335 C67.7649215,34.0196335 66.4520942,35.4096859 66.4520942,37.0314136 L66.4520942,39.1937173 L31.0057592,39.1937173 C29.3068063,39.1937173 27.9939791,40.5837696 27.9939791,42.2054974 L27.9939791,50.7002618 L26.5267016,50.7002618 L26.5267016,37.1858639 Z M87.6117801,84.8337696 C87.6117801,85.3743455 87.2256545,85.7604712 86.6850785,85.7604712 L23.5149215,85.7604712 C22.9743455,85.7604712 22.5882199,85.3743455 22.5882199,84.8337696 L22.5882199,53.9437173 C22.5882199,53.4031414 22.9743455,53.0170157 23.5149215,53.0170157 L86.6850785,53.0170157 C87.2256545,53.0170157 87.6117801,53.4031414 87.6117801,53.9437173 L87.6117801,84.8337696 Z"/>
  </g>
</svg>
