<svg xmlns="http://www.w3.org/2000/svg" xmlns:xlink="http://www.w3.org/1999/xlink" width="247" height="217"><style><![CDATA[.B{opacity:.18}.C{opacity:.42}.D{fill:#bdd3de}.E{fill:#fff}.F{fill:#eeedee}.G{fill:#ebdede}.H{fill:#19233d}.I{opacity:.25}.J{fill:#e4c9c2}.K{fill:#fc860a}.L{fill:#302c34}.M{fill:#cd907f}.N{fill:#336859}.O{fill:#ff8700}]]></style><defs><linearGradient x1="-0.523595506%" y1="50.1194853%" x2="99.4674157%" y2="50.1194853%" id="A"><stop stop-color="#fff" offset="0%"/><stop stop-color="#19233d" offset="100%"/></linearGradient><linearGradient x1="-0.0844788987%" y1="50.0007299%" x2="99.8335786%" y2="50.0007299%" id="B"><stop stop-color="#fff" offset="0%"/><stop stop-color="#19233d" offset="100%"/></linearGradient><linearGradient x1="0.00322471402%" y1="50.0057951%" x2="99.9965896%" y2="50.0057951%" id="C"><stop stop-color="#5a142a" offset="16.21%"/><stop stop-color="#41142a" offset="99.78%"/></linearGradient><linearGradient x1="79.141283%" y1="-35.818006%" x2="25.2240451%" y2="95.2161934%" id="D"><stop stop-color="#aac0dc" offset="0%"/><stop stop-color="#a5bad6" offset="27.71%"/><stop stop-color="#a5bad6" offset="57.92%"/><stop stop-color="#153e5c" offset="100%"/></linearGradient><linearGradient x1="47.5349843%" y1="-2.92400286%" x2="52.1009336%" y2="100.609429%" id="E"><stop stop-color="#153e5c" offset="22.71%"/><stop stop-color="#1c4461" offset="40.85%"/><stop stop-color="#bdd3de" offset="100%"/></linearGradient><linearGradient x1="42.8513172%" y1="26.2815339%" x2="114.992328%" y2="115.881497%" id="F"><stop stop-color="#19233d" offset="47.13%"/><stop stop-color="#271c41" offset="100%"/></linearGradient><linearGradient x1="0.0362748399%" y1="49.9751637%" x2="100.007506%" y2="49.9751637%" id="G"><stop stop-color="#19233d" offset="47.13%"/><stop stop-color="#271c41" offset="100%"/></linearGradient><linearGradient x1="0.0013099564%" y1="49.9475928%" x2="99.9822186%" y2="49.9475928%" id="H"><stop stop-color="#153e5c" offset="22.71%"/><stop stop-color="#1c4461" offset="40.85%"/><stop stop-color="#bdd3de" offset="100%"/></linearGradient><linearGradient x1="-0.586548984%" y1="49.9271523%" x2="99.807038%" y2="49.9271523%" id="I"><stop stop-color="#fc860a" offset="0%"/><stop stop-color="#e4c9c2" offset="100%"/></linearGradient><linearGradient x1="0.0994828456%" y1="49.9434864%" x2="100.09385%" y2="49.9434864%" id="J"><stop stop-color="#5a142a" offset="16.21%"/><stop stop-color="#9f6c00" offset="87.67%"/></linearGradient><linearGradient x1="0.0533996925%" y1="49.9569449%" x2="99.9779295%" y2="49.9569449%" id="K"><stop stop-color="#5a142a" offset="16.21%"/><stop stop-color="#9f6c00" offset="87.67%"/></linearGradient><linearGradient x1="0.0856243442%" y1="50.0945266%" x2="99.9976915%" y2="50.0945266%" id="L"><stop stop-color="#5a142a" offset="16.21%"/><stop stop-color="#fff" offset="87.36%"/></linearGradient><linearGradient x1="0.0637583893%" y1="49.9882416%" x2="100.032383%" y2="49.9882416%" id="M"><stop stop-color="#5a142a" offset="16.21%"/><stop stop-color="#9f6c00" offset="87.67%"/></linearGradient><linearGradient x1="1.24532772%" y1="49.6028884%" x2="98.9886192%" y2="50.3416866%" id="N"><stop stop-color="#19233d" offset="47.13%"/><stop stop-color="#271c41" offset="100%"/></linearGradient><linearGradient x1="0.351760563%" y1="50.3154676%" x2="99.9133803%" y2="50.3154676%" id="O"><stop stop-color="#fc860a" offset="0%"/><stop stop-color="#e4c9c2" offset="100%"/></linearGradient><linearGradient x1="0.0842696629%" y1="49.9488928%" x2="100.038764%" y2="49.9488928%" id="P"><stop stop-color="#153e5c" offset="0%"/><stop stop-color="#aac0dc" offset="99.56%"/></linearGradient><linearGradient x1="-0.0195963223%" y1="49.9152632%" x2="99.9466361%" y2="49.9152632%" id="Q"><stop stop-color="#153e5c" offset="0%"/><stop stop-color="#aac0dc" offset="99.56%"/></linearGradient><linearGradient x1="0.446045862%" y1="49.9892742%" x2="101.065139%" y2="49.9892742%" id="R"><stop stop-color="#153e5c" offset="0%"/><stop stop-color="#aac0dc" offset="99.56%"/></linearGradient><linearGradient x1="-7.73168128%" y1="45.9959579%" x2="145.004302%" y2="59.5319858%" id="S"><stop stop-color="#1a233d" offset="17.48%"/><stop stop-color="#19233d" offset="18.4%"/><stop stop-color="#271c41" offset="100%"/></linearGradient><linearGradient x1="0.049572766%" y1="50.1038265%" x2="100.029933%" y2="50.1038265%" id="T"><stop stop-color="#153e5c" offset="22.71%"/><stop stop-color="#1c4461" offset="40.85%"/><stop stop-color="#bdd3de" offset="100%"/></linearGradient><linearGradient x1="0.273578595%" y1="49.8770241%" x2="100.111371%" y2="49.8770241%" id="U"><stop stop-color="#153e5c" offset="22.71%"/><stop stop-color="#1c4461" offset="40.85%"/><stop stop-color="#bdd3de" offset="100%"/></linearGradient><linearGradient x1="-0.16866355%" y1="49.9797195%" x2="100.049431%" y2="49.9797195%" id="V"><stop stop-color="#271c41" offset="0%"/><stop stop-color="#19233d" offset="81.6%"/><stop stop-color="#1a233d" offset="82.52%"/></linearGradient><linearGradient x1="38.5551769%" y1="-0.171499033%" x2="56.784476%" y2="127.387105%" id="W"><stop stop-color="#5a142a" offset="44.32%"/><stop stop-color="#783700" offset="67.13%"/><stop stop-color="#9f6c00" offset="100%"/></linearGradient><linearGradient x1="0.855128205%" y1="49.5373134%" x2="100.235256%" y2="49.5373134%" id="X"><stop stop-color="#691b26" offset="15.45%"/><stop stop-color="#cd907f" offset="87.31%"/></linearGradient><path id="Y" d="M47.95 62.845v108.51c0 .14 0 .28-.023.445l-.07.352a2.89 2.89 0 0 1-1.356 1.735c-.07.047-.14.07-.2.117-.327.164-.678.234-1.052.258h-.164l.047.21.678 3.188.63 3.07.07.328.374 1.758.047.258 1.075 5.134h-2.9l-3.063-6.493-2.595-5.51-.912-1.922H12.67l-.374.774-.678 1.43-1.473 3.14-.047.094-.35.75-.094.21-1.543 3.258-.023.07v.023L7.2 185.9l-.047.117-.678 1.43-.047.094-.35.68h-2.9l.327-1.594.047-.234.63-3.047.07-.28 1.824-8.767c-.28 0-.538-.047-.795-.117-.047 0-.07-.023-.117-.023-1.146-.375-1.987-1.477-1.987-2.766V62.845a3.1 3.1 0 0 1 .14-.914c.023-.094.07-.164.094-.258a2.91 2.91 0 0 1 2.314-1.711c.094 0 .187-.023.28-.023h39.136c1.566.07 2.805 1.36 2.805 2.907z"/><path id="Z" d="M38.575 88h-26.23c-.07 0-.14-.023-.14-.07s.047-.07.14-.07h26.23c.07 0 .14.023.14.07s-.07.07-.14.07z"/><path id="a" d="M31.725 86.522c.023.094.07.188.094.258H11.41c-.2-.258-.7-.914-.678-1.875.023-.867.468-1.477.678-1.735h20.41c-.023.047-.023.094-.047.14-.14.422-.304 1.03-.28 1.735 0 .586.094 1.078.234 1.477z"/><path id="b" d="M30.72 84H11.994c-.047 0-.094-.023-.094-.07s.047-.07.094-.07H30.72c.047 0 .094.023.094.07s-.047.07-.094.07z"/><path id="c" d="M224.714 138.164s-45.237-44.82-42.736-56.893 14.448-10.174 17.394-2.344 1.613 20.84 6.5 19.222 11.385-2.32 11.69 5.673c.327 7.994-2.595 19.058 1.31 19.714s5.845 14.628 5.845 14.628z"/><path id="d" d="M229.95 136.148c16.108-35.725 18.492-46.532 16.248-47.868-.63-.375-2.642-.563-3.81.422-1.707 1.453-.35 4.36-1.8 5.485-1.847 1.43-5.564-2.1-6.873-.985-2.502 2.133 3.343 14.16 1.17 15.47-1.473.89-4.816-4.337-7.06-3.422-2.992 1.22-1.333 12.307-.397 18.52.795 5.25 1.777 9.517 2.525 12.377z"/><path id="e" d="M227.473 135.046c-1.613-9.775-4.49-17.136-6.943-22.2-5.774-11.98-12.437-17.886-10.263-25.176 1.543-5.087 5.89-5.814 5.658-10-.304-5.65-8.3-6.212-9.983-12.73-1.613-6.235 3.694-13.596 9.188-17.042 1.8-1.125 6.616-4.15 11.572-2.485 5.33 1.782 8.253 7.947 8.744 12.823.96 9.424-7.224 13.315-4.63 18.894 1.824 3.89 7.458 5.485 8.72 12.2 2.642 6.657-14.495 16.175-11.596 24.12.468 1.313.444 1.688 1.917 2.86 3.74 2.977-2.385 18.753-2.385 18.753z"/><path id="f" d="M83.733 131.77c-.07 0-.14-.047-.163-.14l-.7-2.63-2.66.423c-.093.023-.187-.047-.2-.14s.047-.188.14-.21l2.824-.446c.093-.023.163.047.187.14l.747 2.796c.023.094-.023.188-.117.21h-.047z"/><path id="g" d="M85.04 115.748c-.07 0-.117-.023-.163-.094l-1.354-2.373-2.474 1.104c-.093.047-.187 0-.233-.094s0-.188.093-.235l2.614-1.15c.093-.047.187 0 .233.07l1.447 2.5c.047.094.023.188-.07.235-.023.047-.047.047-.093.047z"/><path id="h" d="M73.512 118.074c-.07 0-.117-.023-.163-.094l-1.354-2.373-2.474 1.104c-.093.047-.187 0-.233-.094s0-.188.093-.235l2.614-1.15c.093-.047.187 0 .233.07l1.447 2.5c.047.094.023.188-.07.235-.023.023-.047.047-.093.047z"/><path id="i" d="M68.237 125.685c-.023 0-.047 0-.07-.023-.093-.047-.117-.14-.093-.235l1.867-3.947c.047-.094.14-.117.233-.094.093.047.117.14.093.235l-1.867 3.947c-.047.07-.093.117-.163.117z"/><path id="j" d="M65.764 104.213c-.023 0-.07 0-.093-.023-.093-.047-.117-.164-.07-.235l1.47-2.467c.047-.07.14-.117.233-.07l2.614 1.198c.093.047.14.14.093.235s-.14.14-.233.094l-2.474-1.128-1.377 2.326c-.047.047-.117.07-.163.07z"/><path id="k" d="M72.415 108.677c-.093 0-.163-.07-.163-.14l-.747-4.3c-.023-.094.047-.188.14-.21s.187.047.2.14l.747 4.3c.023.094-.047.188-.14.21h-.047z"/><path id="l" d="M76.265 105.41c-.023 0-.07 0-.093-.023l-3.687-2.302c-.093-.047-.117-.164-.047-.235.047-.094.163-.117.233-.047l3.687 2.302c.093.047.117.164.047.235-.023.023-.07.07-.14.07z"/></defs><g fill="none" fill-rule="nonzero"><g class="F"><path d="M245.52 170.677v-.117c0-1.547-1.17-2.813-2.595-2.813H2.69c-1.426 0-2.595 1.266-2.595 2.813v.117H245.52z"/><use xlink:href="#Y"/></g><g class="D"><path d="M6.64 73.066c-.584 4.9-2.244 8.86-3.46 11.205v-.516c1.17-2.368 2.7-6.142 3.226-10.736.608-5.04-1.473-8.93-3.086-11.088.023-.094.07-.164.094-.258 1.66 2.18 3.857 6.2 3.226 11.393zm21.578 101.197h-.234l-5.868-27.216-.514-2.508-4.84-24.3-.468-2.508c-1.66-8.908-3.133-17.44-4.068-24.3l-.327-2.508c-.818-6.587-1.075-11.3-.397-12.846 2.805-6.4-3.6-15.4-5.728-18.097.094 0 .187-.023.28-.023 2.22 2.883 8.463 11.815 5.658 18.214-.655 1.5-.42 6.2.42 12.752l.327 2.508c.96 6.868 2.408 15.4 4.1 24.3l.468 2.508 5.354 26.817 5.845 27.216zm19.708-2.46l-.07.352c-5.073-9.072-9.515-17.464-13.35-25.106l-1.24-2.508c-4.512-9.166-8.1-17.276-10.754-24.3a66.07 66.07 0 0 1-.912-2.508c-3.296-9.2-4.863-16.4-4.676-21.566l.023-.352.07-2.368-.023-2.508c-.07-3.235-.397-7.642-1.426-12.705a73.66 73.66 0 0 0-6.242-18.261h.257c2.852 5.837 4.956 11.955 6.195 18.214 1.03 5.087 1.333 9.517 1.426 12.752l.023 2.508-.07 2.4-.023.352c-.187 5.157 1.38 12.377 4.676 21.566.28.82.608 1.64.912 2.508 2.642 7.032 6.242 15.143 10.754 24.3l1.24 2.508a731.49 731.49 0 0 0 13.209 24.731zM47.95 71.8v.258c-3.273-1.242-7.434-3-7.2-4.337.07-.4.468-1.008 1.403-1.477 1.566-.797 1.964-1.805 2.104-2.204l.023-.047c.35-.914-.327-2.297-2.034-4.08h.327c1.66 1.782 2.314 3.165 1.94 4.15l-.023.047c-.164.4-.584 1.477-2.22 2.32-.842.422-1.216.96-1.286 1.313-.094.6 1.052 1.782 6.967 4.055zm0 2.883v.258a9.72 9.72 0 0 1-3.39.656c-1.052 0-2.198-.2-3.18-.9-1.496-1.008-2.478-2.883-2.712-5.204-.234-2.274.304-4.477 1.38-5.58l.187-.188c.374-.352.888-.867 1.005-1.64.117-.656-.094-1.383-.584-2.157h.28c.468.774.655 1.5.538 2.18-.14.844-.7 1.406-1.075 1.758l-.187.188c-1.005 1.055-1.543 3.212-1.3 5.392.234 2.227 1.192 4.055 2.618 5.017 2.36 1.617 5.54.563 6.43.2zm0-6.423v.28c-1.03.6-1.8.914-2.338.914-.234 0-.42-.047-.56-.188-.42-.352-.257-1.055 0-2.086.164-.68.374-1.547.468-2.508.14-1.547-.07-3.14-.608-4.735h.234c.538 1.594.725 3.188.584 4.735-.094.985-.304 1.852-.468 2.555-.234.914-.397 1.594-.07 1.852.28.234.982.258 2.76-.82zm0 8.86v.234h-.374c-1.566 0-6.008-.352-8.93-4.055-3.203-4.055-2.198-11.72-1.94-13.385h.234c-.234 1.547-1.262 9.213 1.894 13.22 3.18 4.032 8.112 4.032 9.118 3.985zm0 9.4v.28c-1.636 1.15-3.18 1.7-4.606 1.7-.304 0-.584-.023-.888-.07-5.9-1.03-9.936-12.494-10.053-28.482h.234c.14 15.893 4.1 27.24 9.866 28.27 1.636.258 3.483-.305 5.447-1.7zm0 10.972v.258c-2.43-1.055-4.56-2.555-6.43-4.337-.818-.774-1.6-1.617-2.3-2.508-3.67-4.5-6.032-10.056-7.505-14.768C29.06 67.675 28.57 60.01 28.57 59.94h.234c.023.28.538 7.83 3.133 16.15 1.496 4.735 3.88 10.338 7.575 14.84a26.45 26.45 0 0 0 2.338 2.508c1.8 1.64 3.8 3.047 6.102 4.055zm0 14.604v.258c-2.198 1.172-4.255 1.758-6.172 1.758a8.52 8.52 0 0 1-4.512-1.266c-4.302-2.625-7.458-9.142-9.468-19.457a67.57 67.57 0 0 1-.444-2.508c-.397-2.4-.748-4.993-1.03-7.76-1.146-11.04-.935-21.355-.888-23.23h.234c-.047 1.852-.257 12.166.888 23.207.304 2.836.655 5.438 1.052 7.783.14.867.304 1.688.468 2.508 2.455 12.47 6.3 17.37 9.35 19.246 2.946 1.852 6.5 1.664 10.52-.54zM30.976 90.928l.7 2.508 2.198 7.478c2.7 8.978 12.1 8.18 14.097 7.9v.234c-.468.07-1.262.14-2.268.14-3.647 0-9.912-1.078-12.063-8.228l-2.22-7.548a84.54 84.54 0 0 1-.7-2.508c-1.3-4.852-1.894-7.97-1.216-8.392.234-.14.56 0 1.005.4.982.938 2.15 3.657 3.507 6.775.164.4.35.797.514 1.196l1.1 2.508c2.244 4.923 4.863 9.517 7.692 8.93 3.016-.633 4.185-1.406 4.63-1.922v.352c-.608.586-1.894 1.266-4.582 1.805-.187.047-.35.047-.538.047-2.805 0-5.307-4.477-7.458-9.213-.374-.82-.748-1.664-1.1-2.508l-.468-1.102c-1.333-3.118-2.502-5.814-3.437-6.704-.327-.328-.584-.445-.725-.375-.608.4.164 3.9 1.333 8.228zm7.48 12.354c-.094.094-.164.4.187 1.313 1.403 3.82 9.2 1.617 9.28 1.594l.023.117v.117c-.257.07-2.15.586-4.16.656h-.5c-2.618 0-4.302-.82-4.886-2.414-.327-.867-.35-1.36-.117-1.57.327-.305 1.075.023 2.104.492 1.333.6 3.156 1.43 4.512.914l3.016-1.15.047.117v.117l-2.97 1.125c-1.45.563-3.32-.305-4.7-.938-.842-.352-1.636-.703-1.847-.492zM9.304 98.43c-.257 5.04-1.122 9.353-1.17 9.517a91.34 91.34 0 0 1-2.595 9.775l-.865 2.508-1.496 3.9v-.6a79.18 79.18 0 0 0 1.262-3.282l.865-2.508a85.83 85.83 0 0 0 2.618-9.822c.023-.117 1.543-7.712 1.17-14.487a29.39 29.39 0 0 0-.234-2.508c-.35-2.508-1.052-4.735-2.3-6.212-.35-.422-.655-.47-.77-.47-.35 0-.795.305-1.3 1.36-.397.774-.818 1.97-1.286 3.75v-.914C4.044 85.443 4.886 84 5.798 84c.14 0 .514.047.935.563 1.192 1.406 1.987 3.516 2.36 6.353.117.774.187 1.617.234 2.508.094 1.524.07 3.188-.023 5.017zM6.78 93.413c-.304 6.048-1.964 16.714-3.273 24.3l-.327 1.9v-1.383a4.86 4.86 0 0 1 .094-.516c1.286-7.572 2.97-18.284 3.273-24.3.047-.96.07-1.805.023-2.508 0-.28-.023-.54-.047-.774-.14-1.196-.374-1.852-.678-1.922-.257-.047-.842.28-1.94 2.672-.2.47-.468 1.03-.725 1.688v-.633c.164-.4.327-.75.468-1.055 1.24-2.72 1.87-2.977 2.244-2.907.56.117.748 1.196.865 2.1a7.71 7.71 0 0 1 .047.797c.047.727.023 1.57-.023 2.532zm20.058 10.994c-.468 1.946-1.3 3.563-2.314 4.407-.5.422-1.005.633-1.496.633a1.73 1.73 0 0 1-.748-.164c-1.1-.516-2.922-2.696-2.922-11.486 0-1.477-.047-2.93-.117-4.36l-.164-2.508c-1.216-15.73-6.172-29.02-6.92-31h.234c.865 2.25 5.704 15.425 6.92 30.966.07.82.117 1.664.164 2.508a89.66 89.66 0 0 1 .117 4.36c0 6.33 1.03 10.455 2.805 11.275.77.375 1.52-.023 1.987-.422 2.455-2.086 3.1-7.267 2.15-10.83-.327-1.22-.63-2.72-.912-4.407a64.5 64.5 0 0 1-.374-2.508c-1.66-12.143-2.3-30.732-2.314-30.966h.234c.023.422.655 18.94 2.314 30.966l.374 2.508c.28 1.664.56 3.14.888 4.337a13.75 13.75 0 0 1 .094 6.681zM23.8 101.97c-.047.516-.117.797-.304.82h-.047c-.257 0-.725-.492-2.408-9.377l-.468-2.508c-1.17-6.33-2.805-16.058-5.12-30.966h.234l5.12 31 .468 2.508c1.262 6.68 1.894 8.884 2.174 9.142.023-.047.07-.188.117-.586.164-1.57.07-4.5-.2-8.533-.047-.797-.117-1.617-.187-2.508-.63-7.642-1.87-18.402-3.6-30.966h.234c1.73 12.565 2.97 23.324 3.6 30.966l.187 2.508c.28 4 .374 6.94.2 8.5zm.747 10.923c-.514 1.383-.584 3.235.2 4.83.234.445.514.9.888 1.266a16.12 16.12 0 0 1 1.03 1.22c1.333 1.805 1.987 3.798 2.876 6.353 1.38 4.032 3.226 9.47 8.8 17.956l1.683 2.508c2.127 3.07 4.722 6.54 7.925 10.432v.375c-3.32-4.032-6.008-7.62-8.206-10.783l-1.683-2.508c-5.517-8.462-7.364-13.877-8.744-17.886-.888-2.602-1.566-4.595-2.946-6.423a17.73 17.73 0 0 0-.888-1.055c-.42-.445-.748-.914-.982-1.43-.77-1.64-.7-3.516-.164-4.923.538-1.43 1.496-2.32 2.548-2.438 1.005-.094 2.104 1.03 2.97 1.946l.374.375c3.25 3.282 9.2 4.337 17.72 3.094v.234c-8.58 1.22-14.588.164-17.885-3.165-.117-.117-.257-.258-.374-.4-.842-.867-1.894-1.946-2.782-1.875-.96.094-1.847.96-2.36 2.297zm4.325 4.83c-.023.445.14 1.196.725 2.508 1.075 2.414 3.53 6.657 8.486 13.995 2.572 3.82 5.237 7.572 7.2 10.314l1.8 2.508c.374.492.655.914.888 1.196v.4l-1.17-1.594-1.8-2.508c-4.7-6.54-13.115-18.6-15.617-24.3-.468-1.102-.748-1.946-.725-2.508 0-.14.023-.28.07-.375.07-.14.234-.328.584-.328h.023c.748 0 1.683.28 2.782.703 1.03.4 2.174.938 3.4 1.524l2.15.985c3.296 1.477 6.616 2.65 8.65 1.547.584-.328 1.052-.844 1.356-1.547.117-.234.2-.516.28-.797v.727c0 .023-.023.047-.023.07-.35.797-.842 1.383-1.496 1.735-2.198 1.22-5.845-.164-9.328-1.735l-1.66-.774c-1.426-.656-2.805-1.313-3.974-1.735-.818-.305-1.566-.47-2.127-.47h-.023c-.187 0-.304.07-.374.2-.023.07-.07.14-.07.258zm6.148 6.448c-1.613 1.617 5.587 11.72 12.297 20.37l.63.797v.375l-.912-1.172c-4.98-6.423-8.5-11.416-10.497-14.84-1.824-3.14-2.385-5.017-1.683-5.72s2.618-.047 4.816.703c2.97 1.03 6.336 2.204 7.925.586a2.72 2.72 0 0 0 .374-.492v.422c-.07.07-.117.164-.2.234-1.683 1.7-5.12.516-8.16-.516-2.034-.703-3.974-1.36-4.582-.75zm-20.08 9.727c-.023 3.282-.164 6.892-.514 10.643-.07.82-.164 1.664-.257 2.508-1.1 9.517-3.6 19.597-8.86 27.1-.047 0-.07-.023-.117-.023l-.094-.07c5.073-7.243 7.692-17.02 8.86-27.005l.257-2.508c.795-8.556.584-17.112.023-24.3l-.2-2.508c-.584-6.118-1.38-10.994-1.964-13.596-.56-2.508-.935-2.672-1.03-2.65-.514.047-1.262 2.8-1.964 15.682-.023.188-.023.4-.047.586-.047.82-.14 1.664-.257 2.508-.42 2.954-1.333 5.86-3.156 7.08-1.17.774-2.198.516-2.408.445v-.117l.047-.117s1.075.375 2.244-.422c1.1-.727 2.408-2.532 3.04-6.868.117-.75.187-1.594.257-2.508.023-.188.023-.4.047-.6.77-13.9 1.543-15.847 2.198-15.893.304-.023.7.28 1.286 2.836.444 2.04 1.333 7 1.94 13.643l.2 2.508c.304 4.126.514 8.8.468 13.666zm-3.087 4.876l-1.005 5.767-.56 2.508c-1.426 5.954-3.624 11.86-7.014 15.073l-.07-.094v-.164c2.127-2.063 4.816-6.26 6.873-14.84l.56-2.508a109.29 109.29 0 0 0 1.005-5.814c1.052-7.36 1.286-14.3 1.146-18.52-.047-.985-.094-1.828-.164-2.508l-.07-.586c-.28-1.9-.56-1.9-.584-1.9-.234.023-.514.985-.795 2.485-.117.727-.257 1.57-.35 2.508a66.12 66.12 0 0 0-.468 7.62c0 1.64-.468 2.766-1.403 3.33-1.964 1.172-5.237-.492-5.728-.75v-.14l.047-.094c.047.023 3.6 1.946 5.54.797.865-.516 1.3-1.57 1.3-3.118 0-2.063.187-5.063.468-7.62.094-.9.234-1.758.35-2.508.28-1.594.63-2.696 1.005-2.72.234-.023.538.2.818 2.1l.07.6c.07.656.117 1.5.164 2.508.14 4.243-.094 11.205-1.146 18.566zm-.865-3.75c-.7 2.368-1.964 5.954-3.25 9.517l-.912 2.508-3.507 9.283-.117-.047v-.328l3.367-8.908.912-2.508c1.3-3.587 2.572-7.197 3.273-9.588.888-3 .7-3.47.584-3.54-.304-.164-1.473 1.172-2.408 2.274l-.795.914c-.7.797-1.473 1.172-2.314 1.172-1.3 0-2.338-.985-2.642-1.3v-.164l.094-.07s1.146 1.3 2.548 1.313c.77 0 1.496-.375 2.127-1.102.28-.305.538-.6.795-.914 1.426-1.64 2.244-2.555 2.7-2.32.304.14.444.727-.444 3.798zM4.98 144.54l-.608 2.508-1.1 3.68-.117-.047v-.375l.96-3.258.608-2.508c.468-2.133.748-4.3.42-5.462-.77-2.743-1.94-2.508-1.964-2.508l-.047-.234h.023c.2-.023 1.45-.117 2.22 2.672.35 1.22.07 3.4-.397 5.532zm2.197 41.36l-.047.117-.07.094c-.117-.094-1.636-1.336-2.852-2.743l.07-.28c1.17 1.383 2.712 2.65 2.9 2.813zm2.993-6.4l-.023.117-.047.094c-.234-.07-2.876-.82-5.026-.6l.047-.234c2.244-.2 4.9.586 5.05.633zm-4.9 1.3c-.14.117-.187.28-.164.445.117 1.055 2.852 2.625 3.016 2.72l-.023.07v.023l-.07.117c-.117-.07-2.992-1.7-3.133-2.907-.023-.258.047-.47.234-.633.96-.9 3.6-.4 4.652-.14l-.094.2c-1.075-.258-3.554-.727-4.42.094zm21.32-6.517h-.234l-5.494-27.216-.56-2.508-.655-2.813c-1.73-6.986-2.338-7.43-2.455-7.43-.327.047-.304 2.602-.28 5.087a188.82 188.82 0 0 1 0 5.157l-.047 1.9-.023.6c-.327 9.494-1.847 18.894-4.535 28.013l-.678 1.43c2.946-9.564 4.63-19.457 4.98-29.443 0-.2.023-.422.023-.6l.047-1.875v-5.157c-.023-3.9-.023-5.25.468-5.32.304-.047.935-.14 3.4 10.478a71.61 71.61 0 0 1 .561 2.508c1.333 5.907 3.1 14.58 5.494 27.192zM6.5 187.32l-.047.094v.023l-.047.094-2.9-.914.047-.234zm18.702-13.057h-.257a31.94 31.94 0 0 1-1.894-4.43c-.935-2.836-1.426-5.72-1.847-8.275-.584-3.493-1.03-6.235-2.408-7.173-.234-.164-.374-.094-.468 0-1.3 1.078-1.122 9.517.655 13.596.374.9.5 1.7.304 2.485-.304 1.313-2.338 2.368-3.67 3.047-.514.258-1.122.563-1.146.703v.047h-.234v-.023c-.023-.234.35-.445 1.286-.914 1.3-.68 3.273-1.688 3.554-2.883.164-.727.07-1.5-.304-2.344-1.847-4.243-1.964-12.752-.584-13.877.164-.14.42-.234.748 0 1.45 1.008 1.917 3.798 2.502 7.337.42 2.532.888 5.415 1.847 8.228a29.99 29.99 0 0 0 1.917 4.477zm1.145-39.757c.5-3.985-2.618-8.158-4.84-9.986-.888-.727-1.403-.914-1.6-.867-.397.14-.818 1.688.935 10.7.56 2.836 1.286 6.235 2.22 10.197l.584 2.508c1.753 7.384 4.044 16.48 6.873 27.216h-.234l-6.873-27.216-.584-2.508-2.198-10.15c-1.847-9.447-1.333-10.783-.795-10.947.468-.14 1.333.492 1.824.914 2.244 1.875 5.424 6.118 4.9 10.197-.444 3.633-.187 7.876 1.66 10a4.16 4.16 0 0 0 1.052.867l.047.023v.047c0 .023.117.492.584 1.57 1.262 3 5.143 10.736 16.552 26.84-.07.047-.14.07-.2.117-11.48-16.222-15.36-23.98-16.6-26.958-.35-.82-.5-1.3-.538-1.453a3.66 3.66 0 0 1-1.192-1.055c-1.777-2.25-2.034-6.446-1.6-10.056zm18.703 39.757l.047.2-.117-.117c-3.834-3.774-6.616-8.5-8.86-12.33-2.338-3.985-4.185-7.126-6.242-7.736-.117-.047-.2-.047-.304-.023-.888.305-1.1 4.055 2.876 19.996h-.234c-1.356-5.438-2.314-9.822-2.852-13.057-1.005-6.024-.397-6.962.14-7.173.164-.07.327-.023.444.023 2.15.633 4.02 3.82 6.382 7.853 2.22 3.798 5.003 8.5 8.814 12.283l.07.07h-.164zm.725 3.4c-2.408-4.524-6.15-8.697-8.627-7.783-1.1.4-1.87 1.946-2.198 4.384h-.234c.35-2.58 1.146-4.173 2.338-4.595 2.22-.82 5.728 2.18 8.533 7.22l.187.774zm.7 3.398l-6.92-4.477-.187-.4 7.037 4.57zm.42 2.017l-4.793-1.102-.117-.28 4.84 1.125z"/><use xlink:href="#Y" class="C"/><path d="M3.18 90.928h44.77v2.508H3.18zm0 26.794h44.77v2.508H3.18zm0 26.818h44.77v2.508H3.18z" class="C"/></g><path d="M39.978 90.53l.14.258H11.526c-.28-.258-.982-.914-.935-1.875.023-.867.655-1.477.935-1.735h28.592l-.07.14c-.2.422-.42 1.03-.397 1.735 0 .586.14 1.078.327 1.477z" class="E"/><path d="M41.053 90.718c0 .117-.164.21-.35.21H11.41c-.117 0-.234-.023-.304-.094-.397-.328-1.052-1.03-1.03-1.97.023-.82.56-1.453 1.03-1.828.07-.047.187-.094.304-.094h29.153c.187 0 .35.094.35.21s-.164.21-.35.21H11.62c-.374.352-.77.867-.795 1.547-.023.75.444 1.336.795 1.664h29.083c.187-.047.35.023.35.14z" class="G"/><g class="D"><use xlink:href="#Z" class="B"/><use xlink:href="#Z" y="0.257" class="B"/><use xlink:href="#Z" y="0.538" class="B"/><path d="M38.575 88.796h-26.23c-.07 0-.14-.023-.14-.07s.047-.07.14-.07h26.23c.07 0 .14.023.14.07-.023.047-.07.07-.14.07z" class="B"/><use xlink:href="#Z" y="1.054" class="B"/><use xlink:href="#Z" y="1.335" class="B"/><use xlink:href="#Z" y="1.593" class="B"/><use xlink:href="#Z" y="1.85" class="B"/><use xlink:href="#Z" y="2.132" class="B"/></g><use xlink:href="#a" class="E"/><path d="M32.497 86.71c0 .117-.117.21-.257.21h-20.9c-.094 0-.164-.023-.2-.094-.28-.328-.748-1.03-.725-1.97.023-.82.397-1.453.725-1.828.047-.047.117-.094.2-.094h20.83c.14 0 .257.094.257.21s-.117.21-.257.21H11.456c-.257.352-.56.867-.584 1.547-.023.75.327 1.336.584 1.664h20.76c.164-.047.28.023.28.14z" class="F"/><g class="D"><use xlink:href="#b" class="B"/><use xlink:href="#b" y="0.248" class="B"/><use xlink:href="#b" y="0.53" class="B"/><use xlink:href="#b" y="0.787" class="B"/><use xlink:href="#b" y="1.045" class="B"/><use xlink:href="#b" y="1.326" class="B"/><use xlink:href="#b" y="1.584" class="B"/><use xlink:href="#b" y="1.865" class="B"/><use xlink:href="#b" y="2.123" class="B"/></g><use xlink:href="#a" y="-4.009" class="E"/><path d="M32.497 82.7c0 .117-.117.21-.257.21h-20.9c-.094 0-.164-.023-.2-.094-.28-.328-.748-1.03-.725-1.97.023-.82.397-1.453.725-1.828.047-.047.117-.094.2-.094h20.83c.14 0 .257.094.257.21s-.117.21-.257.21H11.456c-.257.352-.56.867-.584 1.547-.023.75.327 1.336.584 1.664h20.76c.164-.047.28.047.28.14z" class="F"/><g class="D"><use xlink:href="#b" y="-4.02" class="B"/><use xlink:href="#b" y="-3.76" class="B"/><use xlink:href="#b" y="-3.48" class="B"/><use xlink:href="#b" y="-3.222" class="B"/><use xlink:href="#b" y="-2.94" class="B"/><path d="M30.72 81.318H11.994c-.047 0-.094-.023-.094-.07s.047-.07.094-.07H30.72c.047 0 .094.023.094.07 0 .023-.047.07-.094.07z" class="B"/><use xlink:href="#b" y="-2.425" class="B"/><use xlink:href="#b" y="-2.143" class="B"/><use xlink:href="#b" y="-1.885" class="B"/></g><path d="M21.882 117.722l-5.47-.047-3.4-18.425a9.83 9.83 0 0 1 2.735-.68c1.075-.094 1.964 0 2.618.14l3.507 19.01z" class="G"/><path d="M13.158 117.72H9.58v-21.87h3.577z" class="C D"/><path d="M33.338 107.22h5.354l-3.437-10.97h-8.37l-3.437 10.97h5.354c.42 1.196.96 3.094.912 4.57-.07 2.344-1.333 5.93-1.333 5.93h5.377s-1.262-3.587-1.333-5.93c-.047-1.477.49-3.376.912-4.57z" class="E"/><path d="M20.106 134.366l1.683-4.01h-8.673l1.683 4.01c-1.847 1.242-3.04 3.376-3.04 5.72 0 1.664.608 3.235 1.636 4.43h8.16c1.03-1.22 1.636-2.766 1.636-4.43-.023-2.344-1.216-4.454-3.086-5.72z" class="C D"/><path d="M37.102 144.657h-9.866a.36.36 0 0 1-.351-.352v-9.892a.36.36 0 0 1 .351-.352h9.866a.36.36 0 0 1 .351.352v9.892a.36.36 0 0 1-.351.352zm-9.515-.703h9.164v-9.19h-9.164v9.19z" class="G"/><path d="M37.967 153.306H13.162v3.47h.865v10.22H37.22v-10.22h.748z" class="E"/><path d="M37.967 154.783v-.234H34.46l.234-1.242h-.234l-.234 1.242h-4.63l.234-1.242h-.234l-.234 1.242H24.64l.234-1.242h-.234l-.234 1.242H19.66l.234-1.242h-.234l-.234 1.242h-4.84l.234-1.242h-.234l-.234 1.242h-1.17v.234h1.122l-.374 1.993h.094v.703l.514-2.72h4.863l-.608 3.282h-4.77v.234h4.7l-.608 3.282h-4.09v.234h4.044l-.608 3.282h-3.437v.234h3.4l-.304 1.688h.234l.327-1.688h4.746l-.327 1.688h.234l.304-1.688h4.722l-.304 1.688h.234l.304-1.688h4.63l-.327 1.688h.234l.304-1.688h4.56l-.304 1.688h.234l.304-1.57v-1.266l-.164.938h-4.56l.608-3.282h4.115v-.234H33.15l.608-3.282h3.46v-.234h-3.413l.608-3.282h3.554zm-13.35 0h4.722l-.608 3.282H24l.608-3.282zm4.068 3.493l-.608 3.282h-4.722l.608-3.282h4.722zm-9.047-3.493h4.746l-.608 3.282H19.03l.608-3.282zm-.655 3.493h4.746l-.608 3.282h-4.746l.608-3.282zm3.46 6.798H17.72l.608-3.282h4.746l-.63 3.282zm4.956 0h-4.722l.608-3.282h4.722l-.608 3.282zm4.863 0h-4.63l.608-3.282h4.63l-.608 3.282zm.655-3.516h-4.63l.608-3.282h4.63l-.608 3.282zm.655-3.516h-4.63l.608-3.282h4.63l-.608 3.282z" class="F"/><path d="M139.92 55.813h45.94v27.59h-45.94z" class="G"/><g class="D"><path d="M160.423 77.12l-8.44 2.227-6.125-6.212 2.314-8.44 8.416-2.204 6.125 6.212z" class="C"/><path opacity=".43" d="M169.33 77.12l-8.416 2.227-6.125-6.212 2.29-8.44 8.44-2.204 6.125 6.212z"/><path opacity=".43" d="M177.606 77.12l-8.44 2.227-6.125-6.212 2.314-8.44 8.416-2.204 6.125 6.212z"/></g><path d="M79.837.655h55.828V83.38H79.837z" class="G"/><path d="M81.847 2.835h51.807v78.39H81.847z" class="E"/><path d="M87.34 21.565h40.82v40.93H87.34z" class="F"/><path d="M128.16 44.913v17.58H87.34V44.796c1.356-1.477 3.32-1.735 6.195.96 8.3 7.783 21.04-9.26 26.348-3.727 2.946 3.07 6.078 3.282 8.276 2.883z" class="G"/><path d="M113.69 51.594s-6.078 6.33-10.8 4.83c-1.94-.61-3.133-1.196-3.857-1.664.42 2.133 1.31 4.688 2.805 7.736H96.53c-3.203-8.087-2.198-12.494-.655-15.026.187-.305.374-.586.584-.844-.63-.117-1.566-.375-2.922-.867-3.483-1.266-.608-8.86-.49-9.166-.023.188-.444 3.165 2.642 4.243 1.987.68 2.29 2.8 2.22 4.266 4.302-3.6 11.455-3.727 16.505-8.65-.888-.164-2.502-.516-4.49-1.125-3.04-.938-3.554-8.814-3.554-8.814s1.566 2.72 5.447 4.08c2.782.985 3.296 3.633 3.367 5.04.397-.445.77-.938 1.146-1.477 2.385-3.446 2.946-7.15 3.086-9.564.35 3.657.14 8.533-2.782 12.377-1.052 1.383-2.268 2.39-3.554 3.165 1.192.516 3.577 1.805 3.624 4.126.07 3.07 3.203 4.196 3.203 4.196s-9.188-.305-9.118-4.3c.023-1.5.28-2.485.56-3.118-4.325 1.946-9.07 2.204-11.41 5.907-.865 1.383-1.45 3.33-1.17 6.118 1.356-.703 4.16-1.617 7-.703 3.904 1.266 7.925-.774 7.925-.774z" class="C D"/><path d="M59.03 36.873h16.81v27.66H59.03z" class="G"/><path d="M60.082 38.068h14.705v25.294H60.082z" class="E"/><g class="D"><ellipse cx="62.233" cy="40.694" rx="1.005" ry="1.008" class="C"/><ellipse cx="66.441" cy="44.562" rx="1.005" ry="1.008" class="C"/><ellipse cx="69.901" cy="40.694" rx="1.005" ry="1.008" class="C"/><ellipse cx="73.057" cy="46.789" rx="1.005" ry="1.008" class="C"/><path d="M74.787 38.068v1.29c-.07.023-.164.023-.234.023a1 1 0 0 1-1.005-1.008c0-.117.023-.21.047-.328h1.192v.023z" class="C"/><ellipse cx="65.436" cy="53.704" rx="1.005" ry="1.008" class="C"/><path d="M61.087 47.586a1 1 0 0 1-1.005 1.008V46.6c.56-.023 1.005.422 1.005.985z" class="C"/><ellipse cx="71.888" cy="52.696" rx="1.005" ry="1.008" class="C"/><path d="M74.787 54.196v1.993a1 1 0 0 1-1.005-1.008c.023-.54.468-.985 1.005-.985z" class="C"/><ellipse cx="66.441" cy="60.455" rx="1.005" ry="1.008" class="C"/><path d="M63.215 63.362h-1.987a1 1 0 0 1 1.005-1.008c.538 0 .982.445.982 1.008zm11.572-.446v.422H73.08a.98.98 0 0 1 .959-.774c.304.023.584.14.748.352zm-13.07-5.72a1 1 0 0 1-1.005 1.008.99.99 0 0 1-.63-.234v-1.547a1 1 0 0 1 1.635.774z" class="C"/></g><path d="M139.663.655h31.2v52.51h-31.2z" class="F"/><path d="M140.785 2.038h28.966V51.78h-28.966z" class="E"/><ellipse cx="164.444" cy="17.931" rx="3.063" ry="3.071" class="F"/><path d="M169.75 29.676V51.78h-15.78a17.18 17.18 0 0 1-.842-5.274c0-9.236 7.434-16.737 16.622-16.83z" class="C D"/><path d="M147.33 26.277c-3.787-4.01-4.652-10.033-2.127-14.932s7.902-7.712 13.373-6.94l-11.245 21.87z" class="F"/><path d="M155.256 23.3h4.676v20.84h-4.676zm-4.02 18.284c-.5 1.102-1.8 4.055-4.068 4.08-2.127.023-3.6-2.58-4.068-4.08-.14-.47-.655-2.18.164-3.82.304-.633.982-1.524 1.403-1.406.77.234.28 3.704.7 3.75.327.047.514-2.18 1.8-2.625.374-.117.912-.117 1.262.164.818.703 0 2.602.257 2.72.42.164 2.3-4.735 3.04-4.548.584.164.7 3.118-.5 5.767z" class="G"/><path d="M176.858 16.642h16.505v35.162h-16.505z" class="F"/><path d="M176.858 16.642h16.505v35.162h-16.505z" class="C D"/><path d="M193.363 22.62v26.348h-2.735V47.42c-3.857-.774-6.78-4.43-6.78-8.79 0-3.212 1.6-6.048 3.95-7.62l-2.244-6.54-3.437-1.852h11.245z" class="G"/><ellipse cx="184.269" cy="46.484" rx="5.073" ry="3.798" class="C D"/><path d="M176.858.655h16.505v12.588h-16.505z" class="F"/><path d="M187.87 5.32c.187 1.5-.96 3.188-2.385 3.188S182.913 6.82 183.1 5.32c.14-1.125 1.052-2.39 2.385-2.39s2.22 1.266 2.385 2.39z" class="E"/><path d="M185.274 4.242l-2.198 8.017-1.987-1.336s1.52-9.26 3.928-8.486c0 0 1.286-.82 2.244.258s1.38 9.822 1.38 9.822h-1.426l-.912-7.665-1.03-.61z" class="G"/><path d="M47.434.655h28.452v30.333H47.434z" class="F"/><path d="M59.872 12.563s.397-10.22-5.634-5.86C49.28 10.29 50.66 24.542 57.1 27.19c2.572 1.055 5.213 0 6.616-.54 7.995-3.14 11.83-13.76 9.82-15.682-.374-.352-.912-.422-1.496-.375-4.746.4-5.845 3.563-5.845 3.563 1.66-3.282 1.38-6.26 0-7.15-1.17-.75-2.9.07-3.156.188-2.9 1.383-3.133 5.134-3.156 5.368z" class="G"/><path d="M196.59 8.977h12.975v12.588H196.59z" class="F"/><g class="D"><path d="M197.712 10.055h10.778v10.432h-10.778z" class="C"/><path d="M208.466 16.595v3.89h-10.778V17.5c.514-.328 1.38-.75 1.917-.21.795.797 1.566-.023 2.618-.258s1.683 1.852 3.11 1.15c1.17-.586 2.43-1.64 3.133-1.594z" class="C"/><path d="M208.466 15.025v5.462h-10.778V16.29c.514-.47 1.38-1.055 1.917-.305.795 1.125 1.566-.023 2.618-.352s1.683 2.625 3.11 1.617c1.17-.82 2.43-2.297 3.133-2.227z" class="C"/><path d="M208.466 14.04v6.446h-10.778V15.54c.514-.563 1.38-1.242 1.917-.352.795 1.336 1.566-.047 2.618-.422 1.052-.4 1.683 3.07 3.11 1.9 1.17-.96 2.43-2.696 3.133-2.625z" class="C"/></g><path d="M199.23 12.516h4.886a3.89 3.89 0 0 0-.7-.867c-.304-.28-.468-.422-.678-.47-.608-.117-.842.563-1.613.563-.468 0-.56-.258-.935-.2-.444.094-.748.563-.96.985zm4.046 1.407h2.455a1.79 1.79 0 0 0-.35-.422c-.163-.142-.234-.2-.327-.234-.304-.07-.42.28-.795.28-.234 0-.28-.14-.468-.094-.28.023-.42.258-.514.47z" class="E"/><path d="M52.805 83.41V68.175h23.05V83.41z" class="F"/><path d="M55.143 81.185V70.448h18.352v10.736z" class="E"/><path d="M63.52 75.81c0 2.72-2.36 4.946-5.12 4.782v-9.54c2.76-.21 5.12 2.04 5.12 4.76z" class="G"/><path d="M70.3 74.52c.795 2.602-.795 5.438-3.483 6.07L64 71.472c2.572-1.008 5.494.445 6.29 3.047z" class="C D"/><path d="M31.303 38.068h23.73v12.635h-23.73z" class="G"/><path d="M55.033 43.624v7.173h-23.73v-6.07l7.41-2.836 2.338-.89.187 1.664.327 3 3.624-3.212 1.847-1.64.63 1.336 1.66 3.516 2.244-2.65 1.894-2.227.818 1.453.748 1.383z" class="C D"/><path d="M41.216 42.57l-1.356.234-1.17-.985 2.338-.9.187 1.64zm6.43-.54l-.96.68-1.496-.4 1.847-1.64.608 1.36zm6.593.094l-1.122 1.008-1.6-.234L53.4 40.67l.818 1.453z" class="E"/><g class="F"><use xlink:href="#c"/><use xlink:href="#d"/><use xlink:href="#e"/></g><g class="C D"><use xlink:href="#c"/><use xlink:href="#d"/><use xlink:href="#e"/></g><path d="M242.692 130.31h-33.735a2.77 2.77 0 0 0-2.759 2.766 2.77 2.77 0 0 0 2.759 2.766h.327l3.156 54.713h26.768l3.156-54.713h.327a2.77 2.77 0 0 0 2.759-2.766c0-1.5-1.24-2.766-2.76-2.766z" class="F"/><path d="M214.794 174.032v18.91a2.14 2.14 0 0 1-2.124 2.138h-1.564c-.443 0-.84-.14-1.2-.376-.56-.376-.933-1.034-.933-1.785v-18.888a2.14 2.14 0 0 1 2.124-2.138h1.564a2.14 2.14 0 0 1 2.124 2.138z" class="H"/><path d="M211.06 187.188c0 3.453-.653 6.084-1.144 7.518-.56-.376-.933-1.034-.933-1.785v-10.994c.9.634 2.077 2.044 2.077 5.262z" fill="url(#A)" class="B"/><path d="M35.52 174.76v18.91a2.14 2.14 0 0 1-2.124 2.138h-1.564c-.257 0-.5-.047-.723-.117-.817-.305-1.4-1.08-1.4-2.02v-18.91a2.14 2.14 0 0 1 2.124-2.138h1.564a2.14 2.14 0 0 1 2.124 2.138z" class="H"/><path d="M33.35 188.08c-.117 3.218-1.003 5.756-2.24 7.61-.817-.305-1.4-1.08-1.4-2.02V179.6c2.124 1.81 3.757 4.487 3.64 8.48z" fill="url(#B)" class="B"/><path d="M46.8 189.232h-.2a2.82 2.82 0 0 1-2.8-2.819v-17.55a2.82 2.82 0 0 1 2.8-2.819h.2a2.82 2.82 0 0 1 2.8 2.819v17.55a2.82 2.82 0 0 1-2.8 2.819zm153.325.493h-.2a2.82 2.82 0 0 1-2.8-2.819v-17.572a2.82 2.82 0 0 1 2.8-2.819h.2a2.82 2.82 0 0 1 2.8 2.819v17.55c0 1.574-1.26 2.843-2.8 2.843z" class="H"/><path d="M193.93 125.24l.513 29.06h-142.6l.163-29.788c2.124-2.16 5.274-5.027 9.452-7.823 3.804-2.514 7.748-4.487 10.198-5.38 9.452-3.43 18.343 1.433 24.994 3.17 21.984 5.78 34.656-18.44 57.013-17.83 10.128.305 24.014 5.756 40.256 28.6z" fill="#41142a"/><path d="M202.17 119.507l-8.215 5.756.723 40.57h7.538l2.917-48.394-2.964 2.067zm-153.35 2.89l-7.468-4.957 2.917 48.394h7.538l.233-41.3-3.22-2.138z" fill="#47142a"/><path d="M220.14 184.087h-.117l-96.78-.188-96.942.188c-1.167-2.584-3.337-16.07-4.9-29.765-1.307-11.417-1.4-21.87-1.167-31.057.793-1.104 4.364-5.826 10.922-7.048 4.83-.916 8.705.564 10.198 1.222l2.917 48.394h157.922l2.917-48.394c1.6-.564 5.928-1.856 11.155-.493 5.6 1.457 8.868 5.027 9.942 6.32 2.66 6.86-3.757 55.418-6.068 60.82z" fill="url(#C)"/><path d="M195.588 165.787H50.385a1.77 1.77 0 0 1-1.75-1.762v-9.42a1.77 1.77 0 0 1 1.75-1.762h145.203a1.77 1.77 0 0 1 1.75 1.762v9.42a1.77 1.77 0 0 1-1.75 1.762z" fill="#791d2c"/><path d="M220 184.087l-96.78-.188-96.872.188c4.854-5.474 9.545-7.87 12.835-9.045 15.076-5.38 25.577 5.92 43.64.54 5.764-1.715 5.134-3.007 11.53-4.65 2.544-.658 13.676-3.29 27.304.705 6.44 1.903 6.23 3.148 11.715 5.004 14.586 4.933 21.4-2.185 47-2.678 12.462-.235 18.973 1.292 22.544 2.326 7.56 2.185 13.35 5.403 17.083 7.8z" fill="#41142a"/><path d="M154.655 80.556c-.117 0-.233.047-.327.094l-.42-1.55c0-.047-.047-.07-.093-.07h-2.334c-.023 0-.047 0-.07.023s-.023.047-.023.07l.467 1.762c.023.164.2.305.443.305.257 0 .443-.14.443-.33s-.187-.33-.443-.33c-.117 0-.233.047-.327.094l-.373-1.433h2.147l.443 1.7c.023.164.2.305.443.305s.443-.14.443-.33c.023-.164-.187-.305-.42-.305zm-2.334.188c.163 0 .257.07.257.14s-.117.14-.257.14c-.163 0-.257-.07-.257-.14-.023-.07.093-.14.257-.14zm2.334.282c-.163 0-.257-.07-.257-.14s.117-.14.257-.14c.163 0 .257.07.257.14s-.093.14-.257.14zm10.922.574c-.023-.023-.047-.047-.07-.047l-2.754-.634c-.047 0-.07 0-.093.047l-.9 1.738a.53.53 0 0 0-.35-.211c-.117-.023-.257-.023-.35.023a.38.38 0 0 0-.233.235c-.047.2.14.423.42.47.047.023.117.023.163.023.07 0 .14 0 .2-.023.117-.047.187-.117.2-.2l.98-1.88 2.567.587-.863 1.62a.53.53 0 0 0-.35-.211c-.28-.07-.537.047-.583.258s.14.4.42.47c.047 0 .093.023.163.023s.14 0 .2-.047c.117-.047.187-.117.2-.2l1.027-1.926c0-.047 0-.07-.023-.094zM161.54 83c-.07.023-.163.023-.257 0-.187-.047-.303-.164-.28-.258.023-.047.07-.094.117-.094.047-.023.093-.023.14-.023s.07 0 .117.023c.187.047.303.164.28.258 0 .07-.07.094-.117.094zm2.754.634c-.07.023-.163.023-.257 0-.187-.047-.303-.164-.28-.258.023-.07.117-.117.257-.117.047 0 .07 0 .117.023.187.047.303.164.28.258-.023.047-.093.07-.117.094zm-4.434 10.5c-.187 0-.327.07-.443.14l-.56-2.16c0-.047-.047-.07-.117-.07-.047.023-.07.07-.07.117l.607 2.396c.023.2.257.376.56.376s.56-.164.56-.4c.023-.2-.233-.4-.537-.4zm0 .634c-.2 0-.373-.094-.373-.2s.163-.2.373-.2.373.094.373.2c0 .094-.163.2-.373.2zm-5.905-19.216c-.14-.188-.443-.164-.677.023-.14.117-.233.258-.257.376l-1.774-1.363c-.047-.023-.093-.023-.117.023s-.023.094.023.117l1.96 1.504c.07.07.163.117.257.117a.68.68 0 0 0 .397-.141.71.71 0 0 0 .233-.305c.047-.14.023-.258-.047-.352zm-.117.282c-.023.094-.093.164-.163.235-.163.117-.35.14-.42.047s0-.282.163-.4c.093-.07.2-.117.28-.117a.25.25 0 0 1 .14.047c.023.07 0 .14 0 .188zm4.598 6.295l-.5-.493c-.023-.023-.047-.023-.093-.023-.023 0-.047.023-.07.07l-.56 2.138c-.093-.094-.257-.14-.42-.14-.303 0-.537.164-.537.4 0 .2.233.4.537.4s.537-.164.537-.376l.56-2.208.373.376c.023.023.093.023.117 0 .093-.047.093-.117.047-.14zm-1.6 2.138c-.187 0-.373-.094-.373-.2s.163-.2.373-.2.373.094.373.2-.163.2-.373.2zm1.764-6.413c0-.023-.023-.07-.047-.07h-.093l-1.237.893v-.023c-.023-.094-.093-.164-.163-.235-.187-.14-.397-.164-.513-.023-.047.047-.047.094-.047.164 0 .117.07.235.187.33.07.07.163.117.257.117h.047c.07 0 .14-.023.187-.07l1.284-.916.023.33c0 .047.047.094.093.07.047 0 .093-.047.093-.094l-.07-.47zm-1.564.963c-.023.023-.07.023-.093.023-.047 0-.117-.047-.163-.07-.093-.094-.14-.2-.093-.258s.163-.047.257.047c.047.047.093.094.117.164-.023.023 0 .07-.023.094zm5.134 8.762c-.023-.023-.047-.047-.07-.047h-2.17c-.047 0-.07.023-.093.07l-.373 1.433a.57.57 0 0 0-.28-.094c-.233 0-.42.14-.42.305s.187.305.42.305.397-.117.42-.282l.42-1.55h1.984l-.35 1.316a.57.57 0 0 0-.28-.094c-.233 0-.42.14-.42.305s.187.305.42.305c.2 0 .397-.117.42-.282l.443-1.62c-.047-.023-.047-.047-.07-.07zm-2.987 1.8c-.14 0-.233-.07-.233-.117 0-.07.093-.14.233-.14s.233.07.233.14c0 .047-.093.117-.233.117zm2.17 0c-.14 0-.233-.07-.233-.117 0-.07.093-.14.233-.14s.233.07.233.14c0 .047-.117.117-.233.117zm5.81-2.843l-.093-1.668c0-.023-.023-.047-.047-.07s-.047-.023-.07 0l-2.054.68c-.047.023-.07.047-.07.094l.093 1.48a.66.66 0 0 0-.303 0c-.2.07-.35.258-.303.423.047.117.163.188.327.188.047 0 .117 0 .163-.023a.43.43 0 0 0 .233-.164.45.45 0 0 0 .07-.235l-.07-1.292 1.867-.6.07 1.034a.66.66 0 0 0-.303 0 .43.43 0 0 0-.233.164c-.07.094-.093.188-.047.258.047.117.163.188.327.188.047 0 .117 0 .163-.023.187-.094.303-.258.28-.423zm-2.24.8c-.047.047-.093.094-.163.094-.14.047-.257 0-.257-.047-.023-.047.047-.14.187-.188.117-.047.233 0 .257.047 0 .047-.023.094-.023.094zm.093-1.597v-.117l1.867-.6v.117l-1.867.6zm1.797 1.034c-.117.047-.233 0-.257-.047 0-.023.023-.07.023-.094.047-.047.093-.094.163-.094.117-.047.233 0 .257.047 0 .047-.07.14-.187.188zm-91.832-15.39a.76.76 0 0 0-.537.21l-.7-2.608c0-.047-.047-.07-.093-.07h-3.757c-.023 0-.047 0-.07.023s-.023.047-.023.07l.747 2.843c0 .117.093.235.2.305s.28.14.443.14c.373 0 .653-.2.653-.47s-.28-.47-.653-.47a.76.76 0 0 0-.537.21l-.653-2.5h3.57l.747 2.772c0 .117.07.235.187.305s.28.14.443.14c.373 0 .653-.2.653-.47.023-.235-.257-.446-.63-.446zm-3.757.188c.257 0 .467.14.467.282 0 .164-.2.282-.467.282s-.467-.14-.467-.282.2-.282.467-.282zm3.757.587c-.257 0-.467-.14-.467-.282 0-.164.2-.282.467-.282s.467.14.467.282c.023.14-.2.282-.467.282zm.933-4.628c-.2 0-.373.07-.5.188l-.63-2.467c0-.047-.07-.07-.117-.07s-.07.07-.07.117l.677 2.702c.023.235.28.423.607.423.35 0 .607-.188.607-.446.023-.235-.233-.446-.583-.446zm0 .705c-.233 0-.42-.117-.42-.258s.187-.258.42-.258.42.117.42.258c.023.14-.187.258-.42.258zM66.744 82.6c-.257 0-.467.094-.583.235l-.747-2.96c0-.047-.07-.07-.117-.07-.047.023-.07.07-.07.117l.817 3.195c0 .14.093.258.2.33.117.094.303.14.5.14.397 0 .7-.2.7-.493s-.303-.493-.7-.493zm0 .822c-.28 0-.537-.14-.537-.33s.233-.33.537-.33c.28 0 .513.14.513.33.023.188-.233.33-.513.33zm5.226 2.185c-.047-.094-.14-.164-.28-.164a1.05 1.05 0 0 0-.373.07.59.59 0 0 0-.303.33l-1.447-1.597c-.023-.047-.093-.047-.117 0-.047.023-.047.094 0 .117l1.587 1.762c.047.094.14.14.257.164h.047a.51.51 0 0 0 .303-.094c.303-.14.443-.4.327-.587zm-.373.423c-.093.047-.187.07-.28.047-.047 0-.117-.023-.14-.07-.047-.094.047-.258.2-.352a.45.45 0 0 1 .233-.07h.047c.047 0 .117.023.14.07.07.117-.047.282-.2.376zm10.76-18.418l-.887-.94c-.023-.023-.047-.023-.07-.023s-.047.023-.07.047l-1.494 2.678c-.07-.164-.257-.305-.513-.376-.373-.094-.747.023-.817.305s.163.564.56.68a1.04 1.04 0 0 0 .257.023c.257 0 .5-.117.537-.305l1.354-2.42.887.94c.023.023.047.023.07.023s.047 0 .07-.023c.047-.023.047-.094 0-.117l-.9-.963s-.023 0-.023-.023l.117-.2.817.87c.023.047.093.047.117 0 .023-.094.023-.14 0-.164zm-2.66 1.973c-.047.164-.327.258-.607.188s-.467-.282-.42-.446.327-.258.583-.188.5.282.443.446zm-9.52 10.408l-1.377-1.386.793-.423c.047-.023.047-.07.047-.117-.023-.047-.07-.047-.117-.047l-.84.446-.07-.07.723-.376c.047-.023.07-.07.047-.117s-.07-.07-.117-.047l-.817.446c-.023.023-.047.047-.047.07s0 .047.023.07l1.517 1.527c-.117.047-.257.14-.327.282-.07.117-.117.235-.093.352a.3.3 0 0 0 .163.282c.047.023.093.047.163.047.047 0 .117-.023.187-.047.117-.047.2-.14.28-.258.047-.235.023-.517-.14-.634zm-.117.54c-.047.094-.117.164-.187.188-.047.023-.117.047-.163 0-.047-.023-.07-.094-.07-.14a.54.54 0 0 1 .07-.258c.07-.14.2-.2.303-.2.023 0 .047 0 .07.023.093.047.093.235-.023.4zM81.306 62.5c-.023-.023-.047-.047-.07-.047H78.4c-.047 0-.07.023-.093.07l-.513 1.926a.67.67 0 0 0-.397-.141c-.28 0-.513.164-.513.376s.233.376.513.376.5-.164.513-.352l.443-1.7h2.66l-.373 1.4a.67.67 0 0 0-.397-.141c-.28 0-.513.164-.513.376s.233.376.513.376.5-.164.513-.352l.56-2.138c.023.023 0-.023 0-.047zm-3.92 2.396c-.187 0-.327-.117-.327-.188 0-.094.14-.188.327-.188.2 0 .35.094.35.188s-.14.188-.35.188zm2.847 0c-.2 0-.327-.117-.327-.188 0-.094.14-.188.327-.188.2 0 .327.094.327.188s-.117.188-.327.188zm.817-2.02H78.4l.047-.2h2.66l-.047.2zM68.588 74.6c0-.023-.023-.047-.047-.047l-2.007-.775c-.047-.023-.093 0-.117.023l-.863 1.198v-.023a.43.43 0 0 0-.233-.164c-.2-.094-.443-.023-.5.14-.023.07-.023.188.047.258a.43.43 0 0 0 .233.164c.07.023.14.047.187.047h.093c.093-.023.163-.07.187-.14l.77-1.057 1.844.728-.63.846v-.023a.43.43 0 0 0-.233-.164c-.093-.047-.187-.047-.28-.023s-.187.07-.2.164-.023.188.047.258c.047.07.14.14.233.188.07.023.14.047.187.047.117 0 .233-.047.28-.164l.98-1.363c.023-.07.023-.094.023-.117zm-3.197.564c-.023.047-.07.047-.07.047-.047 0-.117 0-.187-.023s-.117-.07-.163-.117c0-.023-.047-.047-.023-.094s.07-.07.14-.07c.047 0 .093 0 .117.023.07.023.117.07.163.117.023.047.047.094.023.117zm2.03.8c-.023.047-.14.094-.257.047-.07-.023-.117-.07-.163-.117 0-.023-.047-.047-.023-.094s.07-.047.07-.047h.047a.3.3 0 0 1 .14.023.24.24 0 0 1 .14.117c.047-.023.07.023.047.07zm.863-1.198l-1.844-.728.07-.094 1.844.728-.07.094z" class="K"/><path d="M132.718 204.455c-.023.07-.023.14-.047.21-.467 1.55-2.357 1.88-8.355 3.5l-2.497.68c-.14.047-.28.07-.42.117l-.98.258-1.003.258-.467.117-.653.14-.397.07h-.047c-.047 0-.093.023-.14.023-.07 0-.117.023-.187.023-.233.047-.443.07-.653.094-.28.023-.513.023-.723 0h-.093c-.117-.023-.233-.047-.327-.094l-.14-.07c-.14-.07-.233-.164-.327-.282 0 0 0-.023-.023-.023v-.023c-.047-.14-.117-.493-.187-.963 0-.047-.023-.117-.023-.164l-.117-.8c0-.047-.023-.117-.023-.164s-.023-.117-.023-.164c-.023-.07-.023-.14-.023-.235l-.14-1c0-.07-.023-.14-.023-.21 0-.047-.023-.117-.023-.164v-.047l-.07-.587-.093-.752-.07-.587c0-.07-.023-.14-.023-.21v-.094c0-.07-.023-.164-.023-.235v-.094c0-.023 0-.047-.023-.07v-.117c-.023-.094-.023-.14-.023-.14l.747-.376 4.014-1.997.327 2.255v.258c0 .07 0 .14.023.21 0 .117.023.235.047.352 0 .094.023.164.047.258 0 .023 0 .047.023.094 0 .047.023.07.023.094.047.164.07.305.14.446 0 .023.023.047.023.07s.023.047.047.07c0 .023.023.023.023.047 0 0 0 .023.023.023.117.21.257.4.443.54.723.61 1.867.493 3.314.07l.56-.164c.093-.023.187-.07.28-.094l1.214-.423.327-.117c.093-.023.187-.07.28-.117l.817-.33.327-.14.9-.423 1.867-.94c.117-.047.2-.094.303-.14s.187-.07.257-.117c.07-.023.14-.07.233-.094l.2-.07c.07-.023.14-.023.2-.047.187-.023.35 0 .513.07.047.023.07.047.117.047.07.047.117.07.187.14.14.117.257.282.35.493.047.07.07.164.117.235.023.047.023.094.047.14.047.517.093 1 0 1.48z" fill="#aac0dc"/><path d="M94.61 213.9c-.023.54-.2 1.128-.537 1.55-1.003 1.316-2.94.963-9.288.423l-7.21-.752c-1.237-.235-1.9-.564-2.03-1.15-.023-.117.117-.893.303-1.88l.28-1.292.653-2.913.2-.893 1.6-.188 4.387-.493c0 .023-.023.07-.023.117 0 .023-.023.047-.023.07-.093.352-.28.893-.327.987 0 0 0 .023-.023.023-.023.047-.047.094-.07.117a1.1 1.1 0 0 0-.117.235c-.047.07-.07.164-.117.235a1.15 1.15 0 0 0-.07.164c-.023.07-.07.117-.093.188l-.14.33c-.047.094-.07.21-.117.305l-.07.188c0 .047-.023.07-.023.117-.023.047-.023.094-.047.164-.023.047-.023.094-.023.164 0 .047-.023.094-.023.14a2.43 2.43 0 0 0 0 .822c0 .047.023.117.023.164a1.57 1.57 0 0 0 .21.493c.747 1.292 2.987 1.292 5.764 1.316l2.917-.14c2.1-.21 3.174-.493 3.71.14.233.305.327.752.303 1.245z" class="D"/><path d="M132.718 204.455c-.023.07-.023.14-.047.21-.467 1.55-2.357 1.88-8.355 3.5l-2.497.68c-.14.047-.28.07-.42.117l-.98.258-1.003.258-.467.117-.653.14-.397.07h-.047c-.047 0-.093.023-.14.023-.07 0-.117.023-.187.023-.233.047-.443.07-.653.094-.28.023-.513.023-.723 0h-.093c-.117-.023-.233-.047-.327-.094l-.14-.07c-.14-.07-.233-.164-.327-.282 0 0 0-.023-.023-.023v-.023c-.047-.14-.117-.493-.187-.963 0-.047-.023-.117-.023-.164l-.117-.8c0-.047-.023-.117-.023-.164s-.023-.117-.023-.164c-.023-.07-.023-.14-.023-.235l-.14-1c0-.07-.023-.14-.023-.21 0-.047-.023-.117-.023-.164v-.047l-.07-.587-.093-.752-.07-.587c0-.07-.023-.14-.023-.21v-.094c0-.07-.023-.164-.023-.235v-.094c0-.023 0-.047-.023-.07v-.117c0-.07-.023-.117-.023-.14v-.023l.747-.376 4.014-1.997.327 2.255v.258c0 .14.023.352.047.564 0 .023 0 .07.023.094 0 .023 0 .047.023.094 0 .023 0 .047.023.07 0 .023 0 .047.023.094 0 .047.023.07.023.094.023.117.07.235.093.305.023.047.023.07.047.117 0 .023.023.047.023.07s.023.047.047.07c0 .023.023.023.023.047 0 0 0 .023.023.023.117.21.257.4.443.54.723.61 1.867.493 3.314.07l.56-.164c.093-.023.187-.07.28-.094l1.214-.423.327-.117.747-.282.35-.14.327-.14.9-.423 1.867-.94c.117-.047.2-.094.303-.14s.187-.07.257-.117c.07-.023.14-.07.233-.094l.2-.07c.07-.023.14-.023.2-.047.187-.023.35 0 .513.07.047.023.07.047.117.047.07.047.117.07.187.14.14.117.257.282.35.493.047.07.07.164.117.235.023.047.023.094.047.14.047.54.093 1.034 0 1.504z" fill="url(#D)" opacity=".2"/><path d="M94.61 213.9c-10.782 2.514-14.492.33-15.683-3.077-.28-.822-.443-1.715-.5-2.63-.023-.352 0-.705.07-1.034a1.74 1.74 0 0 1 .093-.329l4.387-.493c0 .023-.023.07-.023.117 0 .023-.023.047-.023.07-.093.352-.28.893-.327.987v.023c-.023.047-.047.094-.07.117a1.1 1.1 0 0 0-.117.235c-.047.07-.07.164-.117.235a1.15 1.15 0 0 0-.07.164c-.023.07-.07.117-.093.188-.047.117-.093.21-.14.33-.047.094-.07.21-.117.305-.023.07-.047.14-.07.188 0 .047-.023.07-.023.117-.023.047-.023.094-.047.164-.023.047-.023.094-.023.164 0 .047-.023.094-.023.14a2.43 2.43 0 0 0 0 .822c0 .047.023.117.023.164a1.57 1.57 0 0 0 .21.493c.747 1.292 2.987 1.292 5.764 1.316 1.144 0 2.1-.07 2.917-.14 2.1-.21 3.174-.493 3.71.14.2.282.303.728.28 1.222z" fill="url(#E)" opacity=".38"/><path d="M82.917 206.522c0-.023.023-.047.023-.07 0-.047.023-.07.023-.117l-4.387.493-1.6.188-.84 3.806 2.8.023 2.777.047c-.023-.047-.023-.117-.023-.164-.047-.258-.023-.54 0-.822.117-.822.537-1.668.933-2.35v-.023l.303-1zm43.15-2.302c-.093.446-.35.987-.887 1.715-1.774 2.35-7.14 1-10.525-.14 0-.047-.023-.117-.023-.164v-.047l-.07-.587c-.023-.258-.07-.517-.093-.752l-.07-.587c0-.07-.023-.14-.023-.2v-.094c0-.07-.023-.164-.023-.235v-.094c0-.023 0-.047-.023-.07v-.117h.023l.723-.517 3.43-2.443.56.282c0 .047.023.094.023.164a74.95 74.95 0 0 0 .327 2.255v.164c0 .258.047.493.07.68 0 .023 0 .07.023.094 0 .023 0 .047.023.094 0 .023 0 .047.023.07 0 .023 0 .047.023.094 0 .047.023.07.023.094.047.164.07.305.14.446 0 .023.023.047.023.07s.023.047.047.07c0 .023.023.023.023.047 0 0 0 .023.023.023.117.2.257.4.443.54.723.6 1.867.493 3.314.07.187-.047.373-.117.56-.164.093-.023.187-.07.28-.094l1.214-.423c.117-.047.2-.07.327-.117-.047-.07 0-.094.07-.117z" class="I H"/><path d="M82.987 206.334c0 .023-.023.07-.023.117-.093.352-.28.94-.35 1.057 0 0 0 .023-.023.023l-.2.352h-5.624l.2-.893 1.6-.188 4.4-.47zm36.43-2.936l-4.994.87-.07-.587c0-.07-.023-.14-.023-.2v-.094c-.023-.094-.07-.188-.093-.305.023-.047.023-.07.047-.117v-.094c0-.047-.023-.094-.023-.117v-.023l.747-.376 4.014-1.997.327 2.255v.14c0 .094 0 .2.023.305 0 .07.023.14.023.2.023.047.023.094.023.14zM77.573 215.12c-1.237-.235-1.9-.564-2.03-1.15-.023-.117.117-.893.303-1.88l1.727 3.03zm40.233-5.262c-1.424.258-2.24.2-2.567-.305-.07-.117-.233-1.034-.397-2.16l2.964 2.467z" class="K"/><path d="M119.37 202.716c-.023 0-.023 0 0 0l-4.97.893-.07-.235c-.023-.094-.07-.188-.093-.305l-10.805-33.71-10.712-3.547-4.224-1.4-1.82-.61-2.614-.87s-5.554-4.064-9.24-8.598l-1.12-1.457c-.56-.822-1.05-1.62-1.424-2.42-.653-1.457-.9-2.9-.467-4.11.56-1.597 1.634-2.9 2.964-3.853.84-.61 1.774-1.08 2.707-1.4.163-.047.327-.117.467-.164.677-.188 1.33-.33 1.984-.376.257-.023.5-.023.723-.023.677 0 1.33.094 1.9.282l.327.117c.187.07.35.164.513.258.747.446 1.284 1.08 1.517 1.973l.373.258.607.4c.023 0 .023.023.047.023l2.427 1.644.63.423 10.198 6.977 2.1 1.457c7.375 5.215 8.775 6.695 10.058 8.598.653.963 1.2 1.926 1.68 2.866 0 .023.023.023.023.047.723 1.457 1.284 2.913 1.68 4.3.957 3.17 1.214 5.99 1.4 7.964.163 1.81.373 3.76.63 5.826l2.194 16.257c0 .047.023.094.023.164a74.95 74.95 0 0 0 .327 2.255v.117c.047-.023.047 0 .07 0z" fill="url(#F)"/><path d="M97.805 167.478L84.06 162.92s-9.148-6.695-11.762-12.498c1.704-3.923 5.344-7.494 8.378-9.96 2.054.023 3.78.846 4.247 2.63l4.084 2.772 8.798 21.613z" opacity=".17" class="L"/><path d="M88.494 185.05c-1.4 5.803-3.244 13.015-5.53 21.284 0 .023-.023.07-.023.117 0 .023-.023.047-.023.07-.093.352-.28.893-.327.987v.023l-5.624-.517.817-8.998 2.38-26.358c-7.048-6.883-13.162-11.723-17.736-14.988-2.6-1.856-6.838-4.346-7.28-8.387-.2-1.95.397-4.51 1.424-6.6 0 0 .933-1.903 2.3-3.383 2.894-3.124 12.952-3.17 24.83 1.245l-7.98 8.74.793.963 3.827 4.557 6.208 7.8c1.354 1.81 2.357 3.312 3.057 4.698.35.68.63 1.316.84 1.95 1.05 3.148.77 5.568-1.96 16.797z" fill="#153e5c"/><path d="M82.636 184.698c-1.307 5.497-3.174 9.984-4.854 13.32l2.38-26.358c-7.048-6.883-13.162-11.723-17.736-14.988-2.637-1.903-6.558-4.23-7.28-8.387l-.07-.493c3.36 1.785 8.33 4.628 14.072 8.528 12.532 8.528 14.026 12.216 14.54 13.743 1.447 4.252.537 8.01-1.05 14.636z" fill="url(#G)" opacity=".4"/><path d="M89.614 166.327c-5.858-5.027-14.96-13.038-15.31-14.47-.117-.54.023-.987.023-.987.257-.822 1.2-1.316 2.194-1.62l10.035 12.38c1.354 1.81 2.334 3.312 3.057 4.698z" fill="url(#H)" opacity=".38"/><path d="M110.594 131.9c0 .33-.117.634-.303.987l-.327.61-.5.987c-1.003 2.208-.933 3.453-1.914 6.6-.093.305-.303.987-.607 1a.31.31 0 0 1-.187-.07c-.163-.14-.07-.493-.047-.61.093-.352.373-1.81.817-3.923h-.023l-1.284 4.04c-.093.33-.327.987-.653 1a.45.45 0 0 1-.233-.07c-.233-.188-.093-.68-.047-.87.023-.07.023-.14.047-.21l1.05-4.252c-.023-.023-.07-.023-.093-.047l-1.634 4.346c-.117.305-.373.963-.7.987 0 0-.117 0-.233-.094-.163-.14-.163-1.034 1.634-5.71-.023-.023-.07-.047-.093-.047l-2.147 4.44c-.117.188-.28.33-.443.33 0 0-.117 0-.2-.094-.327-.33.28-1.644.28-1.644.513-1.104 1.307-3.124 2.38-5.92-.2.164-.5.423-.793.8-.42.54-.443.8-.793 1.128-.467.423-1.237.68-1.424.47-.327-.352 1.074-2.067 1.844-2.96l.233-.258.7-.728c.863-.822 1.587-1.245 2.3-1.527.56-.21.98-.258 1.377-.235.747.07 1.727.47 1.96 1.198.023.117.047.235.047.33z" class="J"/><path d="M110.268 132.897l-.327.61-.5.987-5.53-1.363.233-.258.7-.728 5.414.752z" opacity=".1" class="H"/><path d="M110.594 131.9c0 .33-.117.634-.303.987l-.327.61-.5.987c-1.003 2.208-.933 3.453-1.914 6.6-.093.305-.303.987-.607 1a.31.31 0 0 1-.187-.07c-.163-.14-.07-.493-.047-.61.093-.352.373-1.81.817-3.923h-.023l-1.284 4.04c-.093.33-.327.987-.653 1a.45.45 0 0 1-.233-.07c-.233-.188-.093-.68-.047-.87.023-.07.023-.14.047-.21 1.4-3.148 4.34-8.034 5.25-9.49z" fill="url(#I)" class="I"/><path d="M118.88 115.983v.023c-.5 3.195-2.007 6.507-3.337 9.397l-1.284 2.537c-.047.117-.117.21-.163.305l-.35.634c-.047.094-.117.188-.163.282v.023c-.023.047-.047.07-.07.117-.047.07-.093.14-.117.21v.023c-.047.07-.07.14-.117.188l-.2.352c-.98 1.504-1.937 2.702-2.707 3.57a24.5 24.5 0 0 1-1.82-.07l-.98-.07-1.027-.117c-1.26-.164-2.427-.376-3.454-.634l.373-1.457.327-1.245.233-.775.233-.822.117-.4c.023-.094.07-.21.093-.305s.07-.188.093-.282l.257-.822a2.32 2.32 0 0 0 .117-.376c.023-.094.07-.188.093-.282l.07-.21.233-.658c0-.023.023-.047.023-.07.047-.164.117-.33.187-.493.023-.094.07-.188.093-.282l.163-.423c.047-.094.07-.21.117-.33l.14-.33.2-.54c.047-.117.093-.21.117-.33l.14-.33.397-.987.14-.33c.07-.188.163-.376.257-.587l1.074-2.02v-.023c.933-1.597 1.447-2.09 1.237-2.772-.373-1.222-2.497-1.292-6.02-2.138a44.79 44.79 0 0 1-6.814-2.279c-.023-.023-.07-.023-.093-.047l-.513 1.34-.2.54-.817 2.138-1.6 4.323-.793 2.185c-.023.047-.047.094-.047.14l-.163.47-2.38 6.53-2.054 5.732-3.104 8.904-14.26-.893c-.117 0-.257-.023-.373-.023l-13.56-.846.093-2.067.257-5.967h-.117c-.093 0-.2-.023-.35-.047-.093 0-.187-.023-.303-.047s-.233-.023-.35-.047l-.35-.07c-.047 0-.093-.023-.14-.023-.07-.023-.14-.023-.2-.047s-.117-.023-.187-.047l-.443-.094-.28-.07-.583-.164c-.023 0-.023 0-.047-.023l-.653-.21h-.023c-.093-.047-.2-.07-.303-.117l-.327-.14-.677-.305-1.003-.54c-.047-.023-.117-.07-.163-.094l-.5-.33c-.047-.047-.117-.07-.163-.117-.117-.07-.2-.164-.303-.235-.093-.094-.2-.164-.303-.258l-.56-.564-.28-.305c-.047-.047-.093-.117-.14-.164s-.093-.117-.117-.164c-.047-.047-.07-.117-.117-.164a6.23 6.23 0 0 1-.56-.94c-.5-.963-.887-2.28-.723-4.346.023-.352.07-.728.14-1.128.14-.916.397-1.926.77-3.1l.187-.587.35-.94s.093-.258.14-.376c0-.023.023-.047.023-.07.047-.14.117-.282.163-.4.047-.14.117-.282.163-.4l.2-.493.2-.47.2-.446.2-.423a16.14 16.14 0 0 1 .677-1.269l.467-.822c.07-.14.163-.258.233-.4l.2-.352.28-.423.2-.33a2.85 2.85 0 0 1 .233-.329 1.96 1.96 0 0 0 .187-.282c.023-.047.07-.094.117-.14l.163-.235c.023-.023.047-.047.047-.07.047-.07.093-.14.14-.188.023-.023.047-.07.07-.094l.443-.564.257-.33.467-.61.28-.352.443-.517.747-.822 2.147-2.16c.07-.07.163-.14.233-.21l1.914-1.644a1.17 1.17 0 0 0 .187-.164l.747-.587.28-.21c.117-.07.2-.164.303-.235l.07-.07c.023 0 .023-.023.047-.023h.023c.047-.023.093-.07.14-.094l1.074-.728c.023-.023.047-.023.047-.023l.327-.188.257-.14.187-.117.56-.305c.187-.117.397-.21.583-.305.047-.023.117-.047.163-.07l.443-.235c.07-.047.14-.07.2-.094l.467-.21a32.29 32.29 0 0 1 1.587-.681l.42-.164c.093-.023.187-.07.28-.094l.5-.188 2.054-.658c.14-.047.28-.094.443-.117.023 0 .07-.023.093-.023l.28-.07c.07-.023.117-.023.187-.047l.7-.164c.093-.023.163-.047.257-.047.047 0 .093-.023.14-.023l.373-.07h.023c.047 0 .093-.023.14-.023.07-.023.163-.023.233-.047.093-.023.187-.047.303-.047l.42-.07c.047 0 .07 0 .117-.023l.723-.117.7-.094 1.307-.14 2.147-.117c1.634-.047 3.267 0 4.854.117l.537.047.77.07.583.07.56.07 1.097.164.537.094 5.18 1.08c.327.07.63.164.933.258l7.7 2.42 1.867.658c.163.047.327.117.467.164l4.667 1.832c.117.047.233.094.327.164a27.83 27.83 0 0 1 2.054 1.01c.117.047.2.117.327.188l.863.493c.093.07.2.117.303.188 1.564.987 2.964 2.09 4.014 3.406l.327.423c.747 1.034 1.284 2.16 1.564 3.43.117.493.163.987.187 1.504.187.634.117 1.457 0 2.302z" class="K"/><path d="M71.108 135.41c-.817.4-9.265 4.51-14.282 3.83l.257-5.967c-.093 0-.233-.023-.443-.047 2.287-.117 5.74.023 10.385-.846 4.41-.822 7.888-2.185 8.68-2.5 4.247-1.69 6.37-3.29 6.558-3.03.327.4-4.41 5.215-11.155 8.55z" fill="url(#J)" opacity=".5"/><path d="M109.427 120.235c-2.567 3.594-4.34 6.79-5.46 9.02.047-.188.117-.376.163-.54l.28-.987.2-.68c0-.023 0-.023.023-.047.07-.258.163-.517.257-.775s.187-.517.257-.775l.28-.775a13.16 13.16 0 0 1 .327-.869c.07-.21.163-.423.233-.634l.07-.21a75.44 75.44 0 0 1 1.19-2.89c.35-.822.723-1.48 1.074-2.02v-.023c.84-1.363 1.494-2.067 1.237-2.772-.373-1.222-2.497-1.27-6.02-2.138-3-.728-5.368-1.644-6.908-2.326-.023.023-.023.047-.023.047-.047-.023.653-3.195 2.17-3.782 1.307-.517 2.474 1.198 5.134 2.866 4.947 3.1 8.33 1.903 9.055 3.923.513 1.433-1.003 2.843-3.547 6.4z" fill="url(#K)" opacity=".5"/><path d="M79.276 105.41c-2.894-.61-4.714-3.453-5.134-5.897-.257-1.433-.023-2.655.163-3.36l.723-.117c3.477-.493 6.908-.47 10.152-.117.163.68.35 1.69.303 2.9-.047 1.222-.14 4.604-2.474 6.06-1.587 1-3.36.634-3.734.54z" class="N"/><path d="M73.232 96.343c-1.82 2.326-4.247 5.027-7.445 7.635-5.46 4.487-10.922 6.907-14.796 8.246 4.807-7.776 11.6-11.817 11.6-11.817 3.5-2.067 7.094-3.36 10.642-4.064z" fill="url(#L)" opacity=".2"/><path d="M92.695 121.316l-2.614 7.142-5.134 14.636-6.16-.4 11.132-21.026 2.777-.352z" fill="url(#M)" class="B"/><g class="N"><use xlink:href="#f"/><path d="M88.26 133.602l-.2.587-.233-.893-2.66.423c-.093.023-.187-.047-.2-.14s.047-.188.14-.21l2.824-.446c.093-.023.163.047.187.14l.163.54z"/><use xlink:href="#f" x="-10.128" y="-0.54"/><path d="M77.666 141.143c-.047 0-.093-.023-.117-.047-.07-.07-.07-.188-.023-.258l1.82-2.02-1.797-2.044c-.07-.07-.047-.188.023-.258s.187-.047.257.023l1.9 2.16c.07.07.07.164 0 .235l-1.937 2.138c-.023.047-.07.07-.117.07zM76 134.73h-.023c-.093-.023-.163-.117-.14-.2l.653-4.323c.023-.094.117-.164.2-.14s.163.117.14.2l-.653 4.323c-.023.07-.093.14-.187.14zm4.946 2.7c-.047 0-.07-.023-.117-.047-.07-.07-.093-.188-.023-.258l2.824-3.336c.07-.07.187-.094.257-.023s.093.188.023.258l-2.824 3.36c-.023.023-.07.047-.14.047zm-6.72-9.983c-.047 0-.07-.023-.117-.047-.07-.07-.093-.188-.023-.258l2.824-3.336c.07-.07.187-.094.257-.023s.093.188.023.258l-2.824 3.336c-.047.047-.093.07-.14.07zm.795 10.83a.893.893 0 1 0 0 1.785.89.89 0 0 0 .887-.893c0-.493-.42-.893-.887-.893zm0 1.433a.541.541 0 1 1 0-1.081.53.53 0 0 1 .537.54c-.023.282-.257.54-.537.54zm9.333.235c-.07-.235-.233-.4-.443-.517-.187-.094-.42-.117-.607-.047-.023 0-.047 0-.07.023-.233.07-.397.235-.513.446-.093.2-.117.47-.047.68 0 .023.023.047.023.07a1.04 1.04 0 0 0 .187.258.84.84 0 0 0 .233.164.62.62 0 0 0 .28.07h.117a1.14 1.14 0 0 0 .28-.047c.233-.07.397-.235.513-.446a.72.72 0 0 0 .047-.658zm-.35.517a.51.51 0 0 1-.7.235c-.163-.094-.28-.235-.303-.423 0-.094 0-.188.047-.282.093-.188.28-.305.467-.305h.023c.07 0 .14.023.2.047a.56.56 0 0 1 .257.728zM78.786 126.4a.91.91 0 0 0-1.2.423c-.22.446-.023.987.42 1.198a.77.77 0 0 0 .397.094.88.88 0 0 0 .793-.493c.187-.47 0-.987-.42-1.222zm.07 1.057a.51.51 0 0 1-.7.235c-.257-.117-.373-.446-.233-.705.093-.188.28-.305.467-.305.07 0 .163.023.233.047a.54.54 0 0 1 .233.728z"/><use xlink:href="#g"/><path d="M78.366 120.6c-.093 0-.163-.07-.187-.164l-.467-4.346c0-.094.07-.188.163-.188s.187.07.187.164l.467 4.346c.023.07-.047.164-.163.188zm5.484 1.316c-.023 0-.047 0-.07-.023-.093-.047-.117-.14-.093-.235l1.867-3.947c.047-.094.14-.117.233-.094.093.047.117.14.093.235l-1.867 3.947c-.047.094-.117.117-.163.117zm-9.078-7.893c-.023 0-.047 0-.07-.023-.093-.047-.117-.14-.093-.235l1.867-3.947c.047-.094.14-.117.233-.094.093.047.117.14.093.235l-1.867 3.947c-.047.07-.117.117-.163.117zm2.1 6.767a.89.89 0 0 0-.42-.54c-.2-.117-.443-.164-.677-.094-.467.117-.747.6-.63 1.104a.89.89 0 0 0 .42.54.96.96 0 0 0 .443.117c.07 0 .163 0 .233-.023a.9.9 0 0 0 .653-.869c0-.07 0-.14-.023-.235zm-.723.752a.47.47 0 0 1-.397-.047c-.117-.07-.2-.188-.257-.33-.07-.282.093-.587.373-.658.047-.023.093-.023.14-.023a.47.47 0 0 1 .257.07c.117.07.2.188.257.33.093.282-.093.587-.373.658zm6.277-3.854c-.14-.188-.327-.33-.56-.376a.66.66 0 0 0-.303 0 .87.87 0 0 0-.723.705c0 .047-.023.117-.023.164a.88.88 0 0 0 .723.869c.047 0 .117.023.163.023a.88.88 0 0 0 .863-.728c.047-.2 0-.446-.14-.658zm-.2.6c-.047.282-.327.47-.63.423-.28-.047-.467-.33-.42-.634.047-.258.28-.446.513-.446h.093c.14.023.257.117.35.235a.57.57 0 0 1 .093.423z"/><use xlink:href="#h"/><use xlink:href="#g" x="-27.818" y="9.068"/><path d="M65.997 130.125c-.023 0-.047 0-.07-.023-.093-.047-.117-.14-.07-.235l1.237-2.443-2.24-1.504c-.07-.047-.093-.164-.047-.258.047-.07.163-.094.257-.047l2.38 1.597c.07.047.093.14.07.235l-1.307 2.584c-.093.047-.163.094-.2.094zm-3.244-5.78c-.093 0-.163-.07-.187-.164l-.467-4.346c0-.094.07-.188.163-.188s.187.07.187.164l.467 4.346c.023.094-.047.188-.163.188z"/><use xlink:href="#i"/><use xlink:href="#i" x="-9.077" y="-7.893"/><path d="M61.26 124.557a.89.89 0 0 0-.42-.54c-.2-.117-.443-.164-.677-.094-.467.117-.747.6-.63 1.08a.89.89 0 0 0 .42.54.96.96 0 0 0 .443.117c.07 0 .163 0 .233-.023a.9.9 0 0 0 .653-.869c.023-.07 0-.14-.023-.2zm-.7.752a.47.47 0 0 1-.397-.047c-.117-.07-.2-.188-.257-.33-.07-.282.093-.587.373-.658.047-.023.093-.023.14-.023a.47.47 0 0 1 .257.07c.117.07.2.188.257.33.07.282-.093.564-.373.658zm6.254-3.853c-.14-.188-.327-.33-.56-.376-.5-.094-.957.235-1.05.705-.093.493.233.94.7 1.057.047 0 .117.023.163.023a.88.88 0 0 0 .863-.728.78.78 0 0 0-.117-.681zm-.2.6c-.047.282-.327.47-.63.423-.28-.047-.467-.33-.42-.634.047-.258.28-.423.513-.423h.093c.14.023.257.117.35.235s.117.258.093.4zm4.96 14.38c-.07 0-.117-.023-.163-.094l-1.354-2.373-2.474 1.104c-.093.047-.187 0-.233-.094s0-.188.093-.235l2.614-1.15c.093-.047.187 0 .233.07l1.447 2.5c.047.094.023.188-.07.235-.047.047-.07.047-.093.047z"/><use xlink:href="#h" x="-11.856" y="20.508"/><path d="M72.39 138.582l-1.704 3.594c-.117 0-.257-.023-.373-.023l1.774-3.735c.047-.094.14-.117.233-.07.07.047.117.164.07.235z"/><use xlink:href="#i" x="-6.954" y="9.068"/><path d="M68.378 138.042a.88.88 0 0 0-.677.141c-.187.14-.327.33-.373.564-.093.47.233.94.7 1.034.047 0 .117.023.163.023a.88.88 0 0 0 .863-.728c.117-.47-.187-.94-.677-1.034zm.35.987c-.047.282-.327.47-.63.423-.28-.047-.467-.33-.42-.634.023-.14.117-.258.233-.352a.47.47 0 0 1 .303-.094h.093c.303.07.5.352.42.658zm-2.708-6.11c-.093-.14-.2-.235-.373-.305l-.2-.07a.93.93 0 0 0-.747.188.95.95 0 0 0-.303.517c-.093.493.233.94.7 1.057.047 0 .117.023.163.023a.88.88 0 0 0 .863-.728c.093-.235.047-.47-.093-.68zm-.2.6c-.047.282-.327.47-.63.423-.28-.047-.467-.33-.42-.634.047-.258.28-.423.513-.423h.093c.14.023.257.117.35.235s.117.258.093.4zm-10.185-1.784c-.023 0-.047 0-.07-.023-.093-.047-.117-.14-.093-.235l1.867-3.947c.047-.094.14-.117.233-.094.093.047.117.14.093.235L55.8 131.63c-.023.094-.093.117-.163.117zM48.588 119.8l-1.797 3.782a10.57 10.57 0 0 1 .14-1.128l1.33-2.82c.047-.094.14-.117.233-.094.093.07.14.188.093.258zm5.647 7.727c-.14-.188-.327-.33-.56-.376-.5-.094-.933.2-1.05.705a.91.91 0 0 0 .7 1.057c.047 0 .117.023.163.023a.88.88 0 0 0 .863-.728c.07-.235 0-.47-.117-.68zm-.2.6c-.047.282-.327.47-.63.423-.28-.047-.467-.33-.42-.634.047-.258.28-.446.513-.446h.093c.14.023.257.117.35.235.093.14.117.282.093.423zm-2.74-6.083c-.14-.188-.327-.33-.56-.376-.5-.094-.933.235-1.05.705-.047.258.023.517.187.728a.91.91 0 0 0 .467.305c.023 0 .047 0 .07.023.047.023.117.023.163.023a.88.88 0 0 0 .863-.728c.047-.258 0-.493-.14-.68zm-.2.587c-.047.282-.327.47-.63.423-.28-.047-.467-.33-.42-.634.047-.258.28-.423.513-.423h.093c.14.023.257.117.35.235s.117.258.093.4zm3.025-3.78h-.047c-.093-.023-.163-.117-.14-.2l.583-2.678-2.544-.87c-.093-.023-.14-.14-.117-.235s.14-.14.233-.117l2.707.916c.093.023.14.117.117.2l-.607 2.82c-.023.117-.093.164-.187.164zm1.05-4.864h-.023c-.093-.023-.163-.117-.14-.2l.817-4.3c.023-.094.117-.164.2-.14s.163.117.14.2l-.817 4.3c-.047.07-.117.14-.187.14zm-2.405-3.736c-.093-.07-.187-.14-.303-.164-.023.023-.047.047-.047.07l-.163.235a.49.49 0 0 1 .303.117c.117.094.163.235.187.376.023.305-.2.54-.5.564-.14 0-.28-.023-.397-.117-.047-.047-.093-.117-.117-.164v.023l-.2.305c.023.047.07.07.117.117.163.14.373.2.583.2h.07c.2-.023.397-.094.513-.235.2-.188.327-.446.303-.728-.07-.235-.163-.446-.35-.6z"/><use xlink:href="#j"/><path d="M83.313 99.75c-.023 0-.07 0-.093-.023-.093-.047-.117-.164-.07-.235l1.47-2.467c.047-.07.14-.117.233-.07l2.614 1.198c.093.047.14.14.093.235s-.14.14-.233.094l-2.474-1.128-1.377 2.326a.21.21 0 0 1-.163.07zm-22.053 1.574c.023 0 .023-.023.047-.047l-.723 1.222c-.023.047-.093.094-.14.094-.023 0-.07 0-.093-.023-.093-.047-.117-.164-.07-.235l.303-.517.28-.2c.117-.07.2-.164.303-.235l.023-.023c.047 0 .07-.023.07-.023zm3.407-.094c-.047.094-.14.14-.233.094l-1.9-.87c.023-.023.047-.023.047-.023l.327-.188 1.657.752c.093.023.14.14.093.235z"/><use xlink:href="#j" x="-6.838" y="7.517"/><path d="M73.162 113.6c-.093 0-.163-.07-.187-.14l-.397-2.702-2.684.094c-.093 0-.187-.07-.187-.164s.07-.188.163-.188l2.847-.094c.093 0 .163.07.187.14l.42 2.866c.023.094-.047.188-.14.2 0-.023-.023-.023-.023-.023zm-5.975-2.8c-.047 0-.093-.023-.14-.07l-2.894-3.265c-.07-.07-.07-.188.023-.258.07-.07.187-.07.257.023l2.894 3.265c.07.07.07.188-.023.258-.023.047-.07.047-.117.047z"/><use xlink:href="#k"/><use xlink:href="#k" x="-11.949" y="-1.127"/><path d="M65.437 115.7a.93.93 0 0 0-.327-.61c-.187-.14-.42-.2-.653-.188-.047 0-.07 0-.117.023a.87.87 0 0 0-.467.282l-.023.023c-.14.188-.233.423-.187.658a.93.93 0 0 0 .327.61c.163.14.35.2.56.2h.093c.233-.023.443-.14.607-.33.14-.2.2-.446.187-.68zm-.467.423c-.093.117-.2.188-.35.188s-.28-.023-.397-.117-.187-.2-.187-.352a.51.51 0 0 1 .117-.4c.094-.118.2-.188.35-.188h.047c.117 0 .233.047.35.117.117.094.187.2.187.352s-.023.282-.117.4zm4.458-9.63a.96.96 0 0 0-.49-.47c-.093-.047-.2-.047-.303-.047a1.05 1.05 0 0 0-.373.07c-.443.2-.653.728-.443 1.175.14.33.467.517.817.517a1.05 1.05 0 0 0 .373-.07c.443-.188.63-.728.42-1.175zm-.583.87a.54.54 0 0 1-.7-.258.48.48 0 0 1-.023-.399c.047-.14.14-.235.28-.305.07-.023.14-.047.233-.047a.51.51 0 0 1 .187.023c.14.047.233.14.303.282.117.258 0 .564-.28.705zM87.7 119.366c-.023 0-.047 0-.07-.023-.093-.047-.14-.14-.093-.235l1.774-3.994c.047-.094.14-.14.233-.094s.14.14.093.235l-1.774 3.994c-.047.07-.093.117-.163.117zm7.072-14.306c-.047 0-.093-.023-.117-.047l-1.984-1.88-2.054 1.762c-.07.07-.187.047-.257-.023s-.047-.188.023-.258l2.17-1.856a.21.21 0 0 1 .233 0l2.077 1.997c.07.07.07.188 0 .258 0 .023-.047.047-.093.047zm1.983 5.684l-.023.07c-.023-.023-.07-.023-.093-.047l-.513 1.34.233-1.292-2.567-.8c-.093-.023-.14-.117-.117-.2s.117-.14.233-.117l2.73.846c.093.023.14.117.117.2zm-8.215 1.88v-.07c-.023-.117-.047-.235-.117-.33-.023-.047-.07-.094-.117-.14a.85.85 0 0 0-1.097-.141c-.07.047-.117.07-.163.14a.82.82 0 0 0-.233.423v.117c-.023.188.023.376.117.564.163.282.467.423.747.423.163 0 .327-.047.467-.14a.86.86 0 0 0 .397-.564c.023-.07.023-.14.023-.2-.023-.023-.023-.047-.023-.07zm-.35.188c-.047.14-.117.258-.233.33a.58.58 0 0 1-.397.07.48.48 0 0 1-.327-.235c-.07-.118-.093-.235-.07-.352v-.07c.047-.117.117-.235.233-.305a.62.62 0 0 1 .28-.07c.047 0 .093 0 .117.023a.48.48 0 0 1 .327.235c.023.047.047.094.047.14 0 .023 0 .047.023.07v.164zm4.7-5.144c-.187-.14-.42-.2-.653-.188a.89.89 0 0 0-.793.963.93.93 0 0 0 .327.61c.163.14.35.2.56.2h.093c.233-.023.443-.14.607-.33a.95.95 0 0 0 .187-.658 1.2 1.2 0 0 0-.327-.611zm-.163 1.034c-.093.117-.2.188-.35.188s-.28-.023-.397-.117-.187-.2-.187-.352c-.023-.282.187-.564.467-.587h.047a.56.56 0 0 1 .327.117c.117.094.187.2.187.352.047.164 0 .305-.093.4zm-6.5-2.75h-.093c-.233.023-.443.14-.607.33-.14.188-.2.423-.2.658a.93.93 0 0 0 .327.61c.163.14.35.2.56.2h.093c.5-.047.84-.493.793-.987-.047-.47-.42-.822-.863-.822zm.047 1.433c-.14 0-.28-.023-.397-.117s-.187-.2-.187-.352a.51.51 0 0 1 .117-.4c.094-.118.2-.188.35-.188.28-.023.56.188.583.47.023.305-.187.564-.467.587zm3.85-6.8h-.093c-.233.023-.443.14-.607.33a.95.95 0 0 0-.187.658.93.93 0 0 0 .327.61c.163.14.35.2.56.2h.093c.5-.047.84-.493.793-.987-.07-.47-.443-.822-.887-.822zm.047 1.433c-.14 0-.28-.023-.397-.117s-.187-.2-.187-.352a.51.51 0 0 1 .117-.4c.094-.118.2-.188.35-.188a.53.53 0 0 1 .583.493c.047.282-.187.54-.467.564zm-7.375 4.37c-.07 0-.14-.047-.163-.094l-1.144-2.5-2.567.87c-.093.023-.187-.023-.233-.117-.023-.094.023-.188.117-.235l2.707-.916c.093-.023.187.023.2.094l1.214 2.63c.047.094 0 .188-.093.235 0 0-.023.023-.047.023z"/><use xlink:href="#l"/><path d="M75.892 98.34c-.023.047-.093.094-.14.094-.023 0-.07 0-.093-.023l-3.08-1.926c.047 0 .093-.023.14-.023l.373-.07 2.754 1.715c.07.047.093.164.047.235zm4.784 3.547c-.07 0-.117-.047-.163-.094l-1.937-3.923c-.047-.094 0-.188.07-.235.093-.047.187 0 .233.07l1.937 3.923c.047.094 0 .188-.07.235 0 0-.023.023-.07.023zm-4.55 5.24a.96.96 0 0 0-.467-.493.9.9 0 0 0-1.167.47.91.91 0 0 0 .467 1.175.93.93 0 0 0 .35.07.89.89 0 0 0 .817-.54c.093-.235.093-.47 0-.68zm-.327.54a.52.52 0 0 1-.7.282c-.28-.117-.397-.423-.28-.705.093-.2.28-.33.5-.33.07 0 .14.023.2.047.14.047.233.164.28.282a.65.65 0 0 1 0 .423zm1.448-7.046a.89.89 0 0 0-.607-.305c-.14 0-.303.023-.443.07-.07.047-.14.07-.2.14-.187.164-.28.376-.303.6s.07.47.2.658a.89.89 0 0 0 .607.305h.07a.73.73 0 0 0 .49-.164c.023-.023.047-.047.093-.07.397-.305.42-.87.093-1.245zm-.303 1c-.023.023-.047.047-.07.047-.093.047-.2.094-.303.07-.14 0-.28-.07-.373-.188s-.14-.235-.117-.4a.49.49 0 0 1 .187-.376c.047-.023.07-.047.117-.07.07-.047.163-.047.233-.047h.047c.14 0 .28.07.373.188.14.235.117.564-.093.775zm30.734 25.17c-.047.047-.093.047-.14.047s-.093-.023-.117-.047l-1.984-1.88-.117.094c.047-.164.117-.33.187-.493.023 0 .047.023.047.047l2.1 1.997c.093.047.093.14.023.235zm.467 6.32h-.023c-.093-.023-.163-.117-.14-.2l.677-4.323c.023-.094.117-.164.2-.14s.163.117.14.2l-.677 4.323c-.047.094-.117.14-.187.14zm-2.194-3.055a.93.93 0 0 0-.327-.61.85.85 0 0 0-.653-.211c-.5.047-.84.493-.793.987a.93.93 0 0 0 .327.61c.163.14.35.2.56.2h.093c.233-.023.443-.14.607-.33a.95.95 0 0 0 .187-.658zm-.467.423c-.093.117-.2.188-.35.188a.5.5 0 0 1-.397-.117c-.117-.094-.187-.2-.187-.352-.023-.282.187-.564.5-.587h.047a.56.56 0 0 1 .327.117c.117.094.187.2.187.352.023.164-.023.305-.117.4zm1.564-9.844c-.07.094-.117.2-.163.33a.54.54 0 0 1 .397.47c.023.305-.187.564-.467.587-.117 0-.2 0-.327-.07l-.14.33a.77.77 0 0 0 .397.094h.093c.5-.047.84-.493.793-.987a.86.86 0 0 0-.583-.752z"/><use xlink:href="#l" x="12.765" y="21.78"/><path d="M92.648 121.456c-.047.164-.117.305-.163.47l-1.12-2.28c-.047-.094 0-.188.07-.235s.187 0 .233.07l.98 1.973zm-3.758 7.448a.96.96 0 0 0-.467-.493.9.9 0 0 0-1.167.47.91.91 0 0 0 .467 1.175.93.93 0 0 0 .35.07.89.89 0 0 0 .817-.54c.093-.2.093-.47 0-.68zm-.327.54a.52.52 0 0 1-.7.282c-.28-.117-.397-.423-.28-.705.093-.2.28-.33.5-.33.07 0 .14 0 .2.047.14.047.233.164.28.282a.65.65 0 0 1 0 .423zm1.47-7.024a.83.83 0 0 0-.373-.258c-.047-.023-.093-.023-.14-.047-.023 0-.07 0-.117-.023-.233-.023-.467.07-.653.2-.187.164-.28.376-.303.6s.07.47.2.658l.14.14c.14.094.303.164.467.164h.2a.79.79 0 0 0 .443-.21c.397-.33.42-.893.117-1.245zm-.327.987c-.07.047-.117.094-.2.117-.047.023-.117.023-.187.023-.117 0-.233-.047-.303-.14-.023-.023-.047-.023-.047-.047-.093-.117-.14-.235-.14-.4a.49.49 0 0 1 .187-.376.51.51 0 0 1 .35-.14h.047c.023 0 .07 0 .093.023h.023a.43.43 0 0 1 .233.164.58.58 0 0 1-.047.775zm22.1-3.525c-.023 0-.047 0-.07-.023-.093-.047-.14-.14-.093-.235l1.774-3.994c.047-.094.14-.14.233-.094s.14.14.093.235l-1.774 3.994c-.023.094-.093.117-.163.117zm7.072-3.9v.023l-.117.6c-.023.094-.093.14-.163.14h-.023c-.093-.023-.163-.117-.14-.2l.513-2.678-2.567-.8c-.093-.023-.14-.117-.117-.2s.117-.14.2-.117l2.6.8c0 .775-.07 1.597-.187 2.443zm-5.02-3.83c-.07 0-.14-.047-.163-.117l-1.68-4.04c-.047-.094 0-.188.093-.235s.187 0 .233.094l1.68 4.04c.047.094 0 .188-.093.235-.023.023-.047.023-.07.023zm-4.526-9.28l-.607 3.853c-.023.094-.093.14-.187.14h-.023c-.093-.023-.163-.117-.14-.2l.63-3.97.327.188zm7.98 5.944c0-.07-.023-.14-.047-.2l-.327-.423a.84.84 0 0 0-.583-.141c-.5.047-.84.493-.793.987a.93.93 0 0 0 .327.61c.163.14.35.2.56.2h.093c.233-.023.443-.14.607-.33.117-.235.187-.47.163-.705zm-.467.423c-.093.117-.2.188-.35.188s-.28-.023-.397-.117-.187-.2-.187-.352c-.023-.282.187-.564.467-.587h.047c.117 0 .233.047.35.117.117.094.187.2.187.352s-.047.282-.117.4zm-4.248-4.675c-.023.094-.047.164-.117.235-.093.117-.2.188-.35.188s-.28-.023-.397-.117-.187-.2-.187-.352a.51.51 0 0 1 .117-.4l.07-.07-.327-.188s0 .023-.023.023a.95.95 0 0 0-.187.658.93.93 0 0 0 .327.61c.163.14.35.2.56.2h.093c.233-.023.443-.14.607-.33.07-.094.117-.188.163-.282l-.35-.188zm-2.52 7.894c-.07 0-.14-.047-.163-.094l-1.144-2.5-2.567.87c-.093.023-.187-.023-.233-.117-.023-.094.023-.188.117-.235l2.707-.916c.093-.023.187.023.2.094l1.214 2.63c.047.094 0 .188-.093.235 0 .023-.023.023-.047.023zM97.34 99.773c-.023.047-.093.094-.14.094-.023 0-.07 0-.093-.023l-3.7-2.302c-.047-.023-.07-.07-.07-.117.327.07.63.164.933.258l3 1.88c.093.023.14.14.07.2zm7.537 2.63c-.023 0-.047.023-.07.023-.07 0-.117-.047-.163-.094l-.793-1.597c.163.047.327.117.467.164l.63 1.27c.07.07.023.188-.07.235zm-.607 8.036c-.07 0-.117-.047-.163-.094l-1.937-3.923c-.047-.094 0-.188.07-.235.093-.047.187 0 .233.07l1.937 3.923c.047.094 0 .188-.07.235-.023.023-.047.023-.07.023zm-4.037-2.773a.96.96 0 0 0-.467-.493.9.9 0 0 0-1.167.47.91.91 0 0 0 .467 1.175.93.93 0 0 0 .35.07.89.89 0 0 0 .817-.54c.093-.235.093-.47 0-.68zm-.327.54a.52.52 0 0 1-.7.282c-.28-.118-.397-.423-.28-.705.093-.2.28-.33.5-.33.07 0 .14.023.2.047.14.047.233.164.28.282a.45.45 0 0 1 0 .423zm1.47-7.047a.89.89 0 0 0-.607-.305c-.234-.023-.467.07-.653.2-.187.164-.28.376-.303.6s.07.47.2.658a.89.89 0 0 0 .607.305h.07c.2 0 .42-.07.583-.2a.9.9 0 0 0 .093-1.269zm-.327.987c-.117.094-.233.14-.397.117-.14 0-.28-.07-.373-.188a.64.64 0 0 1-.14-.399.49.49 0 0 1 .187-.376c.093-.094.2-.14.35-.14h.047c.14 0 .28.07.373.188.2.282.187.6-.047.8zm13.7 24.5c-.023 0-.07 0-.093-.023l-3.687-2.302c-.093-.047-.117-.164-.047-.235.047-.094.163-.117.233-.047l3.687 2.302c.093.047.117.164.047.235-.023.047-.07.07-.14.07zm-.606 1.222a.9.9 0 0 0-1.167.47.9.9 0 0 0 .373 1.128c.047-.07.07-.14.117-.2a.5.5 0 0 0 .07-.117.53.53 0 0 1-.233-.681c.093-.2.28-.33.5-.33.07 0 .14 0 .2.047.023 0 .047.023.07.047l.163-.305c-.023 0-.07-.023-.093-.047zm1.6-6a.89.89 0 0 0-.607-.305c-.234-.023-.467.07-.653.2-.187.164-.28.376-.303.6s.07.47.2.658a.89.89 0 0 0 .607.305h.07c.2 0 .42-.07.583-.2.373-.33.397-.893.093-1.27zm-.327.987c-.117.094-.233.14-.397.14-.14 0-.28-.07-.373-.188a.58.58 0 0 1-.14-.376.49.49 0 0 1 .187-.376c.093-.094.2-.14.35-.14h.047c.14 0 .28.07.373.188a.55.55 0 0 1-.047.752zm-51.552-19.124a.86.86 0 0 0-.793-.517 1.05 1.05 0 0 0-.373.07c-.443.2-.63.728-.443 1.175.14.33.467.517.817.517a1.05 1.05 0 0 0 .373-.07c.443-.2.63-.728.42-1.175zm-.583.846a.54.54 0 0 1-.7-.258c-.117-.258 0-.587.257-.705a.53.53 0 0 1 .7.258c.14.258.023.587-.257.705z"/></g><path d="M89.685 112.788l-.023.564c0-.376-.28-.68-.63-.68l-4.714-.07c-.35 0-.63.305-.63.68v-.564c0-.376.28-.68.583-.658l4.83.07c.327-.047.583.282.583.658z" class="E"/><path d="M89.03 112.577l-4.714-.07c-.35 0-.63.258-.63.587l-.047 2.725-.023 1.785-.093 6.648c.047.282.303.493.607.493l4.714.07c.35 0 .63-.258.63-.587l.163-11.065c.023-.33-.257-.587-.607-.587z" fill="url(#N)"/><path d="M89.894 118.92a1.13 1.13 0 0 1 .21.634c0 .235-.117.446-.28.634-.07.094-.163.188-.28.305-1.26 1.27-3.71 2.537-3.71 2.537a11.41 11.41 0 0 1-1.354.705c-.023 0-.047.023-.07.023-.117.047-.2.094-.303.14-.257.117-.467.21-.63.235-.047.023-.093.023-.14.023-.863.117-1.6-.423-1.984-.705-.303-.21-1.47-1.08-1.6-2.514-.07-.775.163-1.4.513-1.997a10.15 10.15 0 0 1 .933-1.245c.863-1.057 1.844-1.62 2.45-1.926l-.023 1.785c-.187.282-.397.775-.257.963.047.07.14.094.233.094.607.047 1.26-.376 1.377-.446.9-.587 1.564-1.175 1.867-1.433l.84-.775c.28-.282 1.54-1.55 2.077-1.715.047-.023.14-.047.257 0 .14.047.233.188.257.33.047.188-.117.423-.443.846-.117.164-2.17 2.255-2.497 2.56l-1.494 1.198 1.12-.68c.607-.423 1.2-.822 1.797-1.457.5-.517.677-.822.84-.846h.047c.233.07.42.658.257 1-.07.14-.187.21-.2.352v.07c0 .094.07.094.163.258.047.07.14.258.14.47.023.164.023.352-.093.564z" class="J"/><path d="M84.13 123.923c-.35.164-.56.235-.77.282-.863.117-1.6-.423-1.984-.705-.303-.21-1.47-1.08-1.6-2.514-.07-.775.163-1.4.513-1.997-.14 2.114.817 3.994 2.357 4.675a4.54 4.54 0 0 0 1.494.258z" opacity=".1" class="H"/><path d="M90.104 119.554c0 .235-.117.446-.28.634-.07.094-.163.188-.28.305-1.26 1.27-3.71 2.537-3.71 2.537a11.41 11.41 0 0 1-1.354.705c-.023 0-.047.023-.07.023-.117.047-.2.094-.303.14-.257.117-.467.21-.63.235 2.264-1.386 4.854-4.675 6.208-6.53v.07c0 .094.07.094.163.258.047.07.14.258.14.47 0 .094 0 .258-.117.47.117.164.233.4.233.68z" fill="url(#O)" class="I"/><path d="M84.06 89.883l-.187 3.5-.163 3.64-.14 2.75c-.14 1.762-.373 2.584-1.097 3.148-1.167.916-3.057.68-4.247 0-2.73-1.574-2.684-6.038-2.66-6.954 0-.14.42-5.168.537-6.578l7.958.493z" class="J"/><path d="M83.873 93.383l-.163 3.64-.14 2.75c-3.524 1.15-4.457-6.86-4.457-6.86l4.76.47z" class="H I"/><path d="M87.794 91.997c0 .634-.047 1.832-.9 2.796-.98 1.08-2.45 1.245-3.057 1.292-3.944.352-7.258-3.665-7.725-4.252L74.89 85.5c-.9-4.205-1.307-4.9-.817-5.897 1.4-2.82 8.005-4.11 11.575-1.597 1.097.775 1.657 2.067 1.937 4.04.023.117.047.258.047.4l.07.752c.2 2.185.163 5.074.093 8.8z" class="J"/><g class="L"><path d="M85.064 92.28c-.14 0-.28 0-.443-.047-1.074-.188-1.68-1-1.82-1.27-.023-.047-.023-.117.023-.14s.117-.023.14.023c.14.235.7 1 1.68 1.175.56.094 1.027-.023 1.33-.164.047-.023.117 0 .14.047s0 .117-.047.14c-.2.14-.583.235-1.003.235z"/><circle cx="82.893" cy="84.785" r="1"/><circle cx="86.581" cy="84.574" r="1"/></g><path d="M84.853 83.986s2.007 4.863 1.377 4.98-2.1-.634-2.1-.634l.723-4.346z" fill="#c5856e"/><g class="L"><path d="M80.522 82.488l3.356-.188.04.75-3.356.188zm7.202.676l-1.9-.14.047-.728 1.774.117.07.752z"/><path d="M75.915 92.303c.957-.164.187-7.73 1.097-7.846.303-.047 1.003.8 1.097 1.644.047.446-.07.822.187 1.104.187.188.537.235.723.188 1.097-.352-.863-5.45 1.097-7.283 1.074-1 2.077.117 5.438-1.104.607-.21 2.357-.893 3.267-2.373.2-.33.63-1.034.373-1.644-.023-.07-.187-.423-.537-.54-.5-.164-.77.352-1.984.916-.467.21-1.937.728-1.447.54.28-.188 1.68-1.128 1.727-2.63 0-.07.047-1.175-.467-1.386-.443-.188-.9.493-1.984 1.104-.77.423-1.47.634-1.984.728.653-.61.863-1.433.537-1.997-.023-.047-.28-.517-.723-.54-.723-.07-1.4 1.08-1.634 1.457-1.774 2.796-5.228 2.09-7.07 4.557-1.167 1.574-.887 3.547-.373 7.47.467 3.876 1.96 7.752 2.66 7.635z"/></g><path d="M78.67 86.453c-.14.893-.84 1.69-1.797 1.738-1.097.047-1.984-.916-1.984-1.997a2.04 2.04 0 0 1 .513-1.339c.373-.423.9-.68 1.47-.658.9.047 1.6.775 1.774 1.597.023.07.023.14.023.21a1.43 1.43 0 0 1 0 .446z" class="J"/><path d="M78.67 86.453a3.16 3.16 0 0 1-.327.846l-2.964-2.443c.373-.423.9-.68 1.47-.658.9.047 1.6.775 1.774 1.597.023.07.023.14.023.21.047.14.047.282.023.446z" opacity=".1" class="H"/><path d="M76.966 85.302a.66.66 0 0 0-.56.188c-.303.282-.257.752-.187 1.48l.187 2.02h.373v-2.067a.51.51 0 0 0 .187.023c.397 0 .723-.376.723-.822.023-.423-.327-.775-.723-.822z" class="E"/><path d="M176.288 208.613c-.047.14-.2.33-1.167.4-.187.023-.373.023-.63.047h-3.057c-.2 0-.397 0-.63-.023l-1.6-.07-1.447-.094c-.187-.023-.397-.023-.63-.047l-2.707-.21-1.587-.117c-1.984-.188-2.544-.282-2.87-.564l-.14-.14c-.513-.68-.373-1.738.14-3.57l.7-2.373 1.074-3.03 1.097.094.63.07 2.007.188c-1.003 3.03-.56 4.487.047 5.24.397.493.933.822 1.6 1.057.2.07.397.14.63.188.933.235 1.984.352 3.057.47l.63.07c1.074.14 2.147.352 3.057.752a8.09 8.09 0 0 1 .63.329c.303.188.583.4.817.634.2.21.42.47.35.705z" class="N"/><path d="M159.975 204.196v3.735l-.14-.14c-.513-.68-.373-1.762.14-3.594z" class="O"/><path d="M163.453 198.957v9.585l-.63-.047V198.9c.2 0 .42.023.63.047z" class="E"/><path d="M167.747 205.653v3.242c-.187-.023-.397-.023-.63-.047v-3.383l.63.188z" class="O"/><path d="M171.434 206.193v2.866c-.2 0-.397 0-.63-.023v-2.913l.63.07z" class="E"/><path d="M175.12 207.274v1.762c-.187.023-.373.023-.63.047v-2.138a3.22 3.22 0 0 1 .63.329z" class="O"/><path d="M179.486 145.418c-2.497 2.9-3.127 3.195-8.868 9.28l-4.714 5.098c-1.424-.164-3.22-.54-5.32-1.15-1.704-.493-3.617-1.104-5.648-1.856-5.484-1.997-10.968-4.933-10.968-8.8-.42-.846-.63-1.48-.63-2.185 0-1.48.933-3.265 2.94-7.682l2.124-4.84c-.07 1.245.023 3.242 1.307 4.393 1.447 1.27 3.804.94 5.74.376a6.53 6.53 0 0 0 .723-.235s.63-.21 1.26-.47c2.474-.987 20.7-12.71 27.538-7.964.327.21 1.284.893 1.774 2.138 1.494 3.665-2.66 8.575-7.258 13.907z" fill="#aac0dc"/><path d="M159.44 156.295c-.047 0-.093-.023-.14-.07-.07-.07-.047-.188.023-.258 8.215-7.26 14.096-12.756 17.48-16.327 3.547-3.76 3.57-4.65 3.43-4.84-.373-.517-3.314.893-6.698 2.514l-4.27 2.02c-8.75 4.017-17.83 7.33-26.978 9.82-.093.023-.187-.023-.2-.117s.023-.188.117-.21c9.148-2.5 18.203-5.803 26.93-9.82 1.564-.705 2.987-1.4 4.27-2.02 4.55-2.185 6.58-3.124 7.118-2.396.327.423.2 1.4-3.454 5.31-3.384 3.594-9.265 9.092-17.503 16.35-.023.047-.07.047-.117.047z" opacity=".5" class="H"/><path d="M172.39 152.818l-12.042-11.135-4.2-3.876-.723.235c-1.96.564-4.294.893-5.74-.376-1.284-1.128-1.377-3.124-1.307-4.393l-2.124 4.84c-1.984 4.44-2.94 6.202-2.94 7.682 3.664 4.323 11.832 9.608 17.246 12.85 2.1.587 3.897.987 5.32 1.15l6.51-6.977z" fill="url(#P)" opacity=".36"/><path d="M168.797 184.98l-1.9 8.998-1.96 7.682-2.847.117-1.4.07c.373-11.394.28-18.02 0-22.13-.117-1.55-.443-5.85.35-11.417.187-1.292.397-2.35.537-3.03-3.71-.14-9.008-.634-15.122-2.35l-3.664-1.08c-6.16-1.903-14.352-5.12-15.052-10.266-.233-1.69.723-4.698 2.077-7.588l.56-1.175c.723-1.4 1.494-2.772 2.264-3.9a67.57 67.57 0 0 0 3.267-5.427l12.51-.188-1.914 9.68a100.54 100.54 0 0 0 13.652 8.528c6.978 3.594 8.098 3.148 9.802 5.24 2.847 3.453 2.357 9.68-1.167 28.238z" class="D"/><path d="M163.663 197.924c-.023 0-.023 0 0 0-.117-.023-.187-.094-.187-.21.723-6.038 1.33-12.24 1.797-18.37.7-9.303 1.097-14.424.047-16.327-2.824-5.074-9.568-5.944-16.056-6.766-6.138-.8-11.925-1.527-13.91-5.78-1.47-3.17-.397-7.61 3.22-13.203.047-.094.163-.094.257-.047s.117.164.047.258c-3.547 5.474-4.62 9.796-3.197 12.85 1.9 4.064 7.585 4.816 13.63 5.59 6.58.846 13.395 1.715 16.313 6.954 1.074 1.903.77 6.437 0 16.515-.467 6.155-1.074 12.333-1.797 18.394 0 .07-.093.14-.163.14z" opacity=".5" class="H"/><path d="M142.776 161.816c-6.16-1.903-14.352-5.12-15.052-10.266-.233-1.69.723-4.698 2.077-7.588.443 2.326 1.354 5.497 3.407 8.786 2.87 4.675 6.698 7.47 9.568 9.068z" fill="url(#Q)" opacity=".36"/><path d="M160.676 201.823c.373-11.394.28-18.02 0-22.13-.117-1.55-.443-5.85.35-11.417.187-1.292.397-2.35.537-3.03 0 0 .35 1.738.513 36.53-.443.023-.933.023-1.4.047z" fill="url(#R)" opacity=".36"/><path d="M181.516 112.34c-2.38 1.08-3.944.752-5.204 1.128a2.63 2.63 0 0 0-1.19.705 2.34 2.34 0 0 0-.28.33 3.98 3.98 0 0 0-.7 1.574 6.17 6.17 0 0 0-.14 1.597l-.163 1.245-3.57-.587c.28-1.95.863-3.336 1.47-4.323v-.023c.257-.4.513-.752.747-1 .327-.376.607-.634.793-.8.163-.14.327-.258.5-.376 2.077-1.48 4.714-1.8 6.138-2.702.14-.094.677-.446.863-.282.093.094.047.282.047.352-.117.54-.84 1.198-1.6 1.762 1.097.33 1.937.2 2.357.117 0 0 .443-.094 1.097-.47a7.96 7.96 0 0 0 2.357-2.09c.63-.8.77-1.222.933-1.198.14.023.2.305.2.33.28 1.222-2.007 3.524-4.644 4.722zm-58.6 35.028c0 .446-.023 1.433-.14 2.5-.187 1.785-.653 3.806-1.75 4.088-.07.023-.117.023-.187.023-.467.188-4.83.164-4.854-.164 0-.023 0-.023.023-.047a2.09 2.09 0 0 1 .7-.54c.2-.07.677-.164 1.284-.188-.443-.282-1.47-.87-2.077-.822l-.257.047c-.35.117-.537.47-2.007 1.27-.653.376-1.424.752-2.264.564-.093-.023-.373-.07-.373-.188-.023-.2 1.05-.258 2.077-.752 1.097-.517 1.097-1.057 1.9-1.527 1.774-1.08 3.524.54 4.714-.188.397-.258.793-.8.863-2.067.023-.54 0-1.222-.093-2.044l-.2-1.386 2.637 1.15c0 .094.023.164.023.282z" class="M"/><g class="H"><path d="M174.84 114.526a3.98 3.98 0 0 0-.7 1.574l-2.404-2.1c.257-.4.513-.752.747-1a4.91 4.91 0 0 0 1.144.987c.42.258.84.423 1.214.54zm-51.924 32.842c0 .446-.023 1.433-.14 2.5l-2.217-.446a13.41 13.41 0 0 0-.093-2.044h2.45z" class="I"/><path d="M174.21 116.123c-.14 2.913-.56 5.24-.887 6.79-.84 3.9-2.544 11.84-6.744 12.592-.117.023-.42.07-.817.047-3.78-.258-7-6.93-9.918-13.132l-.28-.61c-.863-1.832-1.494-3.43-1.914-4.65a60.6 60.6 0 0 0-.42 2.396l-1.027 6.484c-.023.21-.07.4-.093.61-.607 4.37-.653 5.12-1.354 6.202-2.1 3.29-8.54 4.276-12.602 2.75-1.2-.446-2.17-1.104-2.8-1.973-.023-.047-.07-.094-.093-.14s-.07-.094-.093-.14-.047-.07-.07-.117c-.677-1.316-.257-2.702-.327-6.625v-.54c-.093-4.205-.677-7.61-1.144-9.867-.257.352-.63.916-1.097 1.62 0 0-2.614 3.994-4.434 7.8-1.494 3.124-3.617 10.172-4.76 19.78l-.397 3.806-2.3-.188c-1.2-5.544-1.26-10.243-1.074-13.58 0 0 .747-12.92 7.305-23.328.56-.893 1.144-1.715 1.144-1.715.723-.987 1.354-1.856 2.077-2.608a8.14 8.14 0 0 1 2.544-1.832c2.054-.963 3.64-.705 5.39-2.138.35-.282.653-.587.9-.893.7-.846 1.12-1.762 1.377-2.467 1.307.235 2.707.47 4.154.634 1.447.188 2.824.305 4.13.376.047.87.28 2.114 1.144 3.1 1.424 1.597 3.43 1.198 5.39 1.926.2.07.42.164.63.305 2.987 1.715 4.644 5.99 4.947 6.883l1.377 4.064c0 .023 0 .023.023.047 2.404 7.19 2.87 8.528 3.547 8.55.42 0 .723-.47 1.214-1.574.677-1.55 1.68-4.3 3.757-8.598.443-.916.817-1.644 1.074-2.138l2.147 1.856c.14.047.257.14.373.235z"/></g><path d="M138.156 135.575c-1.2-.446-2.17-1.104-2.8-1.973-.023-.047-.07-.094-.093-.14s-.07-.094-.093-.14-.047-.07-.07-.117c-.677-1.316-.257-2.702-.327-6.625v-.54c-.093-4.205-.677-7.61-1.144-9.867l-1.097 1.62s-2.614 3.994-4.434 7.8c-1.494 3.124-3.617 10.172-4.76 19.78-.2-3.97.023-7.306.327-9.773 1.33-10.783 5.298-16.398 6.394-17.854 1.774-2.396 3.08-4.135 4.364-3.9 3.15.587 3.734 11.934 3.734 21.73z" fill="url(#S)" opacity=".52"/><path d="M155.845 122.42l-.28-.61c-.863-1.832-1.494-3.43-1.914-4.65l-.42 2.396-1.027 6.484c-1.587.376-3.757.117-6.698-1.128-12.602-5.356-2.357-22.012-2.357-22.012l19.02 14.87c-.117.493-.56 2.138-2.124 3.383-1.797 1.386-3.734 1.292-4.2 1.27z" fill="#0b1d36" opacity=".6"/><path d="M138.552 105.6c-1.26 3.547-8.658 5.732-11.67 6.484.373-.587.747-1.175 1.144-1.715 1.447-1.997 2.544-3.5 4.62-4.464 2.054-.963 3.64-.705 5.39-2.138.35-.282.653-.587.9-.893.093.752 0 1.644-.397 2.725z" fill="url(#T)" opacity=".1"/><path d="M173.86 115.84c-.047.423-.163.87-.373 1.363-1.284 3.195-4.737 6.13-6.604 7.54.677-1.55 1.68-4.3 3.757-8.598.443-.916.817-1.644 1.074-2.138.723.587 1.447 1.222 2.147 1.832z" fill="url(#U)" opacity=".07"/><path d="M166.58 135.504c-.28.047-.56.07-.817.047-3.897-.258-7.21-7.377-10.198-13.743-.863-1.832-1.494-3.43-1.914-4.65a60.6 60.6 0 0 0-.42 2.396c-.42-2.42-.677-5.615.607-6.272 1.774-.916 10.245 16.844 12.742 22.224z" fill="url(#V)" opacity=".52"/><path d="M148.96 99.538l-.583 2.326-8.285-.775c0-.047.023-.07.023-.117l.35-1.433v-.047c.023-.094.047-.188.047-.258l.14-.658 4.247.493.443.047 3.617.423z" class="M"/><path d="M146.067 98.88l-.677.235-5.228 1.856.35-1.433v-.047c.023-.094.047-.188.047-.258l3.734-.235 1.027-.07.747-.047z" class="H I"/><g class="M"><path d="M139.79 90.235a8.43 8.43 0 0 1-1.097 1.433c-.56.587-.9.775-.9 1.104 0 .282.28.705 1.634 1.222l.373-3.76z"/><path d="M151.878 93.29a9.38 9.38 0 0 1-1.097 2.044c-.117.164-.537.68-1.214 1.27-2.52 2.185-5.764 2.63-5.764 2.63-1.82.258-2.87.4-3.687-.258-.747-.587-.98-1.55-.957-2.843v-.188c.023-.987.163-2.16.327-3.5.443-3.43.747-5.944 2.6-7.565.817-.705 2.38-1.644 3.85-1.88l.5-.07c.84-.094 1.914-.21 2.94.282 3.127 1.48 3.827 6.6 2.52 10.078z"/></g><g fill="#000"><circle cx="141.423" cy="90.282" r="1"/><path d="M141.05 87.768c.023-.094.677-.094 1.26.188.583.305.957.822.887.916-.047.047-.2-.07-1.214-.587l-.933-.517zm.816 7.588c-.537.376-1.144.6-1.774.728a4.15 4.15 0 0 1-.933.047v-.188c.303.023.607 0 .9-.047a4.05 4.05 0 0 0 1.704-.705c.047-.023.093-.023.117.023s.023.117-.023.14z"/></g><path d="M163.01 116.405c-.187.352-.42.68-.723 1l-.07.07c-.747.775-1.774 1.4-3 1.856-.047.023-.07.023-.117.047-3.314 1.222-7.888 1.27-11.53-.258-.093-.047-.187-.07-.28-.117-1.54-.705-2.894-1.668-3.874-2.984-.327-.423-.583-.87-.817-1.34-.023-.023-.023-.07-.047-.094-2.544-5.333.817-12.498 1.68-14.33a22.98 22.98 0 0 1 1.517-2.725c.023-.023.047-.07.07-.094 1.634-2.467 3.454-4.182 4.737-5.24-.467 0-1.167-.07-1.914-.376-.42-.188-.817-.4-1.144-.658l-.07-.07c-.677-.54-1.2-1.245-1.727-2.044-.023-.023-.023-.047-.047-.07-.117-.164-.2-.33-.327-.493-.303-.47-.7-1.034-1.144-1.69-.023-.023-.023-.047-.047-.07l-1.517-2.208c-.023-.023-.023-.047-.047-.07a23.45 23.45 0 0 1-.77-1.128c.28-.235 1.47-1.128 3.034-.916.513.07.957.258 1.26.423.35-.164.77-.305 1.214-.423 0 0 1.424-.33 2.917-.07.653.117 1.33.376 1.984.752.023.023.07.023.093.047a10.2 10.2 0 0 1 3.874 4.417c1.844 4.017-.583 6.343-.747 9.82v.258c-.023.775.093 1.597.373 2.537 1.447 4.628 5.274 4.675 7.118 10.454.233.728.537 1.738.653 2.796v.094c.023.94-.07 1.95-.56 2.9z" fill="url(#W)"/><path d="M147.304 99.726c-.583 1.62-.187 3.03.257 4.534.233.775.443 1.597.537 2.42.14 1.433-.2 2.913-.98 4.182-.28.47-.677.846-1.074 1.222-.35.352-.7.705-.98 1.128-.607.916-.537 1.997.14 3.242.7 1.245 1.844 2.232 2.3 2.608l.07.07c-.093-.047-.187-.07-.28-.117-.933-.8-3.827-3.524-2.3-5.826.28-.423.653-.8 1.003-1.128.373-.376.77-.752 1.05-1.198a6.69 6.69 0 0 0 .98-4.135c-.093-.846-.303-1.644-.537-2.42-.42-1.527-.84-2.96-.233-4.604.467-1.292 1.4-2.255 2.3-3.195.863-.893 1.75-1.785 2.217-2.96 0-.023.047-.023.047-.023.023 0 .023.047.023.047-.467 1.198-1.377 2.114-2.24 3.007-.9.916-1.844 1.856-2.3 3.148zm4.644-8.48c-.023 0-.047 0-.047-.023a1.38 1.38 0 0 0-.77-.728c-.933-.33-2.38.094-3.664.658l-.07-.07c1.33-.587 2.8-1 3.78-.68.397.14.677.4.84.775-.047.023-.047.047-.07.07zm7.258 28.097c-.047.023-.07.023-.117.047-2.45-1.128-5.624-3.17-7.77-6.883-2.217-3.83-2.404-7.8-2.3-9.843a19.62 19.62 0 0 1 .35-2.866c0-.023.023-.047.047-.023.023 0 .047.023.047.047a19.7 19.7 0 0 0-.35 2.843c-.093 2.02.093 6 2.3 9.796 2.147 3.712 5.344 5.78 7.795 6.883zm-5.578-25.512c-.793 1.597-2.007 2.913-3.197 4.205l-.467.517-.023.023h-.023c-.023-.023-.023-.047 0-.07l.467-.517c1.167-1.27 2.404-2.608 3.174-4.182.537-1.386 1.214-3.923-.513-5.474-1.634-1.644-3.78-.752-5.858.117l-1.517.587c-.023-.023-.023-.047-.047-.07.5-.164 1.003-.376 1.54-.6 2.1-.87 4.294-1.785 5.95-.094 1.75 1.574 1.074 4.158.513 5.568zm8.682 23.562l-.07.07c-1.774-.54-2.917-1.363-3.454-2.467-.2-.446-.303-.893-.373-1.316-.117-.587-.2-1.15-.677-1.715-.56-.728-1.447-1.198-2.637-1.4-.023 0-.047-.023-.023-.047 0-.023.023-.047.047-.047 1.2.2 2.1.705 2.684 1.457.467.587.583 1.15.7 1.762.07.423.163.846.373 1.292.513 1.057 1.657 1.88 3.43 2.42zm-8.45-8.082c-.023 0-.023 0-.023-.023-1.2-1.27-1.774-2.537-1.797-3.782 0-.728.187-1.292.397-1.903.257-.752.513-1.527.5-2.725-.023-.634-.093-.94-.187-1.222-.07-.258-.14-.493-.163-.916-.117-1.785.84-3.007 1.75-4.205.747-.963 1.494-1.95 1.704-3.218.28-1.7-.513-3.618-2.334-5.7-.023-.023-.023-.047 0-.07s.047-.023.07 0c1.844 2.114 2.637 4.064 2.357 5.78-.2 1.292-.98 2.28-1.727 3.242-.9 1.175-1.844 2.396-1.727 4.158.023.4.093.634.163.893.093.305.187.6.187 1.245.023 1.222-.257 2.044-.5 2.772-.2.6-.397 1.175-.397 1.88 0 1.222.607 2.467 1.75 3.712.023.023.023.047 0 .07 0 .023-.023.023-.023.023zm-2.286-24.596c0 .023-.023.047-.047.047h-.047a9.99 9.99 0 0 0-2.054.235c-1.657.352-3.454.94-5.32 1.762-.023-.023-.023-.047-.047-.07 1.867-.822 3.664-1.433 5.344-1.762.817-.164 1.494-.235 2.124-.235.023-.023.047 0 .047.023zm.63-1.597c-.98.517-1.867.68-2.614.47-.233-.07-.443-.164-.63-.235-.28-.14-.56-.258-.957-.282-.63-.047-1.284.2-1.914.705l-.023.023h-.023c-1.424-.352-2.8.258-3.5.705-.023-.023-.023-.047-.047-.07.723-.446 2.1-1.08 3.547-.705.653-.517 1.33-.752 1.96-.705.42.023.7.164 1.003.305.187.094.373.188.607.235.723.188 1.564.047 2.52-.446 0-.023.047-.023.07 0zM163.5 113.47c-1.354-.423-2.147-1.88-2.24-2.067 0-.023 0-.047.023-.047s.047 0 .047.023c.093.188.84 1.574 2.147 1.997 0 .047.023.07.023.094zm-2.824-2.96s-.023.023-.047.023h-.023c-.98-.658-1.774-1.433-2.357-2.302-.373-.564-.63-1.08-.863-1.574-.35-.728-.7-1.504-1.517-2.42-.303-.352-.5-.493-.63-.6s-.233-.188-.35-.376c-.84-1.175-.7-3.148.443-5.873v.258c-1.05 2.584-1.2 4.464-.373 5.568a1.25 1.25 0 0 0 .35.352c.14.117.327.282.63.634.817.94 1.2 1.7 1.54 2.443a14.28 14.28 0 0 0 .863 1.574c.583.87 1.377 1.644 2.334 2.28 0-.023 0 0 0 .023zm-14.936-8.717c-.187.352-.42.658-.63.94-.373.493-.77 1.034-.957 1.903-.2.94-.047 1.668.093 2.302l.07.352c.537 2.725-.723 5.638-1.75 7.377-.023-.023-.023-.07-.047-.094 1.003-1.762 2.24-4.628 1.704-7.26l-.07-.352c-.14-.634-.303-1.386-.093-2.326.187-.893.583-1.4.98-1.926.2-.282.443-.587.63-.94.56-1.08.56-2.514.047-4.205.023-.023.047-.07.07-.094.537 1.715.513 3.17-.047 4.323z" class="K"/><path d="M151.458 92.325a1.94 1.94 0 0 1-1.937 1.95 1.94 1.94 0 0 1-1.937-1.95 1.8 1.8 0 0 1 .07-.493l.163-.423c.327-.61.98-1.034 1.727-1.034.2 0 .42.047.63.094a1.91 1.91 0 0 1 1.12 1.01c.07.14.117.282.14.446.023.14.023.258.023.4z" class="M"/><path d="M151.412 91.95l-2.987-.446-.653-.094c.327-.61.98-1.034 1.727-1.034 0 0 .327.023.63.094a1.91 1.91 0 0 1 1.12 1.01 1.26 1.26 0 0 1 .163.47z" fill="url(#X)" class="I"/><path d="M149.59 91.88c.14-.023.327.023.467.164.257.235.2.634.163 1.245l-.163 1.715h-.303v-1.738c-.047.023-.093.023-.163.023-.35 0-.63-.305-.63-.705 0-.376.303-.68.63-.705z" class="E"/></g></svg>