<svg xmlns="http://www.w3.org/2000/svg" width="78" height="78" viewBox="0 0 78 78">
  <defs>
    <linearGradient id="pattern-palette-a" x1="50%" x2="50%" y1="-32.282%" y2="128.813%">
      <stop offset="0%" stop-color="#253659"/>
      <stop offset="100%" stop-color="#102131"/>
    </linearGradient>
    <linearGradient id="pattern-palette-b" x1="108.099%" x2="7.038%" y1="92.79%" y2="-26.112%">
      <stop offset="0%" stop-color="#F7618B"/>
      <stop offset="100%" stop-color="#2A7AFF"/>
    </linearGradient>
  </defs>
  <g fill="none" fill-rule="evenodd">
    <rect width="77.305" height="77.305" x=".292" y=".292" fill="url(#pattern-palette-a)" rx="10.5"/>
    <path fill="url(#pattern-palette-b)" fill-rule="nonzero" d="M62.609225,27.5557759 L55.9524233,22.7186575 C55.4367714,22.3255924 54.8373331,22.1394628 54.2407064,22.1180945 C53.4348949,22.0781694 52.652701,22.3458361 52.0549497,22.9042247 C52.1786612,21.4579251 51.3351739,20.0509883 49.910805,19.5960675 L42.0995503,17.0543591 C41.7902717,16.9508913 41.479306,16.910404 41.171152,16.8884733 C40.0358181,16.8884733 38.9853953,17.4879116 38.4090123,18.4601713 C38.1199773,17.0543591 36.8643059,16 35.3572752,16 L27.1523932,16 C25.4204326,16 24,17.4052498 24,19.143396 L24,60.8111059 C24,62.5464405 25.4204326,63.9522526 27.1523932,63.9522526 L32.8425585,63.9522526 L35.0018859,65.3175774 C36.6494978,66.4557229 38.6721803,66.0547853 39.6191354,64.9627504 L63.6613349,31.3582166 C64.2174741,30.0356286 63.8255337,28.4442492 62.609225,27.5557759 Z M25.1544529,19.141709 C25.1544529,18.0260565 26.0401146,17.1780706 27.1529555,17.1780706 L35.3572752,17.1780706 C36.4718031,17.1780706 37.3164151,18.0254942 37.3164151,19.141709 L37.3164151,27.6783627 L25.1544529,27.6783627 L25.1544529,19.141709 Z M37.3169774,51.0958193 L25.1538906,51.0958193 L25.1538906,40.5550398 L37.3169774,40.5550398 L37.3169774,51.0958193 Z M37.3169774,39.3977752 L25.1538906,39.3977752 L25.1538906,28.8569956 L37.3169774,28.8569956 L37.3169774,39.3977752 Z M38.491674,21.7463978 L39.2339428,19.4521123 C39.4808035,18.6665445 40.1820226,18.1283996 40.9439727,18.0676685 C41.190271,18.0463002 41.4590623,18.0879122 41.726729,18.1711363 L49.5402329,20.7139693 C50.5923427,21.0446163 51.1490443,22.1597065 50.8172727,23.2140657 L48.1805314,31.357092 L38.491674,28.1951393 L38.491674,21.7463978 Z M38.489987,29.4356279 L38.489987,29.4356279 L47.8082723,32.4733068 L44.5709681,42.4781908 L38.4905494,40.493184 L38.4905494,29.4356279 L38.489987,29.4356279 Z M38.489987,52.7917911 L38.489987,41.734235 L38.4905494,41.734235 L44.2223267,43.5944056 L40.9844601,53.5976026 L38.489987,52.7917911 Z M43.6459437,57.1110083 L41.5417241,55.6017284 L44.9634709,45.0609489 L49.8090242,48.595723 L43.6459437,57.1110083 Z M50.5091187,47.6234633 L45.3351676,43.9025597 L48.7569144,33.3629048 L56.6721991,39.1093025 L50.5091187,47.6234633 Z M62.3640514,31.2749926 L57.3548615,38.1786549 L49.1499795,32.1859588 L51.1496067,25.9840779 L52.5109952,24.1036636 C52.9214923,23.5441504 53.5411743,23.2556777 54.1799754,23.2764837 C54.5505474,23.2961651 54.9638562,23.4210012 55.2933786,23.6684241 L61.9321859,28.4841743 C62.8172852,29.1460306 63.0034148,30.3865193 62.3640514,31.2749926 Z M26.8914744,19.5752615 C26.5924018,19.5752615 26.3499556,19.3328152 26.3499556,19.0337426 C26.3499556,18.73467 26.5924018,18.4922238 26.8914744,18.4922238 C27.190547,18.4922238 27.4329933,18.73467 27.4329933,19.0337426 C27.4329933,19.3328152 27.190547,19.5752615 26.8914744,19.5752615 Z M30.1417121,19.5752615 C29.8426395,19.5752615 29.6001933,19.3328152 29.6001933,19.0337426 C29.6001933,18.73467 29.8426395,18.4922238 30.1417121,18.4922238 C30.4407847,18.4922238 30.683231,18.73467 30.683231,19.0337426 C30.683231,19.3328152 30.4407847,19.5752615 30.1417121,19.5752615 Z M31.8731104,19.5746991 C31.5743484,19.5746991 31.3321539,19.3325047 31.3321539,19.0337426 C31.3321539,18.7349806 31.5743484,18.4927861 31.8731104,18.4927861 C32.1718724,18.4927861 32.4140669,18.7349806 32.4140669,19.0337426 C32.4140669,19.3325047 32.1718724,19.5746991 31.8731104,19.5746991 Z M35.3375939,19.5746991 C35.0388318,19.5746991 34.7966374,19.3325047 34.7966374,19.0337426 C34.7966374,18.7349806 35.0388318,18.4927861 35.3375939,18.4927861 C35.6363559,18.4927861 35.8785504,18.7349806 35.8785504,19.0337426 C35.8785504,19.3325047 35.6363559,19.5746991 35.3375939,19.5746991 Z M26.8914744,21.3066597 C26.5924018,21.3066597 26.3499556,21.0642135 26.3499556,20.7651409 C26.3499556,20.4660683 26.5924018,20.223622 26.8914744,20.223622 C27.190547,20.223622 27.4329933,20.4660683 27.4329933,20.7651409 C27.4329933,21.0642135 27.190547,21.3066597 26.8914744,21.3066597 Z M30.1417121,21.3066597 C29.8426395,21.3066597 29.6001933,21.0642135 29.6001933,20.7651409 C29.6001933,20.4660683 29.8426395,20.223622 30.1417121,20.223622 C30.4407847,20.223622 30.683231,20.4660683 30.683231,20.7651409 C30.683231,21.0642135 30.4407847,21.3066597 30.1417121,21.3066597 Z M31.8731104,21.3060974 C31.5743484,21.3060974 31.3321539,21.0639029 31.3321539,20.7651409 C31.3321539,20.4663788 31.5743484,20.2241844 31.8731104,20.2241844 C32.1718724,20.2241844 32.4140669,20.4663788 32.4140669,20.7651409 C32.4140669,21.0639029 32.1718724,21.3060974 31.8731104,21.3060974 Z M35.3375939,21.3060974 C35.0388318,21.3060974 34.7966374,21.0639029 34.7966374,20.7651409 C34.7966374,20.4663788 35.0388318,20.2241844 35.3375939,20.2241844 C35.6363559,20.2241844 35.8785504,20.4663788 35.8785504,20.7651409 C35.8785504,21.0639029 35.6363559,21.3060974 35.3375939,21.3060974 Z M26.8914744,23.1117225 C26.5924018,23.1117225 26.3499556,22.8692763 26.3499556,22.5702037 C26.3499556,22.2711311 26.5924018,22.0286848 26.8914744,22.0286848 C27.190547,22.0286848 27.4329933,22.2711311 27.4329933,22.5702037 C27.4329933,22.8692763 27.190547,23.1117225 26.8914744,23.1117225 Z M30.1417121,23.1117225 C29.8426395,23.1117225 29.6001933,22.8692763 29.6001933,22.5702037 C29.6001933,22.2711311 29.8426395,22.0286848 30.1417121,22.0286848 C30.4407847,22.0286848 30.683231,22.2711311 30.683231,22.5702037 C30.683231,22.8692763 30.4407847,23.1117225 30.1417121,23.1117225 Z M31.8731104,23.1111602 C31.5743484,23.1111602 31.3321539,22.8689657 31.3321539,22.5702037 C31.3321539,22.2714417 31.5743484,22.0292472 31.8731104,22.0292472 C32.1718724,22.0292472 32.4140669,22.2714417 32.4140669,22.5702037 C32.4140669,22.8689657 32.1718724,23.1111602 31.8731104,23.1111602 Z M35.3375939,23.1111602 C35.0388318,23.1111602 34.7966374,22.8689657 34.7966374,22.5702037 C34.7966374,22.2714417 35.0388318,22.0292472 35.3375939,22.0292472 C35.6363559,22.0292472 35.8785504,22.2714417 35.8785504,22.5702037 C35.8785504,22.8689657 35.6363559,23.1111602 35.3375939,23.1111602 Z M26.8914744,24.8436831 C26.5924018,24.8436831 26.3499556,24.6012369 26.3499556,24.3021643 C26.3499556,24.0030917 26.5924018,23.7606454 26.8914744,23.7606454 C27.190547,23.7606454 27.4329933,24.0030917 27.4329933,24.3021643 C27.4329933,24.6012369 27.190547,24.8436831 26.8914744,24.8436831 Z M30.1417121,24.8436831 C29.8426395,24.8436831 29.6001933,24.6012369 29.6001933,24.3021643 C29.6001933,24.0030917 29.8426395,23.7606454 30.1417121,23.7606454 C30.4407847,23.7606454 30.683231,24.0030917 30.683231,24.3021643 C30.683231,24.6012369 30.4407847,24.8436831 30.1417121,24.8436831 Z M31.8731104,24.8431208 C31.5743484,24.8431208 31.3321539,24.6009263 31.3321539,24.3021643 C31.3321539,24.0034022 31.5743484,23.7612077 31.8731104,23.7612077 C32.1718724,23.7612077 32.4140669,24.0034022 32.4140669,24.3021643 C32.4140669,24.6009263 32.1718724,24.8431208 31.8731104,24.8431208 Z M35.3375939,24.8431208 C35.0388318,24.8431208 34.7966374,24.6009263 34.7966374,24.3021643 C34.7966374,24.0034022 35.0388318,23.7612077 35.3375939,23.7612077 C35.6363559,23.7612077 35.8785504,24.0034022 35.8785504,24.3021643 C35.8785504,24.6009263 35.6363559,24.8431208 35.3375939,24.8431208 Z M26.8914744,26.5031038 C26.5924018,26.5031038 26.3499556,26.2606575 26.3499556,25.9615849 C26.3499556,25.6625123 26.5924018,25.4200661 26.8914744,25.4200661 C27.190547,25.4200661 27.4329933,25.6625123 27.4329933,25.9615849 C27.4329933,26.2606575 27.190547,26.5031038 26.8914744,26.5031038 Z M28.3552061,19.5746991 C28.056444,19.5746991 27.8142495,19.3325047 27.8142495,19.0337426 C27.8142495,18.7349806 28.056444,18.4927861 28.3552061,18.4927861 C28.6539681,18.4927861 28.8961626,18.7349806 28.8961626,19.0337426 C28.8961626,19.3325047 28.6539681,19.5746991 28.3552061,19.5746991 Z M28.3552061,21.3060974 C28.056444,21.3060974 27.8142495,21.0639029 27.8142495,20.7651409 C27.8142495,20.4663788 28.056444,20.2241844 28.3552061,20.2241844 C28.6539681,20.2241844 28.8961626,20.4663788 28.8961626,20.7651409 C28.8961626,21.0639029 28.6539681,21.3060974 28.3552061,21.3060974 Z M28.3552061,23.1111602 C28.056444,23.1111602 27.8142495,22.8689657 27.8142495,22.5702037 C27.8142495,22.2714417 28.056444,22.0292472 28.3552061,22.0292472 C28.6539681,22.0292472 28.8961626,22.2714417 28.8961626,22.5702037 C28.8961626,22.8689657 28.6539681,23.1111602 28.3552061,23.1111602 Z M28.3552061,24.8431208 C28.056444,24.8431208 27.8142495,24.6009263 27.8142495,24.3021643 C27.8142495,24.0034022 28.056444,23.7612077 28.3552061,23.7612077 C28.6539681,23.7612077 28.8961626,24.0034022 28.8961626,24.3021643 C28.8961626,24.6009263 28.6539681,24.8431208 28.3552061,24.8431208 Z M28.3552061,26.5025415 C28.056444,26.5025415 27.8142495,26.260347 27.8142495,25.9615849 C27.8142495,25.6628229 28.056444,25.4206284 28.3552061,25.4206284 C28.6539681,25.4206284 28.8961626,25.6628229 28.8961626,25.9615849 C28.8961626,26.260347 28.6539681,26.5025415 28.3552061,26.5025415 Z M30.1417121,26.5031038 C29.8426395,26.5031038 29.6001933,26.2606575 29.6001933,25.9615849 C29.6001933,25.6625123 29.8426395,25.4200661 30.1417121,25.4200661 C30.4407847,25.4200661 30.683231,25.6625123 30.683231,25.9615849 C30.683231,26.2606575 30.4407847,26.5031038 30.1417121,26.5031038 Z M31.8731104,26.5025415 C31.5743484,26.5025415 31.3321539,26.260347 31.3321539,25.9615849 C31.3321539,25.6628229 31.5743484,25.4206284 31.8731104,25.4206284 C32.1718724,25.4206284 32.4140669,25.6628229 32.4140669,25.9615849 C32.4140669,26.260347 32.1718724,26.5025415 31.8731104,26.5025415 Z M33.605071,19.5746991 C33.3063089,19.5746991 33.0641145,19.3325047 33.0641145,19.0337426 C33.0641145,18.7349806 33.3063089,18.4927861 33.605071,18.4927861 C33.903833,18.4927861 34.1460275,18.7349806 34.1460275,19.0337426 C34.1460275,19.3325047 33.903833,19.5746991 33.605071,19.5746991 Z M33.605071,21.3060974 C33.3063089,21.3060974 33.0641145,21.0639029 33.0641145,20.7651409 C33.0641145,20.4663788 33.3063089,20.2241844 33.605071,20.2241844 C33.903833,20.2241844 34.1460275,20.4663788 34.1460275,20.7651409 C34.1460275,21.0639029 33.903833,21.3060974 33.605071,21.3060974 Z M33.605071,23.1111602 C33.3063089,23.1111602 33.0641145,22.8689657 33.0641145,22.5702037 C33.0641145,22.2714417 33.3063089,22.0292472 33.605071,22.0292472 C33.903833,22.0292472 34.1460275,22.2714417 34.1460275,22.5702037 C34.1460275,22.8689657 33.903833,23.1111602 33.605071,23.1111602 Z M33.605071,24.8431208 C33.3063089,24.8431208 33.0641145,24.6009263 33.0641145,24.3021643 C33.0641145,24.0034022 33.3063089,23.7612077 33.605071,23.7612077 C33.903833,23.7612077 34.1460275,24.0034022 34.1460275,24.3021643 C34.1460275,24.6009263 33.903833,24.8431208 33.605071,24.8431208 Z M33.605071,26.5025415 C33.3063089,26.5025415 33.0641145,26.260347 33.0641145,25.9615849 C33.0641145,25.6628229 33.3063089,25.4206284 33.605071,25.4206284 C33.903833,25.4206284 34.1460275,25.6628229 34.1460275,25.9615849 C34.1460275,26.260347 33.903833,26.5025415 33.605071,26.5025415 Z M35.3375939,26.5025415 C35.0388318,26.5025415 34.7966374,26.260347 34.7966374,25.9615849 C34.7966374,25.6628229 35.0388318,25.4206284 35.3375939,25.4206284 C35.6363559,25.4206284 35.8785504,25.6628229 35.8785504,25.9615849 C35.8785504,26.260347 35.6363559,26.5025415 35.3375939,26.5025415 Z M26.8903498,31.0972979 C26.5915878,31.0972979 26.3493933,30.8551034 26.3493933,30.5563414 C26.3493933,30.2575793 26.5915878,30.0153849 26.8903498,30.0153849 C27.1891118,30.0153849 27.4313063,30.2575793 27.4313063,30.5563414 C27.4313063,30.8551034 27.1891118,31.0972979 26.8903498,31.0972979 Z M30.1417121,31.0978602 C29.8426395,31.0978602 29.6001933,30.855414 29.6001933,30.5563414 C29.6001933,30.2572688 29.8426395,30.0148225 30.1417121,30.0148225 C30.4407847,30.0148225 30.683231,30.2572688 30.683231,30.5563414 C30.683231,30.855414 30.4407847,31.0978602 30.1417121,31.0978602 Z M31.8731104,32.8292585 C31.5743484,32.8292585 31.3321539,32.587064 31.3321539,32.288302 C31.3321539,31.9895399 31.5743484,31.7473454 31.8731104,31.7473454 C32.1718724,31.7473454 32.4140669,31.9895399 32.4140669,32.288302 C32.4140669,32.587064 32.1718724,32.8292585 31.8731104,32.8292585 Z M35.3375939,32.8292585 C35.0388318,32.8292585 34.7966374,32.587064 34.7966374,32.288302 C34.7966374,31.9895399 35.0388318,31.7473454 35.3375939,31.7473454 C35.6363559,31.7473454 35.8785504,31.9895399 35.8785504,32.288302 C35.8785504,32.587064 35.6363559,32.8292585 35.3375939,32.8292585 Z M26.8903498,34.633759 C26.5915878,34.633759 26.3493933,34.3915645 26.3493933,34.0928024 C26.3493933,33.7940404 26.5915878,33.5518459 26.8903498,33.5518459 C27.1891118,33.5518459 27.4313063,33.7940404 27.4313063,34.0928024 C27.4313063,34.3915645 27.1891118,34.633759 26.8903498,34.633759 Z M30.1417121,34.6343213 C29.8426395,34.6343213 29.6001933,34.391875 29.6001933,34.0928024 C29.6001933,33.7937298 29.8426395,33.5512836 30.1417121,33.5512836 C30.4407847,33.5512836 30.683231,33.7937298 30.683231,34.0928024 C30.683231,34.391875 30.4407847,34.6343213 30.1417121,34.6343213 Z M31.8731104,36.3662819 C31.5743484,36.3662819 31.3321539,36.1240874 31.3321539,35.8253253 C31.3321539,35.5265633 31.5743484,35.2843688 31.8731104,35.2843688 C32.1718724,35.2843688 32.4140669,35.5265633 32.4140669,35.8253253 C32.4140669,36.1240874 32.1718724,36.3662819 31.8731104,36.3662819 Z M35.3375939,36.3662819 C35.0388318,36.3662819 34.7966374,36.1240874 34.7966374,35.8253253 C34.7966374,35.5265633 35.0388318,35.2843688 35.3375939,35.2843688 C35.6363559,35.2843688 35.8785504,35.5265633 35.8785504,35.8253253 C35.8785504,36.1240874 35.6363559,36.3662819 35.3375939,36.3662819 Z M26.8903498,38.0251402 C26.5915878,38.0251402 26.3493933,37.7829457 26.3493933,37.4841837 C26.3493933,37.1854216 26.5915878,36.9432272 26.8903498,36.9432272 C27.1891118,36.9432272 27.4313063,37.1854216 27.4313063,37.4841837 C27.4313063,37.7829457 27.1891118,38.0251402 26.8903498,38.0251402 Z M28.3552061,32.8292585 C28.056444,32.8292585 27.8142495,32.587064 27.8142495,32.288302 C27.8142495,31.9895399 28.056444,31.7473454 28.3552061,31.7473454 C28.6539681,31.7473454 28.8961626,31.9895399 28.8961626,32.288302 C28.8961626,32.587064 28.6539681,32.8292585 28.3552061,32.8292585 Z M28.3552061,36.3662819 C28.056444,36.3662819 27.8142495,36.1240874 27.8142495,35.8253253 C27.8142495,35.5265633 28.056444,35.2843688 28.3552061,35.2843688 C28.6539681,35.2843688 28.8961626,35.5265633 28.8961626,35.8253253 C28.8961626,36.1240874 28.6539681,36.3662819 28.3552061,36.3662819 Z M30.1417121,38.0257025 C29.8426395,38.0257025 29.6001933,37.7832563 29.6001933,37.4841837 C29.6001933,37.1851111 29.8426395,36.9426648 30.1417121,36.9426648 C30.4407847,36.9426648 30.683231,37.1851111 30.683231,37.4841837 C30.683231,37.7832563 30.4407847,38.0257025 30.1417121,38.0257025 Z M33.605071,31.0972979 C33.3063089,31.0972979 33.0641145,30.8551034 33.0641145,30.5563414 C33.0641145,30.2575793 33.3063089,30.0153849 33.605071,30.0153849 C33.903833,30.0153849 34.1460275,30.2575793 34.1460275,30.5563414 C34.1460275,30.8551034 33.903833,31.0972979 33.605071,31.0972979 Z M33.605071,34.633759 C33.3063089,34.633759 33.0641145,34.3915645 33.0641145,34.0928024 C33.0641145,33.7940404 33.3063089,33.5518459 33.605071,33.5518459 C33.903833,33.5518459 34.1460275,33.7940404 34.1460275,34.0928024 C34.1460275,34.3915645 33.903833,34.633759 33.605071,34.633759 Z M33.605071,38.0251402 C33.3063089,38.0251402 33.0641145,37.7829457 33.0641145,37.4841837 C33.0641145,37.1854216 33.3063089,36.9432272 33.605071,36.9432272 C33.903833,36.9432272 34.1460275,37.1854216 34.1460275,37.4841837 C34.1460275,37.7829457 33.903833,38.0251402 33.605071,38.0251402 Z M29.6693593,42.8813777 C29.3705972,42.8813777 29.1284027,42.6391832 29.1284027,42.3404212 C29.1284027,42.0416592 29.3705972,41.7994647 29.6693593,41.7994647 C29.9681213,41.7994647 30.2103158,42.0416592 30.2103158,42.3404212 C30.2103158,42.6391832 29.9681213,42.8813777 29.6693593,42.8813777 Z M34.865241,42.88194 C34.5661684,42.88194 34.3237221,42.6394938 34.3237221,42.3404212 C34.3237221,42.0413486 34.5661684,41.7989024 34.865241,41.7989024 C35.1643136,41.7989024 35.4067598,42.0413486 35.4067598,42.3404212 C35.4067598,42.6394938 35.1643136,42.88194 34.865241,42.88194 Z M27.0714184,44.6133383 C26.7726564,44.6133383 26.5304619,44.3711438 26.5304619,44.0723818 C26.5304619,43.7736197 26.7726564,43.5314253 27.0714184,43.5314253 C27.3701804,43.5314253 27.6123749,43.7736197 27.6123749,44.0723818 C27.6123749,44.3711438 27.3701804,44.6133383 27.0714184,44.6133383 Z M32.2678624,44.6139006 C31.9687899,44.6139006 31.7263436,44.3714544 31.7263436,44.0723818 C31.7263436,43.7733092 31.9687899,43.5308629 32.2678624,43.5308629 C32.566935,43.5308629 32.8093813,43.7733092 32.8093813,44.0723818 C32.8093813,44.3714544 32.566935,44.6139006 32.2678624,44.6139006 Z M29.6693593,46.3447365 C29.3705972,46.3447365 29.1284027,46.1025421 29.1284027,45.80378 C29.1284027,45.505018 29.3705972,45.2628235 29.6693593,45.2628235 C29.9681213,45.2628235 30.2103158,45.505018 30.2103158,45.80378 C30.2103158,46.1025421 29.9681213,46.3447365 29.6693593,46.3447365 Z M34.865241,46.3452989 C34.5661684,46.3452989 34.3237221,46.1028526 34.3237221,45.80378 C34.3237221,45.5047074 34.5661684,45.2622612 34.865241,45.2622612 C35.1643136,45.2622612 35.4067598,45.5047074 35.4067598,45.80378 C35.4067598,46.1028526 35.1643136,46.3452989 34.865241,46.3452989 Z M27.0714184,48.0772594 C26.7726564,48.0772594 26.5304619,47.835065 26.5304619,47.5363029 C26.5304619,47.2375409 26.7726564,46.9953464 27.0714184,46.9953464 C27.3701804,46.9953464 27.6123749,47.2375409 27.6123749,47.5363029 C27.6123749,47.835065 27.3701804,48.0772594 27.0714184,48.0772594 Z M32.2678624,48.0778218 C31.9687899,48.0778218 31.7263436,47.8353755 31.7263436,47.5363029 C31.7263436,47.2372303 31.9687899,46.9947841 32.2678624,46.9947841 C32.566935,46.9947841 32.8093813,47.2372303 32.8093813,47.5363029 C32.8093813,47.8353755 32.566935,48.0778218 32.2678624,48.0778218 Z M29.6693593,49.8103447 C29.3705972,49.8103447 29.1284027,49.5681502 29.1284027,49.2693881 C29.1284027,48.9706261 29.3705972,48.7284316 29.6693593,48.7284316 C29.9681213,48.7284316 30.2103158,48.9706261 30.2103158,49.2693881 C30.2103158,49.5681502 29.9681213,49.8103447 29.6693593,49.8103447 Z M34.865241,49.810907 C34.5661684,49.810907 34.3237221,49.5684607 34.3237221,49.2693881 C34.3237221,48.9703155 34.5661684,48.7278693 34.865241,48.7278693 C35.1643136,48.7278693 35.4067598,48.9703155 35.4067598,49.2693881 C35.4067598,49.5684607 35.1643136,49.810907 34.865241,49.810907 Z"/>
  </g>
</svg>
