<svg xmlns="http://www.w3.org/2000/svg" width="111" height="111" viewBox="0 0 111 111">
  <defs>
    <linearGradient id="pen-a" x1="50%" x2="50%" y1="-32.282%" y2="128.813%">
      <stop offset="0%" stop-color="#253659"/>
      <stop offset="100%" stop-color="#102131"/>
    </linearGradient>
    <linearGradient id="pen-b" x1="11.224%" x2="143.459%" y1="-28.255%" y2="79.165%">
      <stop offset="0%" stop-color="#F7618B"/>
      <stop offset="100%" stop-color="#2A7AFF"/>
    </linearGradient>
  </defs>
  <g fill="none" fill-rule="evenodd">
    <rect width="110.011" height="110.011" x=".416" y=".416" fill="url(#pen-a)" rx="15"/>
    <path fill="url(#pen-b)" fill-rule="nonzero" d="M66,83.4526316 C66.7894737,83.4526316 67.4210526,84.0842105 67.4210526,84.8736842 L67.4210526,88.1894737 C67.4210526,88.9789474 66.7894737,89.6105263 66,89.6105263 L45.4736842,89.6105263 C44.6842105,89.6105263 44.0526316,88.9789474 44.0526316,88.1894737 L44.0526316,84.8736842 C44.0526316,84.0842105 44.6842105,83.4526316 45.4736842,83.4526316 L66,83.4526316 Z M58.7161858,43.9789474 L69.3740806,62.4526316 C70.0846069,63.6368421 70.321449,65.0578947 70.0056595,66.4 L67.4793437,78.9526316 C67.321449,79.6631579 66.7688174,80.1368421 66.0582911,80.1368421 L44.9793437,80.1368421 C44.2688174,80.1368421 43.7161858,79.5842105 43.5582911,78.9526316 L41.0319753,66.4 C40.7161858,65.0578947 40.9530279,63.6368421 41.6635543,62.4526316 L52.2425016,43.9789474 C52.7161858,43.3473684 53.2688174,42.7947368 53.9793437,42.4789474 L53.9793437,59.3736842 C52.321449,60.0052632 51.0582911,61.6631579 51.0582911,63.5578947 C51.0582911,66.0052632 53.0319753,67.9789474 55.4793437,67.9789474 C57.9267122,67.9789474 59.9003964,66.0052632 59.9003964,63.5578947 C59.9003964,61.6631579 58.7161858,60.0052632 56.9793437,59.3736842 L56.9793437,42.4 C57.68987,42.7157895 58.321449,43.2684211 58.7161858,43.9789474 Z M89.1315789,35.9263158 C87.4736842,35.9263158 86.0526316,34.9 85.5,33.3210526 L69.0789474,33.3210526 C80.6052632,38.2157895 88.9736842,49.0315789 90.3947368,61.9789474 L92.9210526,61.9789474 L92.9210526,69.6368421 L85.2631579,69.6368421 L85.2631579,61.9789474 L87.3947368,61.9789474 C85.6578947,47.2947368 73.9736842,35.6105263 59.2894737,33.8736842 L59.2894737,36.0052632 L51.6315789,36.0052632 L51.6315789,33.8736842 C36.9473684,35.6105263 25.2631579,47.2947368 23.5263158,61.9789474 L25.6578947,61.9789474 L25.6578947,69.6368421 L18,69.6368421 L18,61.9789474 L20.5263158,61.9789474 C21.9473684,49.0315789 30.3157895,38.2157895 41.8421053,33.3210526 L25.5,33.3210526 C24.9473684,34.8210526 23.5263158,35.9263158 21.8684211,35.9263158 C19.7368421,35.9263158 18,34.1894737 18,32.0578947 C18,29.9263158 19.7368421,28.1894737 21.8684211,28.1894737 C23.5263158,28.1894737 24.9473684,29.2947368 25.5,30.7947368 L51.3157895,30.7947368 C51.3947368,30.7947368 51.5526316,30.7947368 51.6315789,30.7947368 L51.6315789,28.2684211 L59.2894737,28.2684211 L59.2894737,30.7947368 C59.3684211,30.7947368 59.5263158,30.7947368 59.6052632,30.7947368 L85.5,30.7947368 C86.0526316,29.2947368 87.4736842,28.1894737 89.1315789,28.1894737 C91.2631579,28.1894737 93,29.9263158 93,32.0578947 C93,34.1894737 91.2631579,35.9263158 89.1315789,35.9263158 Z"/>
  </g>
</svg>
