<?xml version="1.0" encoding="UTF-8"?>
<svg width="168px" height="30px" viewBox="0 0 168 30" version="1.1" xmlns="http://www.w3.org/2000/svg" xmlns:xlink="http://www.w3.org/1999/xlink">
    <!-- Generator: Sketch 52.1 (67048) - http://www.bohemiancoding.com/sketch -->
    <title>REMAX_logo</title>
    <desc>Created with Sketch.</desc>
    <g id="website" stroke="none" stroke-width="1" fill="none" fill-rule="evenodd">
        <g id="home-" transform="translate(-987.000000, -10412.000000)" fill="#FFFFFF" fill-rule="nonzero">
            <g id="CTA-with-form-and-logos" transform="translate(0.000000, 9703.000000)">
                <g id="logos" transform="translate(525.000000, 587.000000)">
                    <g id="REMAX_logo" transform="translate(462.000000, 122.000000)">
                        <path d="M0,1 L0,15.5001241 L0,30 L3.339052,30 L6.67810401,30 L6.67810401,25.2628905 L6.67810401,20.5255323 L8.6346342,20.5474592 L10.5909064,20.5693875 L13.4630127,25.2848188 L16.3348596,30 L20.1674304,30 L24,30 L20.6609489,24.6421905 C18.8244562,21.6952956 17.333178,19.2794577 17.3469203,19.2736656 C18.4773027,18.7975505 19.6424635,18.0456842 20.4555955,17.2677879 C21.7128099,16.0650531 22.4615762,14.6961342 22.8793299,12.8369173 C23.0921106,11.8899557 23.0929559,9.43904731 22.8808753,8.415516 C22.0419033,4.366453 19.2278138,1.99456092 14.3277654,1.20681714 C13.6049475,1.09061537 12.5120636,1.06606428 6.74156744,1.03563234 L0,1 Z M6.67810401,6.64810159 L9.41812333,6.64810159 C12.3204202,6.64810159 12.9117755,6.70189518 13.8842958,7.05475892 C14.519926,7.28538676 15.2739665,7.8443933 15.6194782,8.34101204 C16.0993125,9.03070173 16.2510428,9.52722874 16.2964211,10.5571949 C16.3632991,12.0750957 16.0658457,12.9337457 15.1752345,13.7932605 C14.57063,14.3767548 14.0257999,14.6738104 13.130217,14.9083283 C12.5350441,15.0641811 12.1850707,15.0852405 9.63689147,15.1186342 C8.07932833,15.1390456 6.77643826,15.1275392 6.74156744,15.093218 C6.70669662,15.0588904 6.67810401,13.1447763 6.67810401,10.8395126 L6.67810401,6.64810159 Z" id="path104"></path>
                        <path d="M30,15.5000357 L30,1 L40.5,1 L51,1 L51,3.81831681 L51,6.63663361 L43.9419087,6.63663361 L36.8838174,6.63663361 L36.8838174,9.6183311 L36.8838174,12.6000286 L43.0705394,12.6000286 L49.2572614,12.6000286 L49.2572614,15.4183454 L49.2572614,18.2366622 L43.0705394,18.2366622 L36.8838174,18.2366622 L36.8838174,21.3408952 L36.8838174,24.4451282 L41.5020747,24.4451282 C44.0421162,24.4451282 46.120332,24.4627197 46.120332,24.4842196 C46.120332,24.5207275 44.0487154,28.2249569 43.3442406,29.4481154 L43.026971,29.9989789 L36.5134855,29.9994894 L30,30 L30,15.5000357 Z" id="path100"></path>
                        <path d="M49.0010689,29.9122518 C49.0253017,29.8556012 52.5991061,23.3332934 56.9428586,15.4182328 L64.8405896,1.02721348 L68.9417249,1.00598092 C72.2128473,0.989045551 73.0339709,1.00559636 72.9989382,1.08774808 C72.9747811,1.14439791 69.3999781,7.66670646 65.0549311,15.5817671 L57.1548447,29.9727863 L53.0559281,29.994019 C49.7865317,30.010955 48.9659273,29.9944022 49.0010689,29.9122518 Z" id="path98"></path>
                        <path d="M73,21.8284497 L73,13.6568995 L76.3544765,7.36929502 C78.1994391,3.91111243 79.7346087,1.08169031 79.7659667,1.08169031 C79.7973235,1.08169031 80.1592691,1.55038749 80.5702927,2.1232396 C81.272343,3.10170763 84.7562126,7.97312773 85.9451041,9.63873251 C86.2417583,10.0543311 86.5065397,10.392931 86.5335229,10.3911771 C86.5604984,10.3894207 88.0688073,8.27616382 89.8853211,5.69504551 L93.1880734,1.00210352 L96.5940367,1.00105176 L100,1 L100,15.5000001 L100,30 L96.8211009,30 L93.6422018,30 L93.6422018,21.0140846 C93.6422018,16.0718311 93.6143349,12.0296288 93.5802752,12.0314129 C93.5462156,12.0331934 91.9591851,14.0565596 90.0535473,16.5277756 C87.5553042,19.7674739 86.5490046,21.0142492 86.446289,20.9970675 C86.3679312,20.9839626 84.7502599,18.9711303 82.851456,16.5241085 L79.3990826,12.0749776 L79.3780765,21.0374888 L79.3570705,30 L76.1785353,30 L73,30 L73,21.8284497 Z" id="path96"></path>
                        <path d="M116.336865,1 L116.243908,1.22361268 C116.192688,1.34647968 114.927972,4.57231136 113.433645,8.39235779 C111.93931,12.2124042 109.430384,18.620563 107.8583,22.6326678 C106.286215,26.6447751 105,29.9438769 105,29.9640408 C105,29.9842073 106.521872,30.0003678 108.382026,29.999987 L111.764313,29.9994793 L112.118485,29.0455301 C112.313379,28.5209274 112.826182,27.1321496 113.257857,25.9593284 L114.0428,23.8270745 L119.391206,23.8270745 C122.332859,23.8270745 124.739612,23.83648 124.739612,23.8481472 C124.739612,23.9059722 127.02145,29.9317781 127.055748,29.9645244 C127.077657,29.9854524 128.649133,29.9930593 130.547865,29.9813818 L134,29.9600616 L131.709571,24.1111765 C130.449859,20.8942953 127.897828,14.3782729 126.038414,9.63113948 L122.657685,1 L119.497406,1 L116.336865,1 Z M119.376664,9.59049538 C119.423538,9.53742903 122.621988,18.1623402 122.615102,18.3232896 C122.613666,18.3567988 121.157523,18.384275 119.379262,18.384275 C117.601001,18.384275 116.145257,18.3567988 116.144459,18.3232896 C116.142173,18.2316585 119.314348,9.66103677 119.376664,9.59049538 Z" id="path94"></path>
                        <path d="M136.726645,28.8759764 C145.484808,15.3285667 145.518423,15.2750296 145.385275,15.0830601 C145.092188,14.6604992 136.433166,1.07786329 136.433166,1.04068894 C136.433166,1.01831001 138.175544,1 140.305124,1 L144.177096,1 L146.825446,5.55142561 C148.282032,8.0547096 149.50687,10.1132638 149.547281,10.1259904 C149.587705,10.1387167 150.821635,8.11814402 152.289354,5.63582879 C153.757087,3.15351343 154.98487,1.09456778 155.017769,1.06039406 C155.050667,1.02622042 156.775846,1.00784122 158.851505,1.01955139 L162.62543,1.04084268 L160.027475,5.04342492 C158.598599,7.24484515 156.570281,10.3693099 155.520082,11.9866798 C154.469883,13.6040498 153.572423,14.9865922 153.525717,15.0589961 C153.437978,15.1949907 153.604187,15.4714982 155.975216,19.1341481 C156.484177,19.9203696 158.215382,22.6037334 159.822329,25.0971788 C161.429275,27.5906242 162.801636,29.7138001 162.872027,29.8153464 L163,30 L159.081349,29.9787171 L155.162698,29.9574572 L152.334547,25.1814641 C150.779076,22.5546673 149.472675,20.3948518 149.431467,20.3818727 C149.390246,20.3688924 149.113709,20.7720658 148.816961,21.2778117 C148.520212,21.7835564 147.233442,23.9433732 145.957479,26.077403 L143.637547,29.9574572 L139.81878,29.9787286 L136,30 L136.726645,28.8759764 Z" id="path90"></path>
                        <g id="g4682" transform="translate(164.000000, 0.000000)">
                            <path d="M1.9938,0.105698529 C1.49350588,0.112423529 0.994152941,0.363760721 0.5988,0.857938882 C-0.366094118,2.06406088 0.0324941176,4.27763279 1.31709412,4.84777118 C1.76837647,5.04805897 2.39190588,5.02871824 2.79388235,4.80152809 C4.09152941,4.06814294 4.39858824,2.03499382 3.39498824,0.820599721 C2.99541176,0.3370795 2.49407059,0.0989735162 1.9938,0.105698529 Z M2.05836471,0.482249544 C2.63078824,0.491205574 3.17297647,0.90623125 3.47587059,1.64263559 C3.591,1.92252882 3.6344,2.31726456 3.61167059,2.70823765 C3.58894118,3.09921074 3.50003529,3.48654103 3.35317647,3.75143618 C3.23329412,3.96768721 2.99635294,4.24500118 2.82950588,4.36494721 C2.25323529,4.77920794 1.66350588,4.7422725 1.11075294,4.25666353 C0.103811765,3.372025 0.194388235,1.46766976 1.27849412,0.730124088 C1.53171765,0.557844809 1.79817647,0.478178632 2.05836471,0.482249544 Z" id="path4676"></path>
                            <path d="M1.28469412,1.22357537 L1.28469412,2.58817779 L1.28469412,3.9530675 L1.66107059,3.9530675 L1.66107059,2.82341456 L1.92302353,2.82341456 C2.22423529,2.82341456 2.3676,3.03627721 2.44669412,3.60006897 C2.46761176,3.74916412 2.50247059,3.95535853 2.55592941,3.95469162 L2.68611765,3.95306809 L2.84710588,3.95306735 C2.87051765,3.92759574 2.8524,3.85118176 2.83769412,3.78820147 C2.81667059,3.69761324 2.76262353,3.44496574 2.71751765,3.22667794 C2.67242353,3.00839353 2.66207059,2.86302662 2.56985882,2.77169176 C2.51829412,2.72061574 2.42295294,2.63860279 2.43364706,2.59825029 C2.44435294,2.55789765 2.49241176,2.53826015 2.58448235,2.44772574 C2.86641176,2.17050559 2.87001176,1.69185662 2.59201176,1.41860124 C2.43209412,1.26136143 2.28603529,1.22357596 1.83902353,1.22357596 L1.28469412,1.22357537 Z M1.66107059,1.50591676 L1.92463529,1.50591676 C2.19576471,1.50591676 2.48943529,1.76731574 2.48943529,2.00884647 C2.48943529,2.07847059 2.42751765,2.20551794 2.35178824,2.29118794 C2.27605882,2.37685794 2.08954118,2.44715074 1.93750588,2.44715074 L1.66107059,2.44715074 L1.66107059,1.97639015 L1.66107059,1.50591676 Z" id="path4672"></path>
                        </g>
                    </g>
                </g>
            </g>
        </g>
    </g>
</svg>