<?xml version="1.0" encoding="UTF-8"?>
<svg width="123px" height="29px" viewBox="0 0 123 29" version="1.1" xmlns="http://www.w3.org/2000/svg" xmlns:xlink="http://www.w3.org/1999/xlink">
    <!-- Generator: Sketch 52.1 (67048) - http://www.bohemiancoding.com/sketch -->
    <title>Sothebys_Logo</title>
    <desc>Created with Sketch.</desc>
    <g id="website" stroke="none" stroke-width="1" fill="none" fill-rule="evenodd">
        <g id="home-" transform="translate(-552.000000, -10414.000000)" fill="#FFFFFF" fill-rule="nonzero">
            <g id="CTA-with-form-and-logos" transform="translate(0.000000, 9703.000000)">
                <g id="logos" transform="translate(525.000000, 587.000000)">
                    <g id="Sothebys_Logo" transform="translate(27.000000, 124.000000)">
                        <polyline id="Path" points="113 9 108.548564 15 108 15 110.34183 9.00061094"></polyline>
                        <path d="M7.0315121,23.9999451 C5.12231048,23.9999451 3.43610595,23.5507756 2.19517651,22.9521172 L0.954235468,23.9999451 L0.381566608,23.9999451 L0,17.3530799 L0.667541496,17.2935436 C2.67230004,21.6051579 5.02675355,22.9814899 7.22263755,22.9814899 C9.51338258,22.9814899 10.8498805,21.5749504 10.8498805,19.6890338 C10.8498805,17.892202 10.1179115,17.0240814 7.12706902,15.8567965 C6.10911347,15.4671963 4.93188092,15.0777608 3.94508952,14.6284155 C1.71806457,13.5812797 0.540832016,11.9339367 0.540832016,9.74836138 C0.540832016,6.18489426 3.81767256,4.02952649 7.0315121,4.02952649 C8.62284399,4.02952649 9.70450802,4.44847749 10.7543236,5.01762033 L11.9952531,4 L12.5360851,4 L13.0776246,9.86833471 L12.4412124,9.95829823 C10.6906035,6.66430425 8.81327355,5.04786081 6.74552561,5.04786081 C4.93188092,5.04786081 3.72282312,6.18492721 3.72282312,7.9515625 C3.72282312,9.35878309 4.35850457,10.4369832 6.61808545,11.3655188 C7.73162112,11.8442148 9.03625904,12.2631658 10.2134916,12.8022659 C12.790919,13.9702319 14,15.4974368 14,17.7125385 C14,21.6649139 10.4683255,24 7.0315121,24" id="Path"></path>
                        <path d="M23.8342207,24 C19.2579831,24 17,20.6152412 17,16.4850452 C17,12.664997 19.5895527,9 24.2260617,9 C28.8029687,9 31,12.3541428 31,16.4537114 C31,20.3051048 28.4707407,24 23.8342207,24 Z M23.9547855,9.87004327 C21.8475138,9.87004327 20.5527539,12.2921816 20.5527539,16.546995 C20.5527539,20.739665 21.9372844,23.1299453 24.0753502,23.1299453 C26.2730509,23.1299453 27.4774037,20.7085135 27.4774037,16.4537 C27.4774037,12.2608478 26.1826219,9.87004327 23.9547855,9.87004327 Z" id="Shape"></path>
                        <path d="M38.3137474,23.9999777 C35.955694,23.9999777 35.2099679,22.8152611 35.2099679,20.6262299 L35.2099679,11.5340321 L33,11.5340321 L33,11.1085724 L35.7471927,8.88885322 L37.9259464,6 L38.3735213,6 L38.3735213,9.95312705 L42.9103283,9.95312705 L42.9103283,11.5340321 L38.3735213,11.5340321 L38.3735213,19.4096093 C38.3735213,20.6262299 38.5528102,21.3561932 39.1504617,21.7809613 C39.6571359,22.1459486 40.3444155,22.2677857 41.3285516,22.2677857 C41.8060026,22.2677857 42.4029904,22.2371089 42.9700804,22.2073245 L43,22.6327842 C41.8359222,23.3620559 39.9254437,24 38.3137801,24" id="Path"></path>
                        <path d="M53.3271949,11.8640737 C52.1970518,11.8640737 51.3335734,12.0814923 50.2331995,12.6403604 L50.2331995,22.9142394 L51.8986341,23.5654589 L51.8986341,23.9999545 L45.1773247,23.9999545 L45.1773247,23.5654589 L47.051848,22.9142394 L47.051848,4.16657012 L45,2.76966174 L45,2.45882138 L50.1154238,1 L50.2331995,1.09326236 L50.2331995,11.9571425 L50.352959,12.0190896 C52.1077227,10.2807431 53.7136191,9.50515104 55.3195046,9.50515104 C57.9966454,9.50515104 59.1267885,11.6159093 59.1267885,13.8198958 L59.1267885,22.914285 L61,23.5655045 L61,24 L54.2786906,24 L54.2786906,23.5655045 L55.9441253,22.914285 L55.9441253,15.0917142 C55.9441253,13.0749129 55.1712877,11.8641193 53.3271949,11.8641193" id="Path"></path>
                        <path d="M66.4879412,15.4285942 C66.4879412,19.3732826 67.5888271,21.9512013 71.0447729,21.9512013 C72.5743411,21.9512013 73.829039,21.640347 75.6629199,20.9574179 L75.8465198,21.330222 C73.9807661,22.9748828 71.9014462,24 69.943887,24 C65.7537311,24 63,21.0811466 63,16.7645543 C63,12.3235268 66.3034717,9 70.0356925,9 C74.0727389,9 76.0309892,11.7636086 75.9996293,15.4285942 L66.4879412,15.4285942 Z M72.5743411,14.3730433 C72.4518891,11.4534721 71.6258735,9.87005467 69.821435,9.87005467 C68.0474757,9.87005467 66.6715411,11.7636086 66.5185988,14.6525524 L72.5743411,14.3730433 Z" id="Shape"></path>
                        <path d="M85.0708008,23.9999418 C83.5324885,23.9999418 81.4913346,23.6201035 80.0708008,23.1757452 L80.0708008,3.23446492 L78,1.80760526 L78,1.49010014 L83.1184578,0 L83.2369156,0.0952620044 L83.2369156,10.7164637 L83.3548773,10.780437 C84.3908655,9.67072186 85.8107307,8.6874877 87.6452844,8.6874877 C90.4558425,8.6874877 93,11.4463405 93,15.979893 C93,20.5134572 89.8048962,24 85.0708008,24 L85.0708008,23.9999418 Z M85.5749798,10.9067086 C84.6864384,10.9067086 83.9465085,11.0969999 83.2369156,11.414319 L83.2369156,21.4648443 C84.1539499,22.4793323 85.3373847,22.9222366 86.461677,22.9222366 C88.2074306,22.9222366 89.6567808,21.2425779 89.6567808,16.7720797 C89.6567808,12.8411786 88.0888002,10.9067086 85.5749798,10.9067086 Z" id="Shape"></path>
                        <path d="M100.870632,23.6277252 C99.3858968,27.3607727 97.990978,29 96.148625,29 C94.5747348,29 93.8319451,28.05947 93.8319451,27.0876294 C93.8319451,26.1470994 94.6632082,25.3579334 95.6140707,25.3579334 C96.6238073,25.3579334 97.2179069,25.9037078 97.9307506,26.8144861 C98.4950776,26.1768511 99.1776507,25.0847901 99.5643594,24.2345619 L100.069141,23.0812604 L94.8118982,10.1226812 L93,9.39423227 L93,9 L100.248286,9 L100.248286,9.39423227 L98.3463876,10.1226812 L101.553887,19.0152433 L101.702577,19.0152433 L104.613356,10.3354526 L102.890776,9.39423227 L102.890776,9 L108,9 L108,9.39423227 L106.068502,10.3958245 L100.870632,23.6277586" id="Path"></path>
                        <path d="M117.542177,23.9999544 C115.865584,23.9999544 114.433631,23.7204452 113.030337,23.1619508 L113,19.0629146 L113.60963,19.0004748 C115.255831,21.9511997 116.506506,23.0687126 118.121459,23.0687126 C119.555312,23.0687126 120.438409,22.1375962 120.438409,20.7085223 C120.438409,19.0935875 118.823456,18.4726078 117.085744,17.7583443 C115.16432,16.9196228 113.122759,15.9885064 113.122759,13.4104148 C113.122759,10.9569408 115.255831,9 118.366278,9 C119.555312,9 121.231906,9.24888186 122.053884,9.55920083 L122.145562,13.2546344 L121.566325,13.4104148 C120.073431,10.8944441 119.098134,9.93182288 117.695541,9.93182288 C116.414306,9.93182288 115.622709,10.8011604 115.622709,11.9193797 C115.622709,13.5350324 117.268922,14.1866396 119.006456,14.900903 C120.925969,15.7082907 123,16.6401135 123,19.279984 C123,22.16893 120.50005,24 117.542222,24" id="Path"></path>
                    </g>
                </g>
            </g>
        </g>
    </g>
</svg>