<?xml version="1.0" encoding="UTF-8"?>
<svg width="1480px" height="826px" viewBox="0 0 1480 826" version="1.1" xmlns="http://www.w3.org/2000/svg" xmlns:xlink="http://www.w3.org/1999/xlink">
    <!-- Generator: Sketch 52.1 (67048) - http://www.bohemiancoding.com/sketch -->
    <title>Illustration</title>
    <desc>Created with Sketch.</desc>
    <g id="website" stroke="none" stroke-width="1" fill="none" fill-rule="evenodd">
        <g id="Coming-Soon" transform="translate(-197.000000, -341.000000)">
            <g id="Illustration" transform="translate(198.000000, 341.000000)">
                <circle id="Oval-Copy" fill="#D8D8D8" cx="957" cy="97" r="91"></circle>
                <circle id="Oval" fill="#FFFFFF" cx="951" cy="91" r="91"></circle>
                <polygon id="Rectangle" fill="#474747" points="1011.9143 50 1015 54.6694682 936.085702 109 933 104.330532"></polygon>
                <polygon id="Rectangle-Copy" fill="#474747" points="910 70.596355 913.327709 66 966 104.403645 962.672291 109"></polygon>
                <ellipse id="Oval-Copy-3" fill="#D8D8D8" cx="227.5" cy="805.5" rx="199.5" ry="11.5"></ellipse>
                <path d="M647.851254,393.806134 L671.988325,398.387744 L644.012646,377.659692 C643.025792,371.51358 642.502819,365.093945 642.502819,358.489966 C642.502819,345.096936 644.653747,332.462085 648.462709,321.329284 L671.254701,336.116747 L653.296737,309.726243 C658.270936,299.76351 664.731801,291.586798 672.181749,285.947052 C684.713105,295.433516 694.445978,312.097993 699.012276,332.366587 L677.61445,363.812211 L701.44485,348.351029 C701.719301,351.672483 701.860679,355.056308 701.860679,358.489966 C701.860679,390.228879 689.781088,417.709861 672.181749,431.03288 C661.60173,423.023614 653.016512,409.897754 647.851254,393.806134 Z" id="Combined-Shape" fill="#247D70" transform="translate(672.181749, 358.489966) rotate(-26.000000) translate(-672.181749, -358.489966) "></path>
                <path d="M662.147133,413.828986 C662.384991,415.84498 662.508051,417.905714 662.508051,420.001198 C662.508051,436.952663 654.45499,451.630006 642.722097,458.745709 C630.989205,451.630006 622.936144,436.952663 622.936144,420.001198 C622.936144,412.826575 624.37874,406.05933 626.93236,400.100355 L641.397022,407.618767 L629.989118,394.187937 C633.324021,388.76228 637.683779,384.3123 642.722097,381.256687 C650.832792,386.175619 657.18502,394.707998 660.334139,405.107157 L645.636855,422.410663 L662.147133,413.828986 Z" id="Combined-Shape-Copy-2" fill="#56CBB9" transform="translate(642.722097, 420.001198) rotate(-75.000000) translate(-642.722097, -420.001198) "></path>
                <path d="M809.424947,378.546977 C809.700679,380.945184 809.843146,383.394096 809.843146,385.882726 C809.843146,406.801554 799.77682,424.91402 785.110705,433.695101 C770.444589,424.91402 760.378263,406.801554 760.378263,385.882726 C760.378263,377.039203 762.177328,368.697237 765.362433,361.349826 L783.71418,370.766886 L769.24416,353.948424 C773.406368,347.289023 778.837794,341.826146 785.110705,338.07035 C795.339762,344.19482 803.331238,354.858571 807.23043,367.847778 L789.013971,389.020715 L809.424947,378.546977 Z" id="Combined-Shape-Copy-4" fill="#247D70" transform="translate(785.110705, 385.882726) rotate(-330.000000) translate(-785.110705, -385.882726) "></path>
                <path d="M845.85742,418.642157 C846.095278,420.658151 846.218338,422.718885 846.218338,424.814369 C846.218338,441.765834 838.165277,456.443177 826.432385,463.55888 C814.699492,456.443177 806.646432,441.765834 806.646432,424.814369 C806.646432,417.639747 808.089027,410.872502 810.642647,404.913526 L825.10731,412.431939 L813.699406,399.001108 C817.034309,393.575452 821.394066,389.125472 826.432385,386.069858 C834.543079,390.98879 840.895308,399.52117 844.044426,409.920329 L829.347143,427.223835 L845.85742,418.642157 Z" id="Combined-Shape-Copy-3" fill="#56CBB9" transform="translate(826.432385, 424.814369) scale(1, -1) rotate(-247.000000) translate(-826.432385, -424.814369) "></path>
                <polyline id="Path" stroke="#0D5147" points="663 424 692.769231 432.055556 706 453"></polyline>
                <path d="M772.245574,359.324186 C772.584813,362.551732 772.760344,365.851215 772.760344,369.206533 C772.760344,396.256743 761.351841,419.678035 744.730244,431.03288 C728.108646,419.678035 716.700144,396.256743 716.700144,369.206533 C716.700144,357.39378 718.875796,346.273079 722.711148,336.547107 L743.768882,348.876031 L727.263575,326.987514 C731.910104,318.794753 737.877072,312.061848 744.730244,307.380186 C756.329976,315.304404 765.390805,329.105271 769.807038,345.915041 L749.775312,372.480121 L772.245574,359.324186 Z" id="Combined-Shape-Copy-5" fill="#56CBB9" transform="translate(744.730244, 369.206533) rotate(-346.000000) translate(-744.730244, -369.206533) "></path>
                <polyline id="Path-2" stroke="#0D5147" points="813 435 783.26087 441.545455 775 453"></polyline>
                <polyline id="Path-3" stroke="#0D5147" points="696 408 708.8 429.185185 712 452"></polyline>
                <g id="Group-2-Copy" transform="translate(223.000000, 542.000000)">
                    <g id="Group-4" transform="translate(0.000000, 18.723360)">
                        <g id="Group-3">
                            <polygon id="Path-6-Copy-8" fill="#8D5219" points="52.9648099 1.42108547e-14 84.144297 1.42108547e-14 10.2981432 247.441415 -1.18903629 247.441415"></polygon>
                            <path d="M80.8622458,0 L87.4263483,0 L13.5801945,247.441415 L7.01609191,247.441415 L80.8622458,0 Z" id="Combined-Shape" fill="#7C4612"></path>
                        </g>
                        <polygon id="Path-6-Copy-7" fill="#8D5219" transform="translate(147.097790, 125.475611) scale(-1, 1) translate(-147.097790, -125.475611) " points="157.990451 1.75490366 189.169938 1.75490366 115.323784 249.196319 103.836605 249.196319"></polygon>
                        <path d="M183.794872,249.196319 L129.641026,1.75490366 L136.205128,1.75490366 L190.358974,249.196319 L183.794872,249.196319 Z" id="Combined-Shape" fill="#7C4612"></path>
                    </g>
                    <polygon id="Rectangle" fill="#AB6C2C" transform="translate(96.342507, 15.907494) rotate(-4.000000) translate(-96.342507, -15.907494) " points="1.99151491 7.5882157 190.775016 6.65077396 190.693499 24.2267731 1.90999824 25.1642148"></polygon>
                    <polygon id="Rectangle" fill="#824D18" transform="translate(182.286487, 9.468698) rotate(-4.000000) translate(-182.286487, -9.468698) " points="174.119267 0.721457087 190.535223 0.639940414 190.453707 18.2159396 174.03775 18.2974562"></polygon>
                </g>
                <polyline id="Path-4" stroke="#0D5147" points="735 411 730 429.04 730 452"></polyline>
                <polyline id="Path-5" stroke="#0D5147" points="770 414 761.875 427.12 757 455"></polyline>
                <path d="M682,452 L790,452 C793.865993,452 797,455.134007 797,459 L797,549 C797,563.359403 785.359403,575 771,575 L701,575 C686.640597,575 675,563.359403 675,549 L675,459 C675,455.134007 678.134007,452 682,452 Z" id="Rectangle" fill="#FFFBFB"></path>
                <path d="M776.731707,452 L790,452 C793.865993,452 797,455.134007 797,459 L797,549 C797,563.359403 785.359403,575 771,575 L757.731707,575 C772.091111,575 783.731707,563.359403 783.731707,549 L783.731707,459 C783.731707,455.134007 780.597701,452 776.731707,452 Z" id="Combined-Shape" fill="#F2F2F2"></path>
                <path d="M611.873982,582 L643,582 L571.016864,808.5355 C569.982841,811.789636 566.961213,814 563.546743,814 L563.546743,814 C561.033148,814 558.995477,811.962329 558.995477,809.448734 C558.995477,809.101038 559.03532,808.754487 559.114227,808.415862 L611.873982,582 Z" id="Path-6" fill="#8D5219"></path>
                <ellipse id="Oval" fill="#D8D8D8" cx="711.5" cy="810.5" rx="199.5" ry="15.5"></ellipse>
                <g id="Group" transform="translate(0.000000, 328.000000)">
                    <path d="M12.806485,0.384266402 L196.794477,-0.00384033335 C202.623234,-0.0161355916 207.747697,3.85274481 209.332289,9.4619897 L288.622565,290.13903 C290.574417,297.048327 286.555614,304.231708 279.646317,306.18356 C278.496371,306.508416 277.307126,306.673171 276.112176,306.673171 L31.2996127,306.673171 C24.4516638,306.673171 18.7779068,301.360907 18.3277332,294.527771 L-0.137972237,14.2388374 C-0.609954753,7.07466617 4.81513612,0.88434045 11.9793074,0.412357934 C12.2546652,0.394217094 12.5305309,0.384848503 12.806485,0.384266402 Z" id="Rectangle" fill="#FEB63B"></path>
                    <rect id="Rectangle" fill="#FFC055" x="18.123348" y="281.941463" width="355.876652" height="56.0585366" rx="5"></rect>
                </g>
                <g id="Group-2" transform="translate(30.000000, 547.000000)">
                    <g id="Group-4" transform="translate(0.000000, 18.723360)">
                        <g id="Group-3">
                            <polygon id="Path-6-Copy-8" fill="#8D5219" points="52.9648099 1.42108547e-14 84.144297 1.42108547e-14 10.2981432 247.441415 -1.18903629 247.441415"></polygon>
                            <path d="M80.8622458,0 L87.4263483,0 L13.5801945,247.441415 L7.01609191,247.441415 L80.8622458,0 Z" id="Combined-Shape" fill="#7C4612"></path>
                        </g>
                        <polygon id="Path-6-Copy-7" fill="#8D5219" transform="translate(147.097790, 125.475611) scale(-1, 1) translate(-147.097790, -125.475611) " points="157.990451 1.75490366 189.169938 1.75490366 115.323784 249.196319 103.836605 249.196319"></polygon>
                        <path d="M183.794872,249.196319 L129.641026,1.75490366 L136.205128,1.75490366 L190.358974,249.196319 L183.794872,249.196319 Z" id="Combined-Shape" fill="#7C4612"></path>
                    </g>
                    <polygon id="Rectangle" fill="#AB6C2C" transform="translate(96.342507, 15.907494) rotate(-4.000000) translate(-96.342507, -15.907494) " points="1.99151491 7.5882157 190.775016 6.65077396 190.693499 24.2267731 1.90999824 25.1642148"></polygon>
                    <polygon id="Rectangle" fill="#824D18" transform="translate(182.286487, 9.468698) rotate(-4.000000) translate(-182.286487, -9.468698) " points="174.119267 0.721457087 190.535223 0.639940414 190.453707 18.2159396 174.03775 18.2974562"></polygon>
                </g>
                <ellipse id="Oval-Copy-4" fill="#D8D8D8" transform="translate(1279.500000, 805.500000) scale(-1, 1) translate(-1279.500000, -805.500000) " cx="1279.5" cy="805.5" rx="199.5" ry="11.5"></ellipse>
                <g id="Group-2-Copy-3" transform="translate(1144.000000, 676.500000) scale(-1, 1) translate(-1144.000000, -676.500000) translate(1048.000000, 542.000000)">
                    <g id="Group-4" transform="translate(0.000000, 18.723360)">
                        <g id="Group-3">
                            <polygon id="Path-6-Copy-8" fill="#8D5219" points="52.9648099 1.42108547e-14 84.144297 1.42108547e-14 10.2981432 247.441415 -1.18903629 247.441415"></polygon>
                            <path d="M80.8622458,0 L87.4263483,0 L13.5801945,247.441415 L7.01609191,247.441415 L80.8622458,0 Z" id="Combined-Shape" fill="#7C4612"></path>
                        </g>
                        <polygon id="Path-6-Copy-7" fill="#8D5219" transform="translate(147.097790, 125.475611) scale(-1, 1) translate(-147.097790, -125.475611) " points="157.990451 1.75490366 189.169938 1.75490366 115.323784 249.196319 103.836605 249.196319"></polygon>
                        <path d="M183.794872,249.196319 L129.641026,1.75490366 L136.205128,1.75490366 L190.358974,249.196319 L183.794872,249.196319 Z" id="Combined-Shape" fill="#7C4612"></path>
                    </g>
                    <polygon id="Rectangle" fill="#AB6C2C" transform="translate(96.342507, 15.907494) rotate(-4.000000) translate(-96.342507, -15.907494) " points="1.99151491 7.5882157 190.775016 6.65077396 190.693499 24.2267731 1.90999824 25.1642148"></polygon>
                    <polygon id="Rectangle" fill="#824D18" transform="translate(182.286487, 9.468698) rotate(-4.000000) translate(-182.286487, -9.468698) " points="174.119267 0.721457087 190.535223 0.639940414 190.453707 18.2159396 174.03775 18.2974562"></polygon>
                </g>
                <g id="Group-Copy" transform="translate(1239.000000, 497.000000) scale(-1, 1) translate(-1239.000000, -497.000000) translate(1052.000000, 328.000000)">
                    <path d="M12.806485,0.384266402 L196.794477,-0.00384033335 C202.623234,-0.0161355916 207.747697,3.85274481 209.332289,9.4619897 L288.622565,290.13903 C290.574417,297.048327 286.555614,304.231708 279.646317,306.18356 C278.496371,306.508416 277.307126,306.673171 276.112176,306.673171 L31.2996127,306.673171 C24.4516638,306.673171 18.7779068,301.360907 18.3277332,294.527771 L-0.137972237,14.2388374 C-0.609954753,7.07466617 4.81513612,0.88434045 11.9793074,0.412357934 C12.2546652,0.394217094 12.5305309,0.384848503 12.806485,0.384266402 Z" id="Rectangle" fill="#FEB63B"></path>
                    <rect id="Rectangle" fill="#FFC055" x="18.123348" y="281.941463" width="355.876652" height="56.0585366" rx="5"></rect>
                </g>
                <g id="Group-2-Copy-2" transform="translate(1330.000000, 681.500000) scale(-1, 1) translate(-1330.000000, -681.500000) translate(1234.000000, 547.000000)">
                    <g id="Group-4" transform="translate(0.000000, 18.723360)">
                        <g id="Group-3">
                            <polygon id="Path-6-Copy-8" fill="#8D5219" points="52.9648099 1.42108547e-14 84.144297 1.42108547e-14 10.2981432 247.441415 -1.18903629 247.441415"></polygon>
                            <path d="M80.8622458,0 L87.4263483,0 L13.5801945,247.441415 L7.01609191,247.441415 L80.8622458,0 Z" id="Combined-Shape" fill="#7C4612"></path>
                        </g>
                        <polygon id="Path-6-Copy-7" fill="#8D5219" transform="translate(147.097790, 125.475611) scale(-1, 1) translate(-147.097790, -125.475611) " points="157.990451 1.75490366 189.169938 1.75490366 115.323784 249.196319 103.836605 249.196319"></polygon>
                        <path d="M183.794872,249.196319 L129.641026,1.75490366 L136.205128,1.75490366 L190.358974,249.196319 L183.794872,249.196319 Z" id="Combined-Shape" fill="#7C4612"></path>
                    </g>
                    <polygon id="Rectangle" fill="#AB6C2C" transform="translate(96.342507, 15.907494) rotate(-4.000000) translate(-96.342507, -15.907494) " points="1.99151491 7.5882157 190.775016 6.65077396 190.693499 24.2267731 1.90999824 25.1642148"></polygon>
                    <polygon id="Rectangle" fill="#824D18" transform="translate(182.286487, 9.468698) rotate(-4.000000) translate(-182.286487, -9.468698) " points="174.119267 0.721457087 190.535223 0.639940414 190.453707 18.2159396 174.03775 18.2974562"></polygon>
                </g>
                <path d="M587,759.563528 L571.122593,808.507407 C570.060234,811.782248 567.009267,814 563.566421,814 C561.04699,814 559.004587,811.957597 559.004587,809.438166 C559.004587,809.082619 559.046153,808.728292 559.128439,808.382399 L571.827766,755 L587,759.563528 Z" id="Combined-Shape" fill="#D1A65C"></path>
                <path d="M714,583 L745,583 L735.018451,804.295274 C734.874504,807.486654 732.245237,810 729.050613,810 L729.050613,810 C725.859497,810 723.236511,807.482719 723.105321,804.294301 L714,583 Z" id="Path-6-Copy-2" fill="#8D5219"></path>
                <path d="M737,764 L735.208179,804.453505 C735.070774,807.555668 732.515778,810 729.410574,810 C726.308722,810 723.759725,807.551917 723.634496,804.452593 L722,764 L737,764 Z" id="Combined-Shape" fill="#D1A65C"></path>
                <path d="M870.873982,582 L902,582 L830.016864,808.5355 C828.982841,811.789636 825.961213,814 822.546743,814 L822.546743,814 C820.033148,814 817.995477,811.962329 817.995477,809.448734 C817.995477,809.101038 818.03532,808.754487 818.114227,808.415862 L870.873982,582 Z" id="Path-6-Copy" fill="#8D5219" transform="translate(860.000000, 698.000000) scale(-1, 1) translate(-860.000000, -698.000000) "></path>
                <rect id="Rectangle" fill="#A4DDD5" x="525" y="575" width="401" height="12" rx="2.5"></rect>
                <rect id="Rectangle-Copy-4" fill="#75471A" x="578" y="587" width="302" height="10" rx="2.5"></rect>
                <path d="M889.291908,757 L901.872793,810.339808 C901.954478,810.686132 901.995734,811.040759 901.995734,811.396586 C901.995734,813.938981 899.934715,816 897.392319,816 C893.9267,816 890.857319,813.762976 889.796202,810.463802 L874,761.351041 L889.291908,757 Z" id="Combined-Shape" fill="#D1A65C"></path>
            </g>
        </g>
    </g>
</svg>