<?xml version="1.0" encoding="UTF-8"?>
<svg width="129px" height="57px" viewBox="0 0 129 57" version="1.1" xmlns="http://www.w3.org/2000/svg" xmlns:xlink="http://www.w3.org/1999/xlink">
    <!-- Generator: Sketch 52.1 (67048) - http://www.bohemiancoding.com/sketch -->
    <title>Keller_Williams_Realty_logo</title>
    <desc>Created with Sketch.</desc>
    <defs>
        <rect id="path-1" x="0" y="0" width="129" height="57"></rect>
        <polygon id="path-3" points="0 0 0 56.6507848 128.604798 56.6507848 128.604798 0"></polygon>
        <polygon id="path-5" points="0 0 0 56.6507848 128.604798 56.6507848 128.604798 0"></polygon>
        <polygon id="path-7" points="0 0 0 56.6507848 128.604798 56.6507848 128.604798 0"></polygon>
        <polygon id="path-9" points="0 0 0 56.6507848 128.604798 56.6507848 128.604798 0"></polygon>
        <polygon id="path-11" points="0 0 0 56.6507848 128.604798 56.6507848 128.604798 0"></polygon>
        <polygon id="path-13" points="0 0 0 56.6507848 128.604798 56.6507848 128.604798 0"></polygon>
        <polygon id="path-15" points="0 0 0 56.6507848 128.604798 56.6507848 128.604798 0"></polygon>
        <polygon id="path-17" points="0 0 0 56.6507848 128.604798 56.6507848 128.604798 0"></polygon>
        <polygon id="path-19" points="0 0 0 56.6507848 128.604798 56.6507848 128.604798 0"></polygon>
        <polygon id="path-21" points="0 0 0 56.6507848 128.604798 56.6507848 128.604798 0"></polygon>
        <polygon id="path-23" points="0 0 0 56.6507848 128.604798 56.6507848 128.604798 0"></polygon>
        <polygon id="path-25" points="0 0 0 56.6507848 128.604798 56.6507848 128.604798 0"></polygon>
        <polygon id="path-27" points="0 0 0 56.6507848 128.604798 56.6507848 128.604798 0"></polygon>
        <polygon id="path-29" points="0 0 0 56.6507848 128.604798 56.6507848 128.604798 0"></polygon>
        <polygon id="path-31" points="0 0 0 56.6507848 128.604798 56.6507848 128.604798 0"></polygon>
        <polygon id="path-33" points="0 0 0 56.6507848 128.604798 56.6507848 128.604798 0"></polygon>
        <polygon id="path-35" points="0 0 0 56.6507848 128.604798 56.6507848 128.604798 0"></polygon>
    </defs>
    <g id="website" stroke="none" stroke-width="1" fill="none" fill-rule="evenodd">
        <g id="home-" transform="translate(-1243.000000, -10404.000000)">
            <g id="CTA-with-form-and-logos" transform="translate(0.000000, 9703.000000)">
                <g id="logos" transform="translate(525.000000, 587.000000)">
                    <g id="Keller_Williams_Realty_logo" transform="translate(718.000000, 114.000000)">
                        <mask id="mask-2" fill="white">
                            <use xlink:href="#path-1"></use>
                        </mask>
                        <g id="Rectangle"></g>
                        <g id="Group" mask="url(#mask-2)">
                            <g id="Clipped">
                                <mask id="mask-4" fill="white">
                                    <use xlink:href="#path-3"></use>
                                </mask>
                                <g id="Path"></g>
                                <path d="M127.914376,56.1118101 L127.628192,55.4761519 C127.795132,55.3513291 127.815692,55.2697975 127.815692,55.1341519 C127.814047,54.8982152 127.619968,54.7531899 127.30829,54.7531899 L126.914376,54.7531899 L126.914376,56.1132532 L127.13477,56.1132532 L127.13477,55.5021266 L127.403685,55.5021266 L127.682468,56.1118101 L127.914376,56.1118101 Z M127.13477,55.347 L127.13477,54.9191392 L127.281974,54.9191392 C127.493323,54.9191392 127.584606,54.9992278 127.585428,55.1262152 C127.585428,55.2380506 127.517994,55.347 127.281974,55.347 L127.13477,55.347 Z" id="Shape" fill="#858689" fill-rule="nonzero" mask="url(#mask-4)"></path>
                            </g>
                            <g id="Clipped">
                                <mask id="mask-6" fill="white">
                                    <use xlink:href="#path-5"></use>
                                </mask>
                                <g id="Path"></g>
                                <path d="M127.32822,56.6507848 C126.622821,56.6507848 126.049405,56.0966582 126.049405,55.4148228 C126.049405,54.7351519 126.622821,54.1824684 127.32822,54.1824684 C128.02989,54.1824684 128.604798,54.7351519 128.604798,55.4148228 C128.604798,56.0966582 128.02989,56.6507848 127.32822,56.6507848 Z M127.32822,54.3383165 C126.713046,54.3383165 126.21196,54.8238987 126.21196,55.4148228 C126.21196,56.0122405 126.713046,56.4913291 127.32822,56.4913291 C127.939665,56.4913291 128.438514,56.0122405 128.438514,55.4148228 C128.438514,54.8238987 127.939665,54.3383165 127.32822,54.3383165 Z" id="Shape" fill="#858689" fill-rule="nonzero" mask="url(#mask-6)"></path>
                            </g>
                            <g id="Clipped">
                                <mask id="mask-8" fill="white">
                                    <use xlink:href="#path-7"></use>
                                </mask>
                                <g id="Path"></g>
                                <polygon id="Path" fill="#858689" fill-rule="nonzero" mask="url(#mask-8)" points="60.0737341 43.9159747 56.6429306 54.2199873 52.5104566 43.9794684 51.4501214 43.9794684 56.4184855 56.544 56.884526 56.544 60.4361272 45.467962 64.0481272 56.544 64.5149133 56.544 69.4594162 43.9794684 68.374474 43.9794684 64.3009075 54.2113291 60.8261098 43.9159747"></polygon>
                            </g>
                            <g id="Clipped">
                                <mask id="mask-10" fill="white">
                                    <use xlink:href="#path-9"></use>
                                </mask>
                                <g id="Path"></g>
                                <polygon id="Path" fill="#858689" fill-rule="nonzero" mask="url(#mask-10)" points="73.7454971 43.9686456 73.7454971 56.4415443 80.0523295 56.4415443 80.0523295 55.6377722 74.7446879 55.6377722 74.7446879 43.9686456"></polygon>
                            </g>
                            <g id="Clipped">
                                <mask id="mask-12" fill="white">
                                    <use xlink:href="#path-11"></use>
                                </mask>
                                <g id="Path"></g>
                                <polygon id="Path" fill="#858689" fill-rule="nonzero" mask="url(#mask-12)" points="81.8911387 43.9686456 81.8911387 56.4415443 88.1964798 56.4415443 88.1964798 55.6377722 82.8858555 55.6377722 82.8858555 43.9686456"></polygon>
                            </g>
                            <g id="Clipped">
                                <mask id="mask-14" fill="white">
                                    <use xlink:href="#path-13"></use>
                                </mask>
                                <g id="Path"></g>
                                <polygon id="Path" fill="#858689" fill-rule="nonzero" mask="url(#mask-14)" points="89.9547572 56.4415443 90.953948 56.4415443 90.953948 43.9700886 89.9547572 43.9700886"></polygon>
                            </g>
                            <g id="Clipped">
                                <mask id="mask-16" fill="white">
                                    <use xlink:href="#path-15"></use>
                                </mask>
                                <g id="Path"></g>
                                <polygon id="Path" fill="#858689" fill-rule="nonzero" mask="url(#mask-16)" points="70.9045145 56.4415443 71.9096705 56.4415443 71.9096705 43.9700886 70.9045145 43.9700886"></polygon>
                            </g>
                            <g id="Clipped">
                                <mask id="mask-18" fill="white">
                                    <use xlink:href="#path-17"></use>
                                </mask>
                                <g id="Path"></g>
                                <path d="M97.6969942,43.9037089 L92.3669827,56.4415443 L93.2960809,56.4415443 L95.1222139,52.1333544 L100.757202,52.1333544 L102.578861,56.4415443 L103.513179,56.4415443 L98.184659,43.9037089 L97.6969942,43.9037089 Z M97.9303873,45.4722911 L100.417925,51.3339114 L95.4629827,51.3339114 L97.9303873,45.4722911 Z" id="Shape" fill="#858689" fill-rule="nonzero" mask="url(#mask-18)"></path>
                            </g>
                            <g id="Clipped">
                                <mask id="mask-20" fill="white">
                                    <use xlink:href="#path-19"></use>
                                </mask>
                                <g id="Path"></g>
                                <polygon id="Path" fill="#858689" fill-rule="nonzero" mask="url(#mask-20)" points="115.704798 43.9931772 110.801306 49.7826456 105.897815 43.9931772 104.896387 43.9931772 104.896387 56.4415443 105.897815 56.4415443 105.897815 45.4030253 105.935098 45.4030253 110.801306 51.2191899 115.663786 45.4030253 115.704798 45.4030253 115.704798 56.4415443 116.70548 56.4415443 116.70548 43.9931772"></polygon>
                            </g>
                            <g id="Clipped">
                                <mask id="mask-22" fill="white">
                                    <use xlink:href="#path-21"></use>
                                </mask>
                                <g id="Path"></g>
                                <path d="M124.975647,46.0134304 C124.161382,44.9953671 123.003364,44.7536582 122.115277,44.7536582 C120.571006,44.7536582 119.401803,45.7774937 119.401803,47.1317848 C119.401803,50.4500506 125.528931,48.8648734 125.528931,53.2264557 C125.528931,55.1413671 123.88996,56.6363544 121.793896,56.6363544 C120.73878,56.6363544 119.607607,56.3578481 118.492838,55.5410886 L118.492838,54.4104684 C119.747792,55.5612911 120.73878,55.7438354 121.737225,55.7438354 C123.267329,55.7438354 124.449954,54.6658861 124.449954,53.2618101 C124.449954,49.7213165 118.325809,51.2704177 118.325809,47.1678608 C118.325809,45.3272658 119.981185,43.8676329 122.023561,43.8618608 C123.060035,43.8618608 124.384335,44.2724051 124.975647,44.9564051 L124.975647,46.0134304 Z" id="Path" fill="#858689" fill-rule="nonzero" mask="url(#mask-22)"></path>
                            </g>
                            <g id="Clipped">
                                <mask id="mask-24" fill="white">
                                    <use xlink:href="#path-23"></use>
                                </mask>
                                <g id="Path"></g>
                                <polygon id="Path" fill="#858689" fill-rule="nonzero" mask="url(#mask-24)" points="19.2284566 44.0076076 19.2284566 56.4761772 25.8529422 56.4761772 25.8529422 54.8650253 21.0799422 54.8650253 21.0799422 44.0076076"></polygon>
                            </g>
                            <g id="Clipped">
                                <mask id="mask-26" fill="white">
                                    <use xlink:href="#path-25"></use>
                                </mask>
                                <g id="Path"></g>
                                <polygon id="Path" fill="#858689" fill-rule="nonzero" mask="url(#mask-26)" points="27.0392948 44.0076076 27.0392948 56.4761772 33.6637803 56.4761772 33.6637803 54.8650253 28.891526 54.8650253 28.891526 44.0076076"></polygon>
                            </g>
                            <g id="Clipped">
                                <mask id="mask-28" fill="white">
                                    <use xlink:href="#path-27"></use>
                                </mask>
                                <g id="Path"></g>
                                <polygon id="Path" fill="#858689" fill-rule="nonzero" mask="url(#mask-28)" points="34.8575896 44.0076076 34.8575896 56.4761772 42.3410809 56.4761772 42.3410809 54.8650253 36.7090751 54.8650253 36.7090751 50.9926329 41.9839075 50.9926329 41.9839075 49.381481 36.7090751 49.381481 36.7090751 45.6158734 42.1703237 45.6158734 42.1703237 44.0076076"></polygon>
                            </g>
                            <g id="Clipped">
                                <mask id="mask-30" fill="white">
                                    <use xlink:href="#path-29"></use>
                                </mask>
                                <g id="Path"></g>
                                <path d="M51.8497977,56.4732911 L49.4636705,50.6484684 C50.8826705,49.5142405 51.0429884,48.7443797 51.0273295,47.4968734 C51.0071965,45.3395316 49.4055087,44.0076076 46.7964277,44.0076076 L43.5468208,44.0076076 L43.5468208,56.4776203 L45.399052,56.4776203 L45.399052,50.9017215 C45.399052,50.9017215 46.9284104,50.9031646 47.605474,50.8988354 L49.9349306,56.4732911 L51.8497977,56.4732911 Z M45.399052,49.4572405 L45.399052,45.5437215 L46.5883873,45.5437215 C48.383948,45.5437215 49.1020231,46.2580253 49.1214104,47.4261646 C49.1407977,48.4709241 48.5726012,49.4572405 46.5883873,49.4572405 L45.399052,49.4572405 Z" id="Shape" fill="#858689" fill-rule="nonzero" mask="url(#mask-30)"></path>
                            </g>
                            <g id="Clipped">
                                <mask id="mask-32" fill="white">
                                    <use xlink:href="#path-31"></use>
                                </mask>
                                <g id="Path"></g>
                                <polygon id="Path" fill="#858689" fill-rule="nonzero" mask="url(#mask-32)" points="10.5504104 44.0076076 10.5504104 56.4559747 18.0189884 56.4559747 18.0189884 54.8469873 12.399659 54.8469873 12.399659 50.9789241 17.661815 50.9789241 17.661815 49.3735443 12.399659 49.3735443 12.399659 45.6144304 17.8504682 45.6144304 17.8504682 44.0076076"></polygon>
                            </g>
                            <g id="Clipped">
                                <mask id="mask-34" fill="white">
                                    <use xlink:href="#path-33"></use>
                                </mask>
                                <g id="Path"></g>
                                <polygon id="Path" fill="#858689" fill-rule="nonzero" mask="url(#mask-34)" points="7.25382659 44.0076076 6.59987861 44.6923291 1.85521387 49.6881266 1.85521387 44.0076076 0.00671098266 44.0076076 0.00671098266 56.4307215 1.85521387 56.4307215 1.85521387 52.1658228 3.91175723 49.9853924 6.6043526 56.4336076 8.51250867 56.4336076 8.51250867 56.4321646 7.83917341 54.8289494 5.22934682 48.5856456 8.0382659 45.6101013 9.55121965 44.0076076"></polygon>
                            </g>
                            <g id="Clipped">
                                <mask id="mask-36" fill="white">
                                    <use xlink:href="#path-35"></use>
                                </mask>
                                <g id="Path"></g>
                                <polygon id="Path" fill="#FFFFFF" fill-rule="nonzero" mask="url(#mask-36)" points="0 0 0 37.7181266 5.43887861 37.7181266 5.43887861 28.8708608 9.42743931 25.0352658 14.9744393 37.7181266 20.4849017 37.7181266 13.1594913 20.8901392 18.302341 15.3770127 28.2756069 37.7181266 30.3694335 37.7181266 37.8521792 20.4384684 45.4557225 37.7181266 47.5197225 37.7181266 58.9164624 12.2795316 53.3359075 12.2795316 46.4757919 27.7142658 39.8222254 12.2795316 35.973104 12.2795316 29.2636127 27.7142658 22.3654682 12.2795316 15.1317746 12.2795316 5.43887861 21.640519 5.43887861 0"></polygon>
                            </g>
                        </g>
                    </g>
                </g>
            </g>
        </g>
    </g>
</svg>